M48
; DRILL file {KiCad 7.0.1} date Thu Sep  7 11:56:14 2023
; FORMAT={-:-/ absolute / inch / decimal}
; #@! TF.CreationDate,2023-09-07T11:56:14+03:00
; #@! TF.GenerationSoftware,Kicad,Pcbnew,7.0.1
; #@! TF.FileFunction,Plated,1,2,PTH
FMAT,2
INCH
; #@! TA.AperFunction,Plated,PTH,ViaDrill
T1C0.0157
; #@! TA.AperFunction,Plated,PTH,ComponentDrill
T2C0.0433
; #@! TA.AperFunction,Plated,PTH,ComponentDrill
T3C0.0630
; #@! TA.AperFunction,Plated,PTH,ComponentDrill
T4C0.1201
%
G90
G05
T1
X4.622Y-1.3543
X5.6Y-1.4
T2
X2.185Y-1.437
X2.185Y-1.6929
X2.3622Y-1.437
X2.3622Y-1.6929
X2.5787Y-1.437
X2.5787Y-1.6929
X2.7559Y-1.437
X2.7559Y-1.6929
X2.9724Y-1.437
X2.9724Y-1.6929
X3.1496Y-1.437
X3.1496Y-1.6929
X3.4843Y-1.437
X3.4843Y-1.6929
X3.6614Y-1.437
X3.6614Y-1.6929
X3.878Y-1.437
X3.878Y-1.6929
X4.0551Y-1.437
X4.0551Y-1.6929
X4.2717Y-1.437
X4.2717Y-1.6929
X4.4488Y-1.437
X4.4488Y-1.6929
T3
X1.9443Y-3.8241
X2.9514Y-3.8241
X3.2997Y-2.8287
X3.9587Y-4.1907
X4.9772Y-5.3059
X5.4429Y-3.9882
X5.6638Y-2.7661
X6.4906Y-3.5508
X6.7094Y-2.3122
X7.6264Y-3.5508
X7.85Y-2.3075
X8.7764Y-3.5508
X8.9906Y-2.3169
T4
X2.1411Y-3.3891
X2.338Y-3.4718
X3.1482Y-3.3891
X3.3451Y-3.4718
X3.4965Y-2.3937
X3.6934Y-2.4763
X4.1556Y-3.7556
X4.3524Y-3.8383
X5.174Y-4.8709
X5.3709Y-4.9535
X5.6398Y-3.5531
X5.8366Y-3.6358
X5.8606Y-2.3311
X6.0575Y-2.4138
X6.6874Y-3.1157
X6.8843Y-3.1984
X6.9063Y-1.8772
X7.1031Y-1.9598
X7.8232Y-3.1157
X8.0201Y-3.1984
X8.0469Y-1.8724
X8.2437Y-1.9551
X8.9732Y-3.1157
X9.1701Y-3.1984
X9.1874Y-1.8819
X9.3843Y-1.9646
T0
M30
