%TF.GenerationSoftware,KiCad,Pcbnew,7.0.1*%
%TF.CreationDate,2023-09-07T11:56:17+03:00*%
%TF.ProjectId,Flatbox-Dual,466c6174-626f-4782-9d44-75616c2e6b69,rev?*%
%TF.SameCoordinates,Original*%
%TF.FileFunction,Legend,Bot*%
%TF.FilePolarity,Positive*%
%FSLAX46Y46*%
G04 Gerber Fmt 4.6, Leading zero omitted, Abs format (unit mm)*
G04 Created by KiCad (PCBNEW 7.0.1) date 2023-09-07 11:56:17*
%MOMM*%
%LPD*%
G01*
G04 APERTURE LIST*
G04 Aperture macros list*
%AMRoundRect*
0 Rectangle with rounded corners*
0 $1 Rounding radius*
0 $2 $3 $4 $5 $6 $7 $8 $9 X,Y pos of 4 corners*
0 Add a 4 corners polygon primitive as box body*
4,1,4,$2,$3,$4,$5,$6,$7,$8,$9,$2,$3,0*
0 Add four circle primitives for the rounded corners*
1,1,$1+$1,$2,$3*
1,1,$1+$1,$4,$5*
1,1,$1+$1,$6,$7*
1,1,$1+$1,$8,$9*
0 Add four rect primitives between the rounded corners*
20,1,$1+$1,$2,$3,$4,$5,0*
20,1,$1+$1,$4,$5,$6,$7,0*
20,1,$1+$1,$6,$7,$8,$9,0*
20,1,$1+$1,$8,$9,$2,$3,0*%
G04 Aperture macros list end*
%ADD10C,0.120000*%
%ADD11C,1.900000*%
%ADD12C,2.600000*%
%ADD13RoundRect,0.250000X-1.025000X-1.000000X1.025000X-1.000000X1.025000X1.000000X-1.025000X1.000000X0*%
%ADD14C,5.050000*%
%ADD15C,3.600000*%
%ADD16C,6.400000*%
%ADD17C,2.000000*%
G04 APERTURE END LIST*
D10*
X77549350Y-84574150D02*
X78486350Y-83637150D01*
X78486350Y-83637150D02*
X81233350Y-83637150D01*
X78486350Y-88429150D02*
X77465350Y-87408150D01*
X81133350Y-88429150D02*
X78486350Y-88429150D01*
X81233350Y-83637150D02*
X81636350Y-83717150D01*
X81636350Y-83717150D02*
X81978350Y-83946150D01*
X81695350Y-88534150D02*
X81133350Y-88429150D01*
X81978350Y-83946150D02*
X82511350Y-84479150D01*
X82174350Y-88833150D02*
X81695350Y-88534150D01*
X82511350Y-84479150D02*
X82511350Y-84701150D01*
X82511350Y-84701150D02*
X82598350Y-85139150D01*
X82512350Y-89286150D02*
X82174350Y-88833150D01*
X82598350Y-85139150D02*
X82842350Y-85506150D01*
X82666350Y-89844150D02*
X82512350Y-89286150D01*
X82748350Y-90142150D02*
X82666350Y-89844150D01*
X82842350Y-85506150D02*
X83209350Y-85750150D01*
X82941350Y-90400150D02*
X82748350Y-90142150D01*
X83209350Y-85750150D02*
X83647350Y-85837150D01*
X83215350Y-90570150D02*
X82941350Y-90400150D01*
X83525350Y-90629150D02*
X83215350Y-90570150D01*
X83647350Y-85837150D02*
X86447350Y-85837150D01*
X86447350Y-85837150D02*
X86774350Y-85902150D01*
X86774350Y-85902150D02*
X87057350Y-86091150D01*
X87057350Y-86091150D02*
X87246350Y-86374150D01*
X87246350Y-86374150D02*
X87331350Y-86801150D01*
X87248350Y-89687150D02*
X87611350Y-89687150D01*
X87611350Y-89687150D02*
X87611350Y-90629150D01*
X87611350Y-90629150D02*
X83525350Y-90629150D01*
X103135488Y-93884070D02*
X104072488Y-92947070D01*
X104072488Y-92947070D02*
X106819488Y-92947070D01*
X104072488Y-97739070D02*
X103051488Y-96718070D01*
X106719488Y-97739070D02*
X104072488Y-97739070D01*
X106819488Y-92947070D02*
X107222488Y-93027070D01*
X107222488Y-93027070D02*
X107564488Y-93256070D01*
X107281488Y-97844070D02*
X106719488Y-97739070D01*
X107564488Y-93256070D02*
X108097488Y-93789070D01*
X107760488Y-98143070D02*
X107281488Y-97844070D01*
X108097488Y-93789070D02*
X108097488Y-94011070D01*
X108097488Y-94011070D02*
X108184488Y-94449070D01*
X108098488Y-98596070D02*
X107760488Y-98143070D01*
X108184488Y-94449070D02*
X108428488Y-94816070D01*
X108252488Y-99154070D02*
X108098488Y-98596070D01*
X108334488Y-99452070D02*
X108252488Y-99154070D01*
X108428488Y-94816070D02*
X108795488Y-95060070D01*
X108527488Y-99710070D02*
X108334488Y-99452070D01*
X108795488Y-95060070D02*
X109233488Y-95147070D01*
X108801488Y-99880070D02*
X108527488Y-99710070D01*
X109111488Y-99939070D02*
X108801488Y-99880070D01*
X109233488Y-95147070D02*
X112033488Y-95147070D01*
X112033488Y-95147070D02*
X112360488Y-95212070D01*
X112360488Y-95212070D02*
X112643488Y-95401070D01*
X112643488Y-95401070D02*
X112832488Y-95684070D01*
X112832488Y-95684070D02*
X112917488Y-96111070D01*
X112834488Y-98997070D02*
X113197488Y-98997070D01*
X113197488Y-98997070D02*
X113197488Y-99939070D01*
X113197488Y-99939070D02*
X109111488Y-99939070D01*
X129004000Y-122211000D02*
X129941000Y-121274000D01*
X129941000Y-121274000D02*
X132688000Y-121274000D01*
X129941000Y-126066000D02*
X128920000Y-125045000D01*
X132588000Y-126066000D02*
X129941000Y-126066000D01*
X132688000Y-121274000D02*
X133091000Y-121354000D01*
X133091000Y-121354000D02*
X133433000Y-121583000D01*
X133150000Y-126171000D02*
X132588000Y-126066000D01*
X133433000Y-121583000D02*
X133966000Y-122116000D01*
X133629000Y-126470000D02*
X133150000Y-126171000D01*
X133966000Y-122116000D02*
X133966000Y-122338000D01*
X133966000Y-122338000D02*
X134053000Y-122776000D01*
X133967000Y-126923000D02*
X133629000Y-126470000D01*
X134053000Y-122776000D02*
X134297000Y-123143000D01*
X134121000Y-127481000D02*
X133967000Y-126923000D01*
X134203000Y-127779000D02*
X134121000Y-127481000D01*
X134297000Y-123143000D02*
X134664000Y-123387000D01*
X134396000Y-128037000D02*
X134203000Y-127779000D01*
X134664000Y-123387000D02*
X135102000Y-123474000D01*
X134670000Y-128207000D02*
X134396000Y-128037000D01*
X134980000Y-128266000D02*
X134670000Y-128207000D01*
X135102000Y-123474000D02*
X137902000Y-123474000D01*
X137902000Y-123474000D02*
X138229000Y-123539000D01*
X138229000Y-123539000D02*
X138512000Y-123728000D01*
X138512000Y-123728000D02*
X138701000Y-124011000D01*
X138701000Y-124011000D02*
X138786000Y-124438000D01*
X138703000Y-127324000D02*
X139066000Y-127324000D01*
X139066000Y-127324000D02*
X139066000Y-128266000D01*
X139066000Y-128266000D02*
X134980000Y-128266000D01*
X146444000Y-57701000D02*
X147381000Y-56764000D01*
X147381000Y-56764000D02*
X150128000Y-56764000D01*
X147381000Y-61556000D02*
X146360000Y-60535000D01*
X150028000Y-61556000D02*
X147381000Y-61556000D01*
X150128000Y-56764000D02*
X150531000Y-56844000D01*
X150531000Y-56844000D02*
X150873000Y-57073000D01*
X150590000Y-61661000D02*
X150028000Y-61556000D01*
X150873000Y-57073000D02*
X151406000Y-57606000D01*
X151069000Y-61960000D02*
X150590000Y-61661000D01*
X151406000Y-57606000D02*
X151406000Y-57828000D01*
X151406000Y-57828000D02*
X151493000Y-58266000D01*
X151407000Y-62413000D02*
X151069000Y-61960000D01*
X151493000Y-58266000D02*
X151737000Y-58633000D01*
X151561000Y-62971000D02*
X151407000Y-62413000D01*
X151643000Y-63269000D02*
X151561000Y-62971000D01*
X151737000Y-58633000D02*
X152104000Y-58877000D01*
X151836000Y-63527000D02*
X151643000Y-63269000D01*
X152104000Y-58877000D02*
X152542000Y-58964000D01*
X152110000Y-63697000D02*
X151836000Y-63527000D01*
X152420000Y-63756000D02*
X152110000Y-63697000D01*
X152542000Y-58964000D02*
X155342000Y-58964000D01*
X155342000Y-58964000D02*
X155669000Y-59029000D01*
X155669000Y-59029000D02*
X155952000Y-59218000D01*
X155952000Y-59218000D02*
X156141000Y-59501000D01*
X156141000Y-59501000D02*
X156226000Y-59928000D01*
X156143000Y-62814000D02*
X156506000Y-62814000D01*
X156506000Y-62814000D02*
X156506000Y-63756000D01*
X156506000Y-63756000D02*
X152420000Y-63756000D01*
X173004000Y-46171000D02*
X173941000Y-45234000D01*
X173941000Y-45234000D02*
X176688000Y-45234000D01*
X173941000Y-50026000D02*
X172920000Y-49005000D01*
X176588000Y-50026000D02*
X173941000Y-50026000D01*
X176688000Y-45234000D02*
X177091000Y-45314000D01*
X177091000Y-45314000D02*
X177433000Y-45543000D01*
X177150000Y-50131000D02*
X176588000Y-50026000D01*
X177433000Y-45543000D02*
X177966000Y-46076000D01*
X177629000Y-50430000D02*
X177150000Y-50131000D01*
X177966000Y-46076000D02*
X177966000Y-46298000D01*
X177966000Y-46298000D02*
X178053000Y-46736000D01*
X177967000Y-50883000D02*
X177629000Y-50430000D01*
X178053000Y-46736000D02*
X178297000Y-47103000D01*
X178121000Y-51441000D02*
X177967000Y-50883000D01*
X178203000Y-51739000D02*
X178121000Y-51441000D01*
X178297000Y-47103000D02*
X178664000Y-47347000D01*
X178396000Y-51997000D02*
X178203000Y-51739000D01*
X178664000Y-47347000D02*
X179102000Y-47434000D01*
X178670000Y-52167000D02*
X178396000Y-51997000D01*
X178980000Y-52226000D02*
X178670000Y-52167000D01*
X179102000Y-47434000D02*
X181902000Y-47434000D01*
X181902000Y-47434000D02*
X182229000Y-47499000D01*
X182229000Y-47499000D02*
X182512000Y-47688000D01*
X182512000Y-47688000D02*
X182701000Y-47971000D01*
X182701000Y-47971000D02*
X182786000Y-48398000D01*
X182703000Y-51284000D02*
X183066000Y-51284000D01*
X183066000Y-51284000D02*
X183066000Y-52226000D01*
X183066000Y-52226000D02*
X178980000Y-52226000D01*
X201974000Y-46051000D02*
X202911000Y-45114000D01*
X202911000Y-45114000D02*
X205658000Y-45114000D01*
X202911000Y-49906000D02*
X201890000Y-48885000D01*
X205558000Y-49906000D02*
X202911000Y-49906000D01*
X205658000Y-45114000D02*
X206061000Y-45194000D01*
X206061000Y-45194000D02*
X206403000Y-45423000D01*
X206120000Y-50011000D02*
X205558000Y-49906000D01*
X206403000Y-45423000D02*
X206936000Y-45956000D01*
X206599000Y-50310000D02*
X206120000Y-50011000D01*
X206936000Y-45956000D02*
X206936000Y-46178000D01*
X206936000Y-46178000D02*
X207023000Y-46616000D01*
X206937000Y-50763000D02*
X206599000Y-50310000D01*
X207023000Y-46616000D02*
X207267000Y-46983000D01*
X207091000Y-51321000D02*
X206937000Y-50763000D01*
X207173000Y-51619000D02*
X207091000Y-51321000D01*
X207267000Y-46983000D02*
X207634000Y-47227000D01*
X207366000Y-51877000D02*
X207173000Y-51619000D01*
X207634000Y-47227000D02*
X208072000Y-47314000D01*
X207640000Y-52047000D02*
X207366000Y-51877000D01*
X207950000Y-52106000D02*
X207640000Y-52047000D01*
X208072000Y-47314000D02*
X210872000Y-47314000D01*
X210872000Y-47314000D02*
X211199000Y-47379000D01*
X211199000Y-47379000D02*
X211482000Y-47568000D01*
X211482000Y-47568000D02*
X211671000Y-47851000D01*
X211671000Y-47851000D02*
X211756000Y-48278000D01*
X211673000Y-51164000D02*
X212036000Y-51164000D01*
X212036000Y-51164000D02*
X212036000Y-52106000D01*
X212036000Y-52106000D02*
X207950000Y-52106000D01*
X230944000Y-46291000D02*
X231881000Y-45354000D01*
X231881000Y-45354000D02*
X234628000Y-45354000D01*
X231881000Y-50146000D02*
X230860000Y-49125000D01*
X234528000Y-50146000D02*
X231881000Y-50146000D01*
X234628000Y-45354000D02*
X235031000Y-45434000D01*
X235031000Y-45434000D02*
X235373000Y-45663000D01*
X235090000Y-50251000D02*
X234528000Y-50146000D01*
X235373000Y-45663000D02*
X235906000Y-46196000D01*
X235569000Y-50550000D02*
X235090000Y-50251000D01*
X235906000Y-46196000D02*
X235906000Y-46418000D01*
X235906000Y-46418000D02*
X235993000Y-46856000D01*
X235907000Y-51003000D02*
X235569000Y-50550000D01*
X235993000Y-46856000D02*
X236237000Y-47223000D01*
X236061000Y-51561000D02*
X235907000Y-51003000D01*
X236143000Y-51859000D02*
X236061000Y-51561000D01*
X236237000Y-47223000D02*
X236604000Y-47467000D01*
X236336000Y-52117000D02*
X236143000Y-51859000D01*
X236604000Y-47467000D02*
X237042000Y-47554000D01*
X236610000Y-52287000D02*
X236336000Y-52117000D01*
X236920000Y-52346000D02*
X236610000Y-52287000D01*
X237042000Y-47554000D02*
X239842000Y-47554000D01*
X239842000Y-47554000D02*
X240169000Y-47619000D01*
X240169000Y-47619000D02*
X240452000Y-47808000D01*
X240452000Y-47808000D02*
X240641000Y-48091000D01*
X240641000Y-48091000D02*
X240726000Y-48518000D01*
X240643000Y-51404000D02*
X241006000Y-51404000D01*
X241006000Y-51404000D02*
X241006000Y-52346000D01*
X241006000Y-52346000D02*
X236920000Y-52346000D01*
X140834000Y-88741000D02*
X141771000Y-87804000D01*
X141771000Y-87804000D02*
X144518000Y-87804000D01*
X141771000Y-92596000D02*
X140750000Y-91575000D01*
X144418000Y-92596000D02*
X141771000Y-92596000D01*
X144518000Y-87804000D02*
X144921000Y-87884000D01*
X144921000Y-87884000D02*
X145263000Y-88113000D01*
X144980000Y-92701000D02*
X144418000Y-92596000D01*
X145263000Y-88113000D02*
X145796000Y-88646000D01*
X145459000Y-93000000D02*
X144980000Y-92701000D01*
X145796000Y-88646000D02*
X145796000Y-88868000D01*
X145796000Y-88868000D02*
X145883000Y-89306000D01*
X145797000Y-93453000D02*
X145459000Y-93000000D01*
X145883000Y-89306000D02*
X146127000Y-89673000D01*
X145951000Y-94011000D02*
X145797000Y-93453000D01*
X146033000Y-94309000D02*
X145951000Y-94011000D01*
X146127000Y-89673000D02*
X146494000Y-89917000D01*
X146226000Y-94567000D02*
X146033000Y-94309000D01*
X146494000Y-89917000D02*
X146932000Y-90004000D01*
X146500000Y-94737000D02*
X146226000Y-94567000D01*
X146810000Y-94796000D02*
X146500000Y-94737000D01*
X146932000Y-90004000D02*
X149732000Y-90004000D01*
X149732000Y-90004000D02*
X150059000Y-90069000D01*
X150059000Y-90069000D02*
X150342000Y-90258000D01*
X150342000Y-90258000D02*
X150531000Y-90541000D01*
X150531000Y-90541000D02*
X150616000Y-90968000D01*
X150533000Y-93854000D02*
X150896000Y-93854000D01*
X150896000Y-93854000D02*
X150896000Y-94796000D01*
X150896000Y-94796000D02*
X146810000Y-94796000D01*
X167444000Y-77631000D02*
X168381000Y-76694000D01*
X168381000Y-76694000D02*
X171128000Y-76694000D01*
X168381000Y-81486000D02*
X167360000Y-80465000D01*
X171028000Y-81486000D02*
X168381000Y-81486000D01*
X171128000Y-76694000D02*
X171531000Y-76774000D01*
X171531000Y-76774000D02*
X171873000Y-77003000D01*
X171590000Y-81591000D02*
X171028000Y-81486000D01*
X171873000Y-77003000D02*
X172406000Y-77536000D01*
X172069000Y-81890000D02*
X171590000Y-81591000D01*
X172406000Y-77536000D02*
X172406000Y-77758000D01*
X172406000Y-77758000D02*
X172493000Y-78196000D01*
X172407000Y-82343000D02*
X172069000Y-81890000D01*
X172493000Y-78196000D02*
X172737000Y-78563000D01*
X172561000Y-82901000D02*
X172407000Y-82343000D01*
X172643000Y-83199000D02*
X172561000Y-82901000D01*
X172737000Y-78563000D02*
X173104000Y-78807000D01*
X172836000Y-83457000D02*
X172643000Y-83199000D01*
X173104000Y-78807000D02*
X173542000Y-78894000D01*
X173110000Y-83627000D02*
X172836000Y-83457000D01*
X173420000Y-83686000D02*
X173110000Y-83627000D01*
X173542000Y-78894000D02*
X176342000Y-78894000D01*
X176342000Y-78894000D02*
X176669000Y-78959000D01*
X176669000Y-78959000D02*
X176952000Y-79148000D01*
X176952000Y-79148000D02*
X177141000Y-79431000D01*
X177141000Y-79431000D02*
X177226000Y-79858000D01*
X177143000Y-82744000D02*
X177506000Y-82744000D01*
X177506000Y-82744000D02*
X177506000Y-83686000D01*
X177506000Y-83686000D02*
X173420000Y-83686000D01*
X196294000Y-77631000D02*
X197231000Y-76694000D01*
X197231000Y-76694000D02*
X199978000Y-76694000D01*
X197231000Y-81486000D02*
X196210000Y-80465000D01*
X199878000Y-81486000D02*
X197231000Y-81486000D01*
X199978000Y-76694000D02*
X200381000Y-76774000D01*
X200381000Y-76774000D02*
X200723000Y-77003000D01*
X200440000Y-81591000D02*
X199878000Y-81486000D01*
X200723000Y-77003000D02*
X201256000Y-77536000D01*
X200919000Y-81890000D02*
X200440000Y-81591000D01*
X201256000Y-77536000D02*
X201256000Y-77758000D01*
X201256000Y-77758000D02*
X201343000Y-78196000D01*
X201257000Y-82343000D02*
X200919000Y-81890000D01*
X201343000Y-78196000D02*
X201587000Y-78563000D01*
X201411000Y-82901000D02*
X201257000Y-82343000D01*
X201493000Y-83199000D02*
X201411000Y-82901000D01*
X201587000Y-78563000D02*
X201954000Y-78807000D01*
X201686000Y-83457000D02*
X201493000Y-83199000D01*
X201954000Y-78807000D02*
X202392000Y-78894000D01*
X201960000Y-83627000D02*
X201686000Y-83457000D01*
X202270000Y-83686000D02*
X201960000Y-83627000D01*
X202392000Y-78894000D02*
X205192000Y-78894000D01*
X205192000Y-78894000D02*
X205519000Y-78959000D01*
X205519000Y-78959000D02*
X205802000Y-79148000D01*
X205802000Y-79148000D02*
X205991000Y-79431000D01*
X205991000Y-79431000D02*
X206076000Y-79858000D01*
X205993000Y-82744000D02*
X206356000Y-82744000D01*
X206356000Y-82744000D02*
X206356000Y-83686000D01*
X206356000Y-83686000D02*
X202270000Y-83686000D01*
X225504000Y-77631000D02*
X226441000Y-76694000D01*
X226441000Y-76694000D02*
X229188000Y-76694000D01*
X226441000Y-81486000D02*
X225420000Y-80465000D01*
X229088000Y-81486000D02*
X226441000Y-81486000D01*
X229188000Y-76694000D02*
X229591000Y-76774000D01*
X229591000Y-76774000D02*
X229933000Y-77003000D01*
X229650000Y-81591000D02*
X229088000Y-81486000D01*
X229933000Y-77003000D02*
X230466000Y-77536000D01*
X230129000Y-81890000D02*
X229650000Y-81591000D01*
X230466000Y-77536000D02*
X230466000Y-77758000D01*
X230466000Y-77758000D02*
X230553000Y-78196000D01*
X230467000Y-82343000D02*
X230129000Y-81890000D01*
X230553000Y-78196000D02*
X230797000Y-78563000D01*
X230621000Y-82901000D02*
X230467000Y-82343000D01*
X230703000Y-83199000D02*
X230621000Y-82901000D01*
X230797000Y-78563000D02*
X231164000Y-78807000D01*
X230896000Y-83457000D02*
X230703000Y-83199000D01*
X231164000Y-78807000D02*
X231602000Y-78894000D01*
X231170000Y-83627000D02*
X230896000Y-83457000D01*
X231480000Y-83686000D02*
X231170000Y-83627000D01*
X231602000Y-78894000D02*
X234402000Y-78894000D01*
X234402000Y-78894000D02*
X234729000Y-78959000D01*
X234729000Y-78959000D02*
X235012000Y-79148000D01*
X235012000Y-79148000D02*
X235201000Y-79431000D01*
X235201000Y-79431000D02*
X235286000Y-79858000D01*
X235203000Y-82744000D02*
X235566000Y-82744000D01*
X235566000Y-82744000D02*
X235566000Y-83686000D01*
X235566000Y-83686000D02*
X231480000Y-83686000D01*
X51969121Y-84574150D02*
X52906121Y-83637150D01*
X52906121Y-83637150D02*
X55653121Y-83637150D01*
X52906121Y-88429150D02*
X51885121Y-87408150D01*
X55553121Y-88429150D02*
X52906121Y-88429150D01*
X55653121Y-83637150D02*
X56056121Y-83717150D01*
X56056121Y-83717150D02*
X56398121Y-83946150D01*
X56115121Y-88534150D02*
X55553121Y-88429150D01*
X56398121Y-83946150D02*
X56931121Y-84479150D01*
X56594121Y-88833150D02*
X56115121Y-88534150D01*
X56931121Y-84479150D02*
X56931121Y-84701150D01*
X56931121Y-84701150D02*
X57018121Y-85139150D01*
X56932121Y-89286150D02*
X56594121Y-88833150D01*
X57018121Y-85139150D02*
X57262121Y-85506150D01*
X57086121Y-89844150D02*
X56932121Y-89286150D01*
X57168121Y-90142150D02*
X57086121Y-89844150D01*
X57262121Y-85506150D02*
X57629121Y-85750150D01*
X57361121Y-90400150D02*
X57168121Y-90142150D01*
X57629121Y-85750150D02*
X58067121Y-85837150D01*
X57635121Y-90570150D02*
X57361121Y-90400150D01*
X57945121Y-90629150D02*
X57635121Y-90570150D01*
X58067121Y-85837150D02*
X60867121Y-85837150D01*
X60867121Y-85837150D02*
X61194121Y-85902150D01*
X61194121Y-85902150D02*
X61477121Y-86091150D01*
X61477121Y-86091150D02*
X61666121Y-86374150D01*
X61666121Y-86374150D02*
X61751121Y-86801150D01*
X61668121Y-89687150D02*
X62031121Y-89687150D01*
X62031121Y-89687150D02*
X62031121Y-90629150D01*
X62031121Y-90629150D02*
X57945121Y-90629150D01*
X86395691Y-59289889D02*
X87332691Y-58352889D01*
X87332691Y-58352889D02*
X90079691Y-58352889D01*
X87332691Y-63144889D02*
X86311691Y-62123889D01*
X89979691Y-63144889D02*
X87332691Y-63144889D01*
X90079691Y-58352889D02*
X90482691Y-58432889D01*
X90482691Y-58432889D02*
X90824691Y-58661889D01*
X90541691Y-63249889D02*
X89979691Y-63144889D01*
X90824691Y-58661889D02*
X91357691Y-59194889D01*
X91020691Y-63548889D02*
X90541691Y-63249889D01*
X91357691Y-59194889D02*
X91357691Y-59416889D01*
X91357691Y-59416889D02*
X91444691Y-59854889D01*
X91358691Y-64001889D02*
X91020691Y-63548889D01*
X91444691Y-59854889D02*
X91688691Y-60221889D01*
X91512691Y-64559889D02*
X91358691Y-64001889D01*
X91594691Y-64857889D02*
X91512691Y-64559889D01*
X91688691Y-60221889D02*
X92055691Y-60465889D01*
X91787691Y-65115889D02*
X91594691Y-64857889D01*
X92055691Y-60465889D02*
X92493691Y-60552889D01*
X92061691Y-65285889D02*
X91787691Y-65115889D01*
X92371691Y-65344889D02*
X92061691Y-65285889D01*
X92493691Y-60552889D02*
X95293691Y-60552889D01*
X95293691Y-60552889D02*
X95620691Y-60617889D01*
X95620691Y-60617889D02*
X95903691Y-60806889D01*
X95903691Y-60806889D02*
X96092691Y-61089889D01*
X96092691Y-61089889D02*
X96177691Y-61516889D01*
X96094691Y-64402889D02*
X96457691Y-64402889D01*
X96457691Y-64402889D02*
X96457691Y-65344889D01*
X96457691Y-65344889D02*
X92371691Y-65344889D01*
%LPC*%
D11*
X74465350Y-91983150D03*
D12*
X74965350Y-97133150D03*
D13*
X76465350Y-85983150D03*
D14*
X79965350Y-91983150D03*
D11*
X85465350Y-91983150D03*
D13*
X88465350Y-88183150D03*
D15*
X79965350Y-86083150D03*
X84965350Y-88183150D03*
D11*
X100051488Y-101293070D03*
D12*
X100551488Y-106443070D03*
D13*
X102051488Y-95293070D03*
D14*
X105551488Y-101293070D03*
D11*
X111051488Y-101293070D03*
D13*
X114051488Y-97493070D03*
D15*
X105551488Y-95393070D03*
X110551488Y-97493070D03*
D11*
X125920000Y-129620000D03*
D12*
X126420000Y-134770000D03*
D13*
X127920000Y-123620000D03*
D14*
X131420000Y-129620000D03*
D11*
X136920000Y-129620000D03*
D13*
X139920000Y-125820000D03*
D15*
X131420000Y-123720000D03*
X136420000Y-125820000D03*
D11*
X143360000Y-65110000D03*
D12*
X143860000Y-70260000D03*
D13*
X145360000Y-59110000D03*
D14*
X148860000Y-65110000D03*
D11*
X154360000Y-65110000D03*
D13*
X157360000Y-61310000D03*
D15*
X148860000Y-59210000D03*
X153860000Y-61310000D03*
D11*
X169920000Y-53580000D03*
D12*
X170420000Y-58730000D03*
D13*
X171920000Y-47580000D03*
D14*
X175420000Y-53580000D03*
D11*
X180920000Y-53580000D03*
D13*
X183920000Y-49780000D03*
D15*
X175420000Y-47680000D03*
X180420000Y-49780000D03*
D11*
X198890000Y-53460000D03*
D12*
X199390000Y-58610000D03*
D13*
X200890000Y-47460000D03*
D14*
X204390000Y-53460000D03*
D11*
X209890000Y-53460000D03*
D13*
X212890000Y-49660000D03*
D15*
X204390000Y-47560000D03*
X209390000Y-49660000D03*
D11*
X227860000Y-53700000D03*
D12*
X228360000Y-58850000D03*
D13*
X229860000Y-47700000D03*
D14*
X233360000Y-53700000D03*
D11*
X238860000Y-53700000D03*
D13*
X241860000Y-49900000D03*
D15*
X233360000Y-47800000D03*
X238360000Y-49900000D03*
D11*
X137750000Y-96150000D03*
D12*
X138250000Y-101300000D03*
D13*
X139750000Y-90150000D03*
D14*
X143250000Y-96150000D03*
D11*
X148750000Y-96150000D03*
D13*
X151750000Y-92350000D03*
D15*
X143250000Y-90250000D03*
X148250000Y-92350000D03*
D11*
X164360000Y-85040000D03*
D12*
X164860000Y-90190000D03*
D13*
X166360000Y-79040000D03*
D14*
X169860000Y-85040000D03*
D11*
X175360000Y-85040000D03*
D13*
X178360000Y-81240000D03*
D15*
X169860000Y-79140000D03*
X174860000Y-81240000D03*
D11*
X193210000Y-85040000D03*
D12*
X193710000Y-90190000D03*
D13*
X195210000Y-79040000D03*
D14*
X198710000Y-85040000D03*
D11*
X204210000Y-85040000D03*
D13*
X207210000Y-81240000D03*
D15*
X198710000Y-79140000D03*
X203710000Y-81240000D03*
D11*
X222420000Y-85040000D03*
D12*
X222920000Y-90190000D03*
D13*
X224420000Y-79040000D03*
D14*
X227920000Y-85040000D03*
D11*
X233420000Y-85040000D03*
D13*
X236420000Y-81240000D03*
D15*
X227920000Y-79140000D03*
X232920000Y-81240000D03*
D16*
X47000000Y-37000000D03*
X47000000Y-143000000D03*
X243000000Y-143000000D03*
X243000000Y-37000000D03*
D11*
X48885121Y-91983150D03*
D12*
X49385121Y-97133150D03*
D13*
X50885121Y-85983150D03*
D14*
X54385121Y-91983150D03*
D11*
X59885121Y-91983150D03*
D13*
X62885121Y-88183150D03*
D15*
X54385121Y-86083150D03*
X59385121Y-88183150D03*
D16*
X150000000Y-37000000D03*
D17*
X88500000Y-43000000D03*
X88500000Y-36500000D03*
X93000000Y-43000000D03*
X93000000Y-36500000D03*
X65500000Y-43000000D03*
X65500000Y-36500000D03*
X70000000Y-43000000D03*
X70000000Y-36500000D03*
X98500000Y-43000000D03*
X98500000Y-36500000D03*
X103000000Y-43000000D03*
X103000000Y-36500000D03*
X55500000Y-43000000D03*
X55500000Y-36500000D03*
X60000000Y-43000000D03*
X60000000Y-36500000D03*
X75500000Y-43000000D03*
X75500000Y-36500000D03*
X80000000Y-43000000D03*
X80000000Y-36500000D03*
X108500000Y-43000000D03*
X108500000Y-36500000D03*
X113000000Y-43000000D03*
X113000000Y-36500000D03*
D16*
X133500000Y-78000000D03*
X150000000Y-143000000D03*
D11*
X83311691Y-66698889D03*
D12*
X83811691Y-71848889D03*
D13*
X85311691Y-60698889D03*
D14*
X88811691Y-66698889D03*
D11*
X94311691Y-66698889D03*
D13*
X97311691Y-62898889D03*
D15*
X88811691Y-60798889D03*
X93811691Y-62898889D03*
M02*
