M48
; DRILL file {KiCad 7.0.1} date Sat Aug  5 20:20:51 2023
; FORMAT={-:-/ absolute / inch / decimal}
; #@! TF.CreationDate,2023-08-05T20:20:51+03:00
; #@! TF.GenerationSoftware,Kicad,Pcbnew,7.0.1
; #@! TF.FileFunction,Plated,1,2,PTH
FMAT,2
INCH
; #@! TA.AperFunction,Plated,PTH,ViaDrill
T1C0.0157
; #@! TA.AperFunction,Plated,PTH,ComponentDrill
T2C0.0433
; #@! TA.AperFunction,Plated,PTH,ComponentDrill
T3C0.0500
%
G90
G05
T1
X4.622Y-1.3543
X5.6Y-1.3
T2
X2.185Y-1.437
X2.185Y-1.6929
X2.3622Y-1.437
X2.3622Y-1.6929
X2.5787Y-1.437
X2.5787Y-1.6929
X2.7559Y-1.437
X2.7559Y-1.6929
X2.9724Y-1.437
X2.9724Y-1.6929
X3.1496Y-1.437
X3.1496Y-1.6929
X3.4843Y-1.437
X3.4843Y-1.6929
X3.6614Y-1.437
X3.6614Y-1.6929
X3.878Y-1.437
X3.878Y-1.6929
X4.0551Y-1.437
X4.0551Y-1.6929
X4.2717Y-1.437
X4.2717Y-1.6929
X4.4488Y-1.437
X4.4488Y-1.6929
T3
X1.905Y-3.328
X2.0617Y-3.473
X2.9121Y-3.6946
X3.0688Y-3.8397
X3.2604Y-2.6992
X3.4171Y-2.8442
X3.9194Y-4.0612
X4.0761Y-4.2062
X4.9772Y-5.2528
X5.174Y-5.3354
X5.4429Y-3.935
X5.6398Y-4.0177
X5.6638Y-2.713
X5.8606Y-2.7957
X6.4906Y-3.4976
X6.6874Y-3.5803
X6.7094Y-2.2591
X6.9063Y-2.3417
X7.6264Y-3.4976
X7.8232Y-3.5803
X7.85Y-2.2543
X8.0469Y-2.337
X8.7764Y-3.4976
X8.9732Y-3.5803
X8.9906Y-2.2638
X9.1874Y-2.3465
T0
M30
