%TF.GenerationSoftware,KiCad,Pcbnew,7.0.1*%
%TF.CreationDate,2023-08-05T20:20:55+03:00*%
%TF.ProjectId,Flatbox-Dual,466c6174-626f-4782-9d44-75616c2e6b69,rev?*%
%TF.SameCoordinates,Original*%
%TF.FileFunction,Copper,L1,Top*%
%TF.FilePolarity,Positive*%
%FSLAX46Y46*%
G04 Gerber Fmt 4.6, Leading zero omitted, Abs format (unit mm)*
G04 Created by KiCad (PCBNEW 7.0.1) date 2023-08-05 20:20:55*
%MOMM*%
%LPD*%
G01*
G04 APERTURE LIST*
G04 Aperture macros list*
%AMRoundRect*
0 Rectangle with rounded corners*
0 $1 Rounding radius*
0 $2 $3 $4 $5 $6 $7 $8 $9 X,Y pos of 4 corners*
0 Add a 4 corners polygon primitive as box body*
4,1,4,$2,$3,$4,$5,$6,$7,$8,$9,$2,$3,0*
0 Add four circle primitives for the rounded corners*
1,1,$1+$1,$2,$3*
1,1,$1+$1,$4,$5*
1,1,$1+$1,$6,$7*
1,1,$1+$1,$8,$9*
0 Add four rect primitives between the rounded corners*
20,1,$1+$1,$2,$3,$4,$5,0*
20,1,$1+$1,$4,$5,$6,$7,0*
20,1,$1+$1,$6,$7,$8,$9,0*
20,1,$1+$1,$8,$9,$2,$3,0*%
G04 Aperture macros list end*
%TA.AperFunction,ComponentPad*%
%ADD10C,2.032000*%
%TD*%
%TA.AperFunction,ComponentPad*%
%ADD11C,2.000000*%
%TD*%
%TA.AperFunction,SMDPad,CuDef*%
%ADD12RoundRect,0.381000X1.119000X0.381000X-1.119000X0.381000X-1.119000X-0.381000X1.119000X-0.381000X0*%
%TD*%
%TA.AperFunction,SMDPad,CuDef*%
%ADD13RoundRect,0.381000X-0.381000X1.119000X-0.381000X-1.119000X0.381000X-1.119000X0.381000X1.119000X0*%
%TD*%
%TA.AperFunction,SMDPad,CuDef*%
%ADD14RoundRect,0.381000X0.381000X-1.119000X0.381000X1.119000X-0.381000X1.119000X-0.381000X-1.119000X0*%
%TD*%
%TA.AperFunction,ViaPad*%
%ADD15C,0.800000*%
%TD*%
%TA.AperFunction,Conductor*%
%ADD16C,0.381000*%
%TD*%
%TA.AperFunction,Conductor*%
%ADD17C,0.254000*%
%TD*%
G04 APERTURE END LIST*
D10*
X77947431Y-97527336D03*
X73967210Y-93843881D03*
X103533569Y-106837256D03*
X99553348Y-103153801D03*
X131420000Y-135520000D03*
X126420000Y-133420000D03*
X148860000Y-71010000D03*
X143860000Y-68910000D03*
X175420000Y-59480000D03*
X170420000Y-57380000D03*
X204390000Y-59360000D03*
X199390000Y-57260000D03*
X233360000Y-59600000D03*
X228360000Y-57500000D03*
X143250000Y-102050000D03*
X138250000Y-99950000D03*
X169860000Y-90940000D03*
X164860000Y-88840000D03*
X198710000Y-90940000D03*
X193710000Y-88840000D03*
X227920000Y-90940000D03*
X222920000Y-88840000D03*
X52367202Y-88215032D03*
X48386981Y-84531577D03*
D11*
X88500000Y-43000000D03*
X88500000Y-36500000D03*
X93000000Y-43000000D03*
X93000000Y-36500000D03*
X65500000Y-43000000D03*
X65500000Y-36500000D03*
X70000000Y-43000000D03*
X70000000Y-36500000D03*
X98500000Y-43000000D03*
X98500000Y-36500000D03*
X103000000Y-43000000D03*
X103000000Y-36500000D03*
X55500000Y-43000000D03*
X55500000Y-36500000D03*
X60000000Y-43000000D03*
X60000000Y-36500000D03*
X75500000Y-43000000D03*
X75500000Y-36500000D03*
X80000000Y-43000000D03*
X80000000Y-36500000D03*
X108500000Y-43000000D03*
X108500000Y-36500000D03*
X113000000Y-43000000D03*
X113000000Y-36500000D03*
D12*
X138160000Y-31840000D03*
X138160000Y-34380000D03*
X138160000Y-36920000D03*
X138160000Y-39460000D03*
X138160000Y-42000000D03*
X138160000Y-44540000D03*
X138160000Y-47080000D03*
X138160000Y-49620000D03*
X138160000Y-52160000D03*
D13*
X134080000Y-53700000D03*
X131540000Y-53700000D03*
X129000000Y-53700000D03*
X126460000Y-53700000D03*
D14*
X123920000Y-53700000D03*
D12*
X119840000Y-52160000D03*
X119840000Y-49620000D03*
X119840000Y-47080000D03*
X119840000Y-44540000D03*
X119840000Y-42000000D03*
X119840000Y-39460000D03*
X119840000Y-36920000D03*
X119840000Y-31840000D03*
X119840000Y-34380000D03*
D10*
X86793772Y-72243075D03*
X82813551Y-68559620D03*
D15*
X117400000Y-34400000D03*
X142240000Y-33020000D03*
D16*
X117420000Y-34380000D02*
X117400000Y-34400000D01*
X119840000Y-34380000D02*
X117420000Y-34380000D01*
D17*
X123920000Y-53700000D02*
X123920000Y-54580000D01*
X108700000Y-51600000D02*
X77150000Y-51600000D01*
X55880000Y-93980000D02*
X52367202Y-90467202D01*
X66040000Y-62710000D02*
X66040000Y-91440000D01*
X66040000Y-91440000D02*
X63500000Y-93980000D01*
X77150000Y-51600000D02*
X66040000Y-62710000D01*
X52367202Y-90467202D02*
X52367202Y-88215032D01*
X122400000Y-56100000D02*
X113200000Y-56100000D01*
X113200000Y-56100000D02*
X108700000Y-51600000D01*
X123920000Y-54580000D02*
X122400000Y-56100000D01*
X63500000Y-93980000D02*
X55880000Y-93980000D01*
X73874767Y-101600000D02*
X77947431Y-97527336D01*
X68580000Y-99060000D02*
X71120000Y-101600000D01*
X126460000Y-54540000D02*
X123300000Y-57700000D01*
X71120000Y-101600000D02*
X73874767Y-101600000D01*
X78740000Y-53340000D02*
X68580000Y-63500000D01*
X126460000Y-53700000D02*
X126460000Y-54540000D01*
X68580000Y-63500000D02*
X68580000Y-99060000D01*
X112950000Y-57700000D02*
X108590000Y-53340000D01*
X123300000Y-57700000D02*
X112950000Y-57700000D01*
X108590000Y-53340000D02*
X78740000Y-53340000D01*
X129000000Y-53700000D02*
X129000000Y-54500000D01*
X124460000Y-59040000D02*
X124460000Y-101600000D01*
X108456313Y-111760000D02*
X103533569Y-106837256D01*
X114300000Y-111760000D02*
X108456313Y-111760000D01*
X124460000Y-101600000D02*
X114300000Y-111760000D01*
X129000000Y-54500000D02*
X124460000Y-59040000D01*
X131540000Y-53700000D02*
X131540000Y-54360000D01*
X131540000Y-54360000D02*
X126145990Y-59754010D01*
X114200000Y-140500000D02*
X117450000Y-143750000D01*
X126145990Y-102804010D02*
X114200000Y-114750000D01*
X117450000Y-143750000D02*
X123190000Y-143750000D01*
X114200000Y-114750000D02*
X114200000Y-140500000D01*
X123190000Y-143750000D02*
X131420000Y-135520000D01*
X126145990Y-59754010D02*
X126145990Y-102804010D01*
X138160000Y-36920000D02*
X138920000Y-36920000D01*
X153375000Y-46600000D02*
X161575000Y-38400000D01*
X138920000Y-36920000D02*
X148600000Y-46600000D01*
X227810000Y-65150000D02*
X233360000Y-59600000D01*
X223400000Y-65150000D02*
X227810000Y-65150000D01*
X148600000Y-46600000D02*
X153375000Y-46600000D01*
X161575000Y-38400000D02*
X210450000Y-38400000D01*
X210450000Y-38400000D02*
X219800000Y-47750000D01*
X219800000Y-47750000D02*
X219800000Y-61550000D01*
X219800000Y-61550000D02*
X223400000Y-65150000D01*
X139000000Y-42000000D02*
X145200000Y-48200000D01*
X190900000Y-62850000D02*
X193900000Y-65850000D01*
X145200000Y-48200000D02*
X154200000Y-48200000D01*
X204390000Y-59810000D02*
X204390000Y-59360000D01*
X198350000Y-65850000D02*
X204390000Y-59810000D01*
X154200000Y-48200000D02*
X162400000Y-40000000D01*
X193900000Y-65850000D02*
X198350000Y-65850000D01*
X184250000Y-40000000D02*
X190900000Y-46650000D01*
X162400000Y-40000000D02*
X184250000Y-40000000D01*
X190900000Y-46650000D02*
X190900000Y-62850000D01*
X138160000Y-47080000D02*
X139080000Y-47080000D01*
X157000000Y-51600000D02*
X162650000Y-57250000D01*
X143600000Y-51600000D02*
X157000000Y-51600000D01*
X162650000Y-57250000D02*
X162650000Y-61750000D01*
X169850000Y-65050000D02*
X175420000Y-59480000D01*
X165950000Y-65050000D02*
X169850000Y-65050000D01*
X162650000Y-61750000D02*
X165950000Y-65050000D01*
X139080000Y-47080000D02*
X143600000Y-51600000D01*
X135100000Y-69600000D02*
X141850000Y-76350000D01*
X138160000Y-52160000D02*
X138960000Y-52160000D01*
X135100000Y-59900000D02*
X135100000Y-69600000D01*
X143520000Y-76350000D02*
X148860000Y-71010000D01*
X141850000Y-76350000D02*
X143520000Y-76350000D01*
X139900000Y-53100000D02*
X139900000Y-55100000D01*
X138960000Y-52160000D02*
X139900000Y-53100000D01*
X139900000Y-55100000D02*
X135100000Y-59900000D01*
X142100000Y-52500000D02*
X156525000Y-52500000D01*
X161750000Y-72950000D02*
X156650000Y-78050000D01*
X138160000Y-49620000D02*
X139220000Y-49620000D01*
X156650000Y-92950000D02*
X160400000Y-96700000D01*
X160400000Y-96700000D02*
X164100000Y-96700000D01*
X161750000Y-57725000D02*
X161750000Y-72950000D01*
X139220000Y-49620000D02*
X142100000Y-52500000D01*
X156650000Y-78050000D02*
X156650000Y-92950000D01*
X156525000Y-52500000D02*
X161750000Y-57725000D01*
X164100000Y-96700000D02*
X169860000Y-90940000D01*
X134080000Y-53700000D02*
X134080000Y-54420000D01*
X137250000Y-108050000D02*
X143250000Y-102050000D01*
X126950000Y-61550000D02*
X126950000Y-102800000D01*
X132200000Y-108050000D02*
X137250000Y-108050000D01*
X134080000Y-54420000D02*
X126950000Y-61550000D01*
X126950000Y-102800000D02*
X132200000Y-108050000D01*
X188700000Y-75350000D02*
X184250000Y-79800000D01*
X182350000Y-40800000D02*
X188700000Y-47150000D01*
X192600000Y-97050000D02*
X198710000Y-90940000D01*
X138160000Y-44540000D02*
X139040000Y-44540000D01*
X154600000Y-49000000D02*
X162800000Y-40800000D01*
X188700000Y-47150000D02*
X188700000Y-75350000D01*
X139040000Y-44540000D02*
X143500000Y-49000000D01*
X184250000Y-92700000D02*
X188600000Y-97050000D01*
X162800000Y-40800000D02*
X182350000Y-40800000D01*
X188600000Y-97050000D02*
X192600000Y-97050000D01*
X184250000Y-79800000D02*
X184250000Y-92700000D01*
X143500000Y-49000000D02*
X154600000Y-49000000D01*
X208600000Y-39200000D02*
X218000000Y-48600000D01*
X214000000Y-79250000D02*
X214000000Y-93750000D01*
X162000000Y-39200000D02*
X208600000Y-39200000D01*
X218000000Y-75250000D02*
X214000000Y-79250000D01*
X217250000Y-97000000D02*
X221860000Y-97000000D01*
X138160000Y-39460000D02*
X139060000Y-39460000D01*
X214000000Y-93750000D02*
X217250000Y-97000000D01*
X221860000Y-97000000D02*
X227920000Y-90940000D01*
X139060000Y-39460000D02*
X147000000Y-47400000D01*
X218000000Y-48600000D02*
X218000000Y-75250000D01*
X147000000Y-47400000D02*
X153800000Y-47400000D01*
X153800000Y-47400000D02*
X162000000Y-39200000D01*
X119840000Y-52160000D02*
X119060000Y-52160000D01*
X115700000Y-48800000D02*
X61300000Y-48800000D01*
X61300000Y-48800000D02*
X55500000Y-43000000D01*
X119060000Y-52160000D02*
X115700000Y-48800000D01*
X70500000Y-48000000D02*
X65500000Y-43000000D01*
X118720000Y-49620000D02*
X117100000Y-48000000D01*
X119840000Y-49620000D02*
X118720000Y-49620000D01*
X117100000Y-48000000D02*
X70500000Y-48000000D01*
X119840000Y-47080000D02*
X119720000Y-47200000D01*
X79700000Y-47200000D02*
X75500000Y-43000000D01*
X119720000Y-47200000D02*
X79700000Y-47200000D01*
X91900000Y-46400000D02*
X88500000Y-43000000D01*
X117050000Y-46400000D02*
X91900000Y-46400000D01*
X118910000Y-44540000D02*
X117050000Y-46400000D01*
X119840000Y-44540000D02*
X118910000Y-44540000D01*
X119840000Y-42000000D02*
X119100000Y-42000000D01*
X101100000Y-45600000D02*
X98500000Y-43000000D01*
X119100000Y-42000000D02*
X115500000Y-45600000D01*
X115500000Y-45600000D02*
X101100000Y-45600000D01*
X119160000Y-39460000D02*
X119840000Y-39460000D01*
X110700000Y-34300000D02*
X114000000Y-34300000D01*
X114000000Y-34300000D02*
X119160000Y-39460000D01*
X108500000Y-36500000D02*
X110700000Y-34300000D01*
X140880000Y-34380000D02*
X138160000Y-34380000D01*
X142240000Y-33020000D02*
X140880000Y-34380000D01*
M02*
