M48
; DRILL file {KiCad 7.0.1} date Sat Aug  5 20:20:51 2023
; FORMAT={-:-/ absolute / inch / decimal}
; #@! TF.CreationDate,2023-08-05T20:20:51+03:00
; #@! TF.GenerationSoftware,Kicad,Pcbnew,7.0.1
; #@! TF.FileFunction,NonPlated,1,2,NPTH
FMAT,2
INCH
; #@! TA.AperFunction,NonPlated,NPTH,ComponentDrill
T1C0.0670
; #@! TA.AperFunction,NonPlated,NPTH,ComponentDrill
T2C0.1181
; #@! TA.AperFunction,NonPlated,NPTH,ComponentDrill
T3C0.1350
; #@! TA.AperFunction,NonPlated,NPTH,ComponentDrill
T4C0.2520
%
G90
G05
T1
X1.9377Y-3.1807
X2.3446Y-3.3288
X2.9448Y-3.5473
X3.293Y-2.5519
X3.3517Y-3.6954
X3.7Y-2.7
X3.9521Y-3.9139
X4.359Y-4.062
X4.9575Y-5.1031
X5.3906Y-5.1031
X5.4232Y-3.7854
X5.6441Y-2.5634
X5.8563Y-3.7854
X6.0772Y-2.5634
X6.4709Y-3.348
X6.6898Y-2.1094
X6.9039Y-3.348
X7.1228Y-2.1094
X7.6067Y-3.348
X7.8303Y-2.1047
X8.0398Y-3.348
X8.2634Y-2.1047
X8.7567Y-3.348
X8.9709Y-2.1142
X9.1898Y-3.348
X9.4039Y-2.1142
T2
X2.2213Y-3.0346
X2.3766Y-3.1834
X3.2284Y-3.4013
X3.3837Y-3.55
X3.5766Y-2.4058
X3.732Y-2.5545
X4.2357Y-3.7678
X4.391Y-3.9165
X5.174Y-4.8689
X5.3709Y-4.9555
X5.6398Y-3.5512
X5.8366Y-3.6378
X5.8606Y-2.3291
X6.0575Y-2.4157
X6.6874Y-3.1138
X6.8843Y-3.2004
X6.9063Y-1.8752
X7.1031Y-1.9618
X7.8232Y-3.1138
X8.0201Y-3.2004
X8.0469Y-1.8705
X8.2437Y-1.9571
X8.9732Y-3.1138
X9.1701Y-3.2004
X9.1874Y-1.8799
X9.3843Y-1.9665
T3
X2.1411Y-3.2548
X3.1482Y-3.6214
X3.4965Y-2.6259
X4.1556Y-3.9879
X5.174Y-5.1031
X5.6398Y-3.7854
X5.8606Y-2.5634
X6.6874Y-3.348
X6.9063Y-2.1094
X7.8232Y-3.348
X8.0469Y-2.1047
X8.9732Y-3.348
X9.1874Y-2.1142
T4
X1.8504Y-1.4567
X1.8504Y-5.6299
X5.2559Y-3.0709
X5.9055Y-1.4567
X5.9055Y-5.6299
X9.5669Y-1.4567
X9.5669Y-5.6299
T0
M30
