M48
; DRILL file {KiCad 7.0.1} date Tue Aug 22 10:43:51 2023
; FORMAT={-:-/ absolute / inch / decimal}
; #@! TF.CreationDate,2023-08-22T10:43:51+03:00
; #@! TF.GenerationSoftware,Kicad,Pcbnew,7.0.1
; #@! TF.FileFunction,NonPlated,1,2,NPTH
FMAT,2
INCH
; #@! TA.AperFunction,NonPlated,NPTH,ComponentDrill
T1C0.0748
; #@! TA.AperFunction,NonPlated,NPTH,ComponentDrill
T2C0.1988
; #@! TA.AperFunction,NonPlated,NPTH,ComponentDrill
T3C0.2520
%
G90
G05
T1
X1.9246Y-3.6214
X2.3577Y-3.6214
X2.9317Y-3.6214
X3.28Y-2.6259
X3.3648Y-3.6214
X3.7131Y-2.6259
X3.939Y-3.9879
X4.3721Y-3.9879
X4.9575Y-5.1031
X5.3906Y-5.1031
X5.4232Y-3.7854
X5.6441Y-2.5634
X5.8563Y-3.7854
X6.0772Y-2.5634
X6.4709Y-3.348
X6.6898Y-2.1094
X6.9039Y-3.348
X7.1228Y-2.1094
X7.6067Y-3.348
X7.8303Y-2.1047
X8.0398Y-3.348
X8.2634Y-2.1047
X8.7567Y-3.348
X8.9709Y-2.1142
X9.1898Y-3.348
X9.4039Y-2.1142
T2
X2.1411Y-3.6214
X3.1482Y-3.6214
X3.4965Y-2.6259
X4.1556Y-3.9879
X5.174Y-5.1031
X5.6398Y-3.7854
X5.8606Y-2.5634
X6.6874Y-3.348
X6.9063Y-2.1094
X7.8232Y-3.348
X8.0469Y-2.1047
X8.9732Y-3.348
X9.1874Y-2.1142
T3
X1.8504Y-1.4567
X1.8504Y-5.6299
X5.2559Y-3.0709
X5.9055Y-1.4567
X5.9055Y-5.6299
X9.5669Y-1.4567
X9.5669Y-5.6299
T0
M30
