%TF.GenerationSoftware,KiCad,Pcbnew,7.0.1*%
%TF.CreationDate,2023-08-22T10:43:52+03:00*%
%TF.ProjectId,Flatbox-Dual,466c6174-626f-4782-9d44-75616c2e6b69,rev?*%
%TF.SameCoordinates,Original*%
%TF.FileFunction,Soldermask,Bot*%
%TF.FilePolarity,Negative*%
%FSLAX46Y46*%
G04 Gerber Fmt 4.6, Leading zero omitted, Abs format (unit mm)*
G04 Created by KiCad (PCBNEW 7.0.1) date 2023-08-22 10:43:52*
%MOMM*%
%LPD*%
G01*
G04 APERTURE LIST*
G04 Aperture macros list*
%AMRoundRect*
0 Rectangle with rounded corners*
0 $1 Rounding radius*
0 $2 $3 $4 $5 $6 $7 $8 $9 X,Y pos of 4 corners*
0 Add a 4 corners polygon primitive as box body*
4,1,4,$2,$3,$4,$5,$6,$7,$8,$9,$2,$3,0*
0 Add four circle primitives for the rounded corners*
1,1,$1+$1,$2,$3*
1,1,$1+$1,$4,$5*
1,1,$1+$1,$6,$7*
1,1,$1+$1,$8,$9*
0 Add four rect primitives between the rounded corners*
20,1,$1+$1,$2,$3,$4,$5,0*
20,1,$1+$1,$4,$5,$6,$7,0*
20,1,$1+$1,$6,$7,$8,$9,0*
20,1,$1+$1,$8,$9,$2,$3,0*%
G04 Aperture macros list end*
%ADD10C,1.900000*%
%ADD11C,2.600000*%
%ADD12RoundRect,0.250000X-1.025000X-1.000000X1.025000X-1.000000X1.025000X1.000000X-1.025000X1.000000X0*%
%ADD13C,5.050000*%
%ADD14C,3.600000*%
%ADD15C,6.400000*%
%ADD16C,2.000000*%
G04 APERTURE END LIST*
D10*
X74465350Y-91983150D03*
D11*
X74965350Y-97133150D03*
D12*
X76465350Y-85983150D03*
D13*
X79965350Y-91983150D03*
D10*
X85465350Y-91983150D03*
D12*
X88465350Y-88183150D03*
D14*
X79965350Y-86083150D03*
X84965350Y-88183150D03*
D10*
X100051488Y-101293070D03*
D11*
X100551488Y-106443070D03*
D12*
X102051488Y-95293070D03*
D13*
X105551488Y-101293070D03*
D10*
X111051488Y-101293070D03*
D12*
X114051488Y-97493070D03*
D14*
X105551488Y-95393070D03*
X110551488Y-97493070D03*
D10*
X125920000Y-129620000D03*
D11*
X126420000Y-134770000D03*
D12*
X127920000Y-123620000D03*
D13*
X131420000Y-129620000D03*
D10*
X136920000Y-129620000D03*
D12*
X139920000Y-125820000D03*
D14*
X131420000Y-123720000D03*
X136420000Y-125820000D03*
D10*
X143360000Y-65110000D03*
D11*
X143860000Y-70260000D03*
D12*
X145360000Y-59110000D03*
D13*
X148860000Y-65110000D03*
D10*
X154360000Y-65110000D03*
D12*
X157360000Y-61310000D03*
D14*
X148860000Y-59210000D03*
X153860000Y-61310000D03*
D10*
X169920000Y-53580000D03*
D11*
X170420000Y-58730000D03*
D12*
X171920000Y-47580000D03*
D13*
X175420000Y-53580000D03*
D10*
X180920000Y-53580000D03*
D12*
X183920000Y-49780000D03*
D14*
X175420000Y-47680000D03*
X180420000Y-49780000D03*
D10*
X198890000Y-53460000D03*
D11*
X199390000Y-58610000D03*
D12*
X200890000Y-47460000D03*
D13*
X204390000Y-53460000D03*
D10*
X209890000Y-53460000D03*
D12*
X212890000Y-49660000D03*
D14*
X204390000Y-47560000D03*
X209390000Y-49660000D03*
D10*
X227860000Y-53700000D03*
D11*
X228360000Y-58850000D03*
D12*
X229860000Y-47700000D03*
D13*
X233360000Y-53700000D03*
D10*
X238860000Y-53700000D03*
D12*
X241860000Y-49900000D03*
D14*
X233360000Y-47800000D03*
X238360000Y-49900000D03*
D10*
X137750000Y-96150000D03*
D11*
X138250000Y-101300000D03*
D12*
X139750000Y-90150000D03*
D13*
X143250000Y-96150000D03*
D10*
X148750000Y-96150000D03*
D12*
X151750000Y-92350000D03*
D14*
X143250000Y-90250000D03*
X148250000Y-92350000D03*
D10*
X164360000Y-85040000D03*
D11*
X164860000Y-90190000D03*
D12*
X166360000Y-79040000D03*
D13*
X169860000Y-85040000D03*
D10*
X175360000Y-85040000D03*
D12*
X178360000Y-81240000D03*
D14*
X169860000Y-79140000D03*
X174860000Y-81240000D03*
D10*
X193210000Y-85040000D03*
D11*
X193710000Y-90190000D03*
D12*
X195210000Y-79040000D03*
D13*
X198710000Y-85040000D03*
D10*
X204210000Y-85040000D03*
D12*
X207210000Y-81240000D03*
D14*
X198710000Y-79140000D03*
X203710000Y-81240000D03*
D10*
X222420000Y-85040000D03*
D11*
X222920000Y-90190000D03*
D12*
X224420000Y-79040000D03*
D13*
X227920000Y-85040000D03*
D10*
X233420000Y-85040000D03*
D12*
X236420000Y-81240000D03*
D14*
X227920000Y-79140000D03*
X232920000Y-81240000D03*
D15*
X47000000Y-37000000D03*
X47000000Y-143000000D03*
X243000000Y-143000000D03*
X243000000Y-37000000D03*
D10*
X48885121Y-91983150D03*
D11*
X49385121Y-97133150D03*
D12*
X50885121Y-85983150D03*
D13*
X54385121Y-91983150D03*
D10*
X59885121Y-91983150D03*
D12*
X62885121Y-88183150D03*
D14*
X54385121Y-86083150D03*
X59385121Y-88183150D03*
D15*
X150000000Y-37000000D03*
D16*
X88500000Y-43000000D03*
X88500000Y-36500000D03*
X93000000Y-43000000D03*
X93000000Y-36500000D03*
X65500000Y-43000000D03*
X65500000Y-36500000D03*
X70000000Y-43000000D03*
X70000000Y-36500000D03*
X98500000Y-43000000D03*
X98500000Y-36500000D03*
X103000000Y-43000000D03*
X103000000Y-36500000D03*
X55500000Y-43000000D03*
X55500000Y-36500000D03*
X60000000Y-43000000D03*
X60000000Y-36500000D03*
X75500000Y-43000000D03*
X75500000Y-36500000D03*
X80000000Y-43000000D03*
X80000000Y-36500000D03*
X108500000Y-43000000D03*
X108500000Y-36500000D03*
X113000000Y-43000000D03*
X113000000Y-36500000D03*
D15*
X133500000Y-78000000D03*
X150000000Y-143000000D03*
D10*
X83311691Y-66698889D03*
D11*
X83811691Y-71848889D03*
D12*
X85311691Y-60698889D03*
D13*
X88811691Y-66698889D03*
D10*
X94311691Y-66698889D03*
D12*
X97311691Y-62898889D03*
D14*
X88811691Y-60798889D03*
X93811691Y-62898889D03*
M02*
