%TF.GenerationSoftware,KiCad,Pcbnew,7.0.1*%
%TF.CreationDate,2023-09-07T11:56:12+03:00*%
%TF.ProjectId,Flatbox-Dual,466c6174-626f-4782-9d44-75616c2e6b69,rev?*%
%TF.SameCoordinates,Original*%
%TF.FileFunction,Drillmap*%
%TF.FilePolarity,Positive*%
%FSLAX45Y45*%
G04 Gerber Fmt 4.5, Leading zero omitted, Abs format (unit mm)*
G04 Created by KiCad (PCBNEW 7.0.1) date 2023-09-07 11:56:12*
%MOMM*%
%LPD*%
G01*
G04 APERTURE LIST*
%ADD10C,0.050000*%
%ADD11C,0.200000*%
%ADD12C,0.190000*%
%ADD13C,0.505000*%
%ADD14C,0.640000*%
G04 APERTURE END LIST*
D10*
X25000000Y-3500000D02*
X25000000Y-14500000D01*
X24500000Y-15000000D02*
X4500000Y-15000000D01*
X4000000Y-14500000D02*
X4000000Y-3500000D01*
X4500000Y-3000000D02*
X12200000Y-3000000D01*
X13600000Y-3000000D02*
X24500000Y-3000000D01*
X12200000Y-3000000D02*
X12200000Y-5150000D01*
X4500000Y-3000000D02*
G75*
G03*
X4000000Y-3500000I0J-500000D01*
G01*
X13600000Y-5150000D02*
X13600000Y-3000000D01*
X4000000Y-14500000D02*
G75*
G03*
X4500000Y-15000000I500000J0D01*
G01*
X24500000Y-15000000D02*
G75*
G03*
X25000000Y-14500000I0J500000D01*
G01*
X25000000Y-3500000D02*
G75*
G03*
X24500000Y-3000000I-500000J0D01*
G01*
X12200000Y-5150000D02*
X13600000Y-5150000D01*
D11*
D12*
X4793512Y-9103315D02*
X4983512Y-9293315D01*
X4983512Y-9103315D02*
X4793512Y-9293315D01*
X5893512Y-9103315D02*
X6083512Y-9293315D01*
X6083512Y-9103315D02*
X5893512Y-9293315D01*
X7351535Y-9103315D02*
X7541535Y-9293315D01*
X7541535Y-9103315D02*
X7351535Y-9293315D01*
X8236169Y-6574889D02*
X8426169Y-6764889D01*
X8426169Y-6574889D02*
X8236169Y-6764889D01*
X8451535Y-9103315D02*
X8641535Y-9293315D01*
X8641535Y-9103315D02*
X8451535Y-9293315D01*
X9336169Y-6574889D02*
X9526169Y-6764889D01*
X9526169Y-6574889D02*
X9336169Y-6764889D01*
X9910149Y-10034307D02*
X10100149Y-10224307D01*
X10100149Y-10034307D02*
X9910149Y-10224307D01*
X11010149Y-10034307D02*
X11200149Y-10224307D01*
X11200149Y-10034307D02*
X11010149Y-10224307D01*
X12497000Y-12867000D02*
X12687000Y-13057000D01*
X12687000Y-12867000D02*
X12497000Y-13057000D01*
X13597000Y-12867000D02*
X13787000Y-13057000D01*
X13787000Y-12867000D02*
X13597000Y-13057000D01*
X13680000Y-9520000D02*
X13870000Y-9710000D01*
X13870000Y-9520000D02*
X13680000Y-9710000D01*
X14241000Y-6416000D02*
X14431000Y-6606000D01*
X14431000Y-6416000D02*
X14241000Y-6606000D01*
X14780000Y-9520000D02*
X14970000Y-9710000D01*
X14970000Y-9520000D02*
X14780000Y-9710000D01*
X15341000Y-6416000D02*
X15531000Y-6606000D01*
X15531000Y-6416000D02*
X15341000Y-6606000D01*
X16341000Y-8409000D02*
X16531000Y-8599000D01*
X16531000Y-8409000D02*
X16341000Y-8599000D01*
X16897000Y-5263000D02*
X17087000Y-5453000D01*
X17087000Y-5263000D02*
X16897000Y-5453000D01*
X17441000Y-8409000D02*
X17631000Y-8599000D01*
X17631000Y-8409000D02*
X17441000Y-8599000D01*
X17997000Y-5263000D02*
X18187000Y-5453000D01*
X18187000Y-5263000D02*
X17997000Y-5453000D01*
X19226000Y-8409000D02*
X19416000Y-8599000D01*
X19416000Y-8409000D02*
X19226000Y-8599000D01*
X19794000Y-5251000D02*
X19984000Y-5441000D01*
X19984000Y-5251000D02*
X19794000Y-5441000D01*
X20326000Y-8409000D02*
X20516000Y-8599000D01*
X20516000Y-8409000D02*
X20326000Y-8599000D01*
X20894000Y-5251000D02*
X21084000Y-5441000D01*
X21084000Y-5251000D02*
X20894000Y-5441000D01*
X22147000Y-8409000D02*
X22337000Y-8599000D01*
X22337000Y-8409000D02*
X22147000Y-8599000D01*
X22691000Y-5275000D02*
X22881000Y-5465000D01*
X22881000Y-5275000D02*
X22691000Y-5465000D01*
X23247000Y-8409000D02*
X23437000Y-8599000D01*
X23437000Y-8409000D02*
X23247000Y-8599000D01*
X23791000Y-5275000D02*
X23981000Y-5465000D01*
X23981000Y-5275000D02*
X23791000Y-5465000D01*
D13*
X5691012Y-9198315D02*
G75*
G03*
X5691012Y-9198315I-252500J0D01*
G01*
X8249035Y-9198315D02*
G75*
G03*
X8249035Y-9198315I-252500J0D01*
G01*
X9133669Y-6669889D02*
G75*
G03*
X9133669Y-6669889I-252500J0D01*
G01*
X10807649Y-10129307D02*
G75*
G03*
X10807649Y-10129307I-252500J0D01*
G01*
X13394500Y-12962000D02*
G75*
G03*
X13394500Y-12962000I-252500J0D01*
G01*
X14577500Y-9615000D02*
G75*
G03*
X14577500Y-9615000I-252500J0D01*
G01*
X15138500Y-6511000D02*
G75*
G03*
X15138500Y-6511000I-252500J0D01*
G01*
X17238500Y-8504000D02*
G75*
G03*
X17238500Y-8504000I-252500J0D01*
G01*
X17794500Y-5358000D02*
G75*
G03*
X17794500Y-5358000I-252500J0D01*
G01*
X20123500Y-8504000D02*
G75*
G03*
X20123500Y-8504000I-252500J0D01*
G01*
X20691500Y-5346000D02*
G75*
G03*
X20691500Y-5346000I-252500J0D01*
G01*
X23044500Y-8504000D02*
G75*
G03*
X23044500Y-8504000I-252500J0D01*
G01*
X23588500Y-5370000D02*
G75*
G03*
X23588500Y-5370000I-252500J0D01*
G01*
D14*
X4700000Y-3380000D02*
X4700000Y-4020000D01*
X4380000Y-3700000D02*
X5020000Y-3700000D01*
X4700000Y-13980000D02*
X4700000Y-14620000D01*
X4380000Y-14300000D02*
X5020000Y-14300000D01*
X13350000Y-7480000D02*
X13350000Y-8120000D01*
X13030000Y-7800000D02*
X13670000Y-7800000D01*
X15000000Y-3380000D02*
X15000000Y-4020000D01*
X14680000Y-3700000D02*
X15320000Y-3700000D01*
X15000000Y-13980000D02*
X15000000Y-14620000D01*
X14680000Y-14300000D02*
X15320000Y-14300000D01*
X24300000Y-3380000D02*
X24300000Y-4020000D01*
X23980000Y-3700000D02*
X24620000Y-3700000D01*
X24300000Y-13980000D02*
X24300000Y-14620000D01*
X23980000Y-14300000D02*
X24620000Y-14300000D01*
D11*
X4245119Y-15315024D02*
X4245119Y-15115024D01*
X4245119Y-15115024D02*
X4292738Y-15115024D01*
X4292738Y-15115024D02*
X4321310Y-15124548D01*
X4321310Y-15124548D02*
X4340357Y-15143595D01*
X4340357Y-15143595D02*
X4349881Y-15162643D01*
X4349881Y-15162643D02*
X4359405Y-15200738D01*
X4359405Y-15200738D02*
X4359405Y-15229309D01*
X4359405Y-15229309D02*
X4349881Y-15267405D01*
X4349881Y-15267405D02*
X4340357Y-15286452D01*
X4340357Y-15286452D02*
X4321310Y-15305500D01*
X4321310Y-15305500D02*
X4292738Y-15315024D01*
X4292738Y-15315024D02*
X4245119Y-15315024D01*
X4445119Y-15315024D02*
X4445119Y-15181690D01*
X4445119Y-15219786D02*
X4454643Y-15200738D01*
X4454643Y-15200738D02*
X4464167Y-15191214D01*
X4464167Y-15191214D02*
X4483214Y-15181690D01*
X4483214Y-15181690D02*
X4502262Y-15181690D01*
X4568929Y-15315024D02*
X4568929Y-15181690D01*
X4568929Y-15115024D02*
X4559405Y-15124548D01*
X4559405Y-15124548D02*
X4568929Y-15134071D01*
X4568929Y-15134071D02*
X4578452Y-15124548D01*
X4578452Y-15124548D02*
X4568929Y-15115024D01*
X4568929Y-15115024D02*
X4568929Y-15134071D01*
X4692738Y-15315024D02*
X4673690Y-15305500D01*
X4673690Y-15305500D02*
X4664167Y-15286452D01*
X4664167Y-15286452D02*
X4664167Y-15115024D01*
X4797500Y-15315024D02*
X4778452Y-15305500D01*
X4778452Y-15305500D02*
X4768929Y-15286452D01*
X4768929Y-15286452D02*
X4768929Y-15115024D01*
X5026071Y-15315024D02*
X5026071Y-15115024D01*
X5026071Y-15115024D02*
X5092738Y-15257881D01*
X5092738Y-15257881D02*
X5159405Y-15115024D01*
X5159405Y-15115024D02*
X5159405Y-15315024D01*
X5340357Y-15315024D02*
X5340357Y-15210262D01*
X5340357Y-15210262D02*
X5330833Y-15191214D01*
X5330833Y-15191214D02*
X5311786Y-15181690D01*
X5311786Y-15181690D02*
X5273690Y-15181690D01*
X5273690Y-15181690D02*
X5254643Y-15191214D01*
X5340357Y-15305500D02*
X5321310Y-15315024D01*
X5321310Y-15315024D02*
X5273690Y-15315024D01*
X5273690Y-15315024D02*
X5254643Y-15305500D01*
X5254643Y-15305500D02*
X5245119Y-15286452D01*
X5245119Y-15286452D02*
X5245119Y-15267405D01*
X5245119Y-15267405D02*
X5254643Y-15248357D01*
X5254643Y-15248357D02*
X5273690Y-15238833D01*
X5273690Y-15238833D02*
X5321310Y-15238833D01*
X5321310Y-15238833D02*
X5340357Y-15229309D01*
X5435595Y-15181690D02*
X5435595Y-15381690D01*
X5435595Y-15191214D02*
X5454643Y-15181690D01*
X5454643Y-15181690D02*
X5492738Y-15181690D01*
X5492738Y-15181690D02*
X5511786Y-15191214D01*
X5511786Y-15191214D02*
X5521310Y-15200738D01*
X5521310Y-15200738D02*
X5530833Y-15219786D01*
X5530833Y-15219786D02*
X5530833Y-15276928D01*
X5530833Y-15276928D02*
X5521310Y-15295976D01*
X5521310Y-15295976D02*
X5511786Y-15305500D01*
X5511786Y-15305500D02*
X5492738Y-15315024D01*
X5492738Y-15315024D02*
X5454643Y-15315024D01*
X5454643Y-15315024D02*
X5435595Y-15305500D01*
X5616548Y-15295976D02*
X5626071Y-15305500D01*
X5626071Y-15305500D02*
X5616548Y-15315024D01*
X5616548Y-15315024D02*
X5607024Y-15305500D01*
X5607024Y-15305500D02*
X5616548Y-15295976D01*
X5616548Y-15295976D02*
X5616548Y-15315024D01*
X5616548Y-15191214D02*
X5626071Y-15200738D01*
X5626071Y-15200738D02*
X5616548Y-15210262D01*
X5616548Y-15210262D02*
X5607024Y-15200738D01*
X5607024Y-15200738D02*
X5616548Y-15191214D01*
X5616548Y-15191214D02*
X5616548Y-15210262D01*
D12*
X3807500Y-15547500D02*
X3997500Y-15737500D01*
X3997500Y-15547500D02*
X3807500Y-15737500D01*
D11*
X4349881Y-15735024D02*
X4235595Y-15735024D01*
X4292738Y-15735024D02*
X4292738Y-15535024D01*
X4292738Y-15535024D02*
X4273690Y-15563595D01*
X4273690Y-15563595D02*
X4254643Y-15582643D01*
X4254643Y-15582643D02*
X4235595Y-15592167D01*
X4435595Y-15715976D02*
X4445119Y-15725500D01*
X4445119Y-15725500D02*
X4435595Y-15735024D01*
X4435595Y-15735024D02*
X4426071Y-15725500D01*
X4426071Y-15725500D02*
X4435595Y-15715976D01*
X4435595Y-15715976D02*
X4435595Y-15735024D01*
X4540357Y-15735024D02*
X4578452Y-15735024D01*
X4578452Y-15735024D02*
X4597500Y-15725500D01*
X4597500Y-15725500D02*
X4607024Y-15715976D01*
X4607024Y-15715976D02*
X4626071Y-15687405D01*
X4626071Y-15687405D02*
X4635595Y-15649309D01*
X4635595Y-15649309D02*
X4635595Y-15573119D01*
X4635595Y-15573119D02*
X4626071Y-15554071D01*
X4626071Y-15554071D02*
X4616548Y-15544548D01*
X4616548Y-15544548D02*
X4597500Y-15535024D01*
X4597500Y-15535024D02*
X4559405Y-15535024D01*
X4559405Y-15535024D02*
X4540357Y-15544548D01*
X4540357Y-15544548D02*
X4530833Y-15554071D01*
X4530833Y-15554071D02*
X4521310Y-15573119D01*
X4521310Y-15573119D02*
X4521310Y-15620738D01*
X4521310Y-15620738D02*
X4530833Y-15639786D01*
X4530833Y-15639786D02*
X4540357Y-15649309D01*
X4540357Y-15649309D02*
X4559405Y-15658833D01*
X4559405Y-15658833D02*
X4597500Y-15658833D01*
X4597500Y-15658833D02*
X4616548Y-15649309D01*
X4616548Y-15649309D02*
X4626071Y-15639786D01*
X4626071Y-15639786D02*
X4635595Y-15620738D01*
X4759405Y-15535024D02*
X4778452Y-15535024D01*
X4778452Y-15535024D02*
X4797500Y-15544548D01*
X4797500Y-15544548D02*
X4807024Y-15554071D01*
X4807024Y-15554071D02*
X4816548Y-15573119D01*
X4816548Y-15573119D02*
X4826071Y-15611214D01*
X4826071Y-15611214D02*
X4826071Y-15658833D01*
X4826071Y-15658833D02*
X4816548Y-15696928D01*
X4816548Y-15696928D02*
X4807024Y-15715976D01*
X4807024Y-15715976D02*
X4797500Y-15725500D01*
X4797500Y-15725500D02*
X4778452Y-15735024D01*
X4778452Y-15735024D02*
X4759405Y-15735024D01*
X4759405Y-15735024D02*
X4740357Y-15725500D01*
X4740357Y-15725500D02*
X4730833Y-15715976D01*
X4730833Y-15715976D02*
X4721310Y-15696928D01*
X4721310Y-15696928D02*
X4711786Y-15658833D01*
X4711786Y-15658833D02*
X4711786Y-15611214D01*
X4711786Y-15611214D02*
X4721310Y-15573119D01*
X4721310Y-15573119D02*
X4730833Y-15554071D01*
X4730833Y-15554071D02*
X4740357Y-15544548D01*
X4740357Y-15544548D02*
X4759405Y-15535024D01*
X4949881Y-15535024D02*
X4968929Y-15535024D01*
X4968929Y-15535024D02*
X4987976Y-15544548D01*
X4987976Y-15544548D02*
X4997500Y-15554071D01*
X4997500Y-15554071D02*
X5007024Y-15573119D01*
X5007024Y-15573119D02*
X5016548Y-15611214D01*
X5016548Y-15611214D02*
X5016548Y-15658833D01*
X5016548Y-15658833D02*
X5007024Y-15696928D01*
X5007024Y-15696928D02*
X4997500Y-15715976D01*
X4997500Y-15715976D02*
X4987976Y-15725500D01*
X4987976Y-15725500D02*
X4968929Y-15735024D01*
X4968929Y-15735024D02*
X4949881Y-15735024D01*
X4949881Y-15735024D02*
X4930833Y-15725500D01*
X4930833Y-15725500D02*
X4921310Y-15715976D01*
X4921310Y-15715976D02*
X4911786Y-15696928D01*
X4911786Y-15696928D02*
X4902262Y-15658833D01*
X4902262Y-15658833D02*
X4902262Y-15611214D01*
X4902262Y-15611214D02*
X4911786Y-15573119D01*
X4911786Y-15573119D02*
X4921310Y-15554071D01*
X4921310Y-15554071D02*
X4930833Y-15544548D01*
X4930833Y-15544548D02*
X4949881Y-15535024D01*
X5102262Y-15735024D02*
X5102262Y-15601690D01*
X5102262Y-15620738D02*
X5111786Y-15611214D01*
X5111786Y-15611214D02*
X5130833Y-15601690D01*
X5130833Y-15601690D02*
X5159405Y-15601690D01*
X5159405Y-15601690D02*
X5178452Y-15611214D01*
X5178452Y-15611214D02*
X5187976Y-15630262D01*
X5187976Y-15630262D02*
X5187976Y-15735024D01*
X5187976Y-15630262D02*
X5197500Y-15611214D01*
X5197500Y-15611214D02*
X5216548Y-15601690D01*
X5216548Y-15601690D02*
X5245119Y-15601690D01*
X5245119Y-15601690D02*
X5264167Y-15611214D01*
X5264167Y-15611214D02*
X5273691Y-15630262D01*
X5273691Y-15630262D02*
X5273691Y-15735024D01*
X5368929Y-15735024D02*
X5368929Y-15601690D01*
X5368929Y-15620738D02*
X5378452Y-15611214D01*
X5378452Y-15611214D02*
X5397500Y-15601690D01*
X5397500Y-15601690D02*
X5426072Y-15601690D01*
X5426072Y-15601690D02*
X5445119Y-15611214D01*
X5445119Y-15611214D02*
X5454643Y-15630262D01*
X5454643Y-15630262D02*
X5454643Y-15735024D01*
X5454643Y-15630262D02*
X5464167Y-15611214D01*
X5464167Y-15611214D02*
X5483214Y-15601690D01*
X5483214Y-15601690D02*
X5511786Y-15601690D01*
X5511786Y-15601690D02*
X5530833Y-15611214D01*
X5530833Y-15611214D02*
X5540357Y-15630262D01*
X5540357Y-15630262D02*
X5540357Y-15735024D01*
X5930833Y-15525500D02*
X5759405Y-15782643D01*
X6187976Y-15535024D02*
X6207024Y-15535024D01*
X6207024Y-15535024D02*
X6226072Y-15544548D01*
X6226072Y-15544548D02*
X6235595Y-15554071D01*
X6235595Y-15554071D02*
X6245119Y-15573119D01*
X6245119Y-15573119D02*
X6254643Y-15611214D01*
X6254643Y-15611214D02*
X6254643Y-15658833D01*
X6254643Y-15658833D02*
X6245119Y-15696928D01*
X6245119Y-15696928D02*
X6235595Y-15715976D01*
X6235595Y-15715976D02*
X6226072Y-15725500D01*
X6226072Y-15725500D02*
X6207024Y-15735024D01*
X6207024Y-15735024D02*
X6187976Y-15735024D01*
X6187976Y-15735024D02*
X6168929Y-15725500D01*
X6168929Y-15725500D02*
X6159405Y-15715976D01*
X6159405Y-15715976D02*
X6149881Y-15696928D01*
X6149881Y-15696928D02*
X6140357Y-15658833D01*
X6140357Y-15658833D02*
X6140357Y-15611214D01*
X6140357Y-15611214D02*
X6149881Y-15573119D01*
X6149881Y-15573119D02*
X6159405Y-15554071D01*
X6159405Y-15554071D02*
X6168929Y-15544548D01*
X6168929Y-15544548D02*
X6187976Y-15535024D01*
X6340357Y-15715976D02*
X6349881Y-15725500D01*
X6349881Y-15725500D02*
X6340357Y-15735024D01*
X6340357Y-15735024D02*
X6330833Y-15725500D01*
X6330833Y-15725500D02*
X6340357Y-15715976D01*
X6340357Y-15715976D02*
X6340357Y-15735024D01*
X6473691Y-15535024D02*
X6492738Y-15535024D01*
X6492738Y-15535024D02*
X6511786Y-15544548D01*
X6511786Y-15544548D02*
X6521310Y-15554071D01*
X6521310Y-15554071D02*
X6530833Y-15573119D01*
X6530833Y-15573119D02*
X6540357Y-15611214D01*
X6540357Y-15611214D02*
X6540357Y-15658833D01*
X6540357Y-15658833D02*
X6530833Y-15696928D01*
X6530833Y-15696928D02*
X6521310Y-15715976D01*
X6521310Y-15715976D02*
X6511786Y-15725500D01*
X6511786Y-15725500D02*
X6492738Y-15735024D01*
X6492738Y-15735024D02*
X6473691Y-15735024D01*
X6473691Y-15735024D02*
X6454643Y-15725500D01*
X6454643Y-15725500D02*
X6445119Y-15715976D01*
X6445119Y-15715976D02*
X6435595Y-15696928D01*
X6435595Y-15696928D02*
X6426072Y-15658833D01*
X6426072Y-15658833D02*
X6426072Y-15611214D01*
X6426072Y-15611214D02*
X6435595Y-15573119D01*
X6435595Y-15573119D02*
X6445119Y-15554071D01*
X6445119Y-15554071D02*
X6454643Y-15544548D01*
X6454643Y-15544548D02*
X6473691Y-15535024D01*
X6607024Y-15535024D02*
X6740357Y-15535024D01*
X6740357Y-15535024D02*
X6654643Y-15735024D01*
X6902262Y-15601690D02*
X6902262Y-15735024D01*
X6854643Y-15525500D02*
X6807024Y-15668357D01*
X6807024Y-15668357D02*
X6930833Y-15668357D01*
X7035595Y-15620738D02*
X7016548Y-15611214D01*
X7016548Y-15611214D02*
X7007024Y-15601690D01*
X7007024Y-15601690D02*
X6997500Y-15582643D01*
X6997500Y-15582643D02*
X6997500Y-15573119D01*
X6997500Y-15573119D02*
X7007024Y-15554071D01*
X7007024Y-15554071D02*
X7016548Y-15544548D01*
X7016548Y-15544548D02*
X7035595Y-15535024D01*
X7035595Y-15535024D02*
X7073691Y-15535024D01*
X7073691Y-15535024D02*
X7092738Y-15544548D01*
X7092738Y-15544548D02*
X7102262Y-15554071D01*
X7102262Y-15554071D02*
X7111786Y-15573119D01*
X7111786Y-15573119D02*
X7111786Y-15582643D01*
X7111786Y-15582643D02*
X7102262Y-15601690D01*
X7102262Y-15601690D02*
X7092738Y-15611214D01*
X7092738Y-15611214D02*
X7073691Y-15620738D01*
X7073691Y-15620738D02*
X7035595Y-15620738D01*
X7035595Y-15620738D02*
X7016548Y-15630262D01*
X7016548Y-15630262D02*
X7007024Y-15639786D01*
X7007024Y-15639786D02*
X6997500Y-15658833D01*
X6997500Y-15658833D02*
X6997500Y-15696928D01*
X6997500Y-15696928D02*
X7007024Y-15715976D01*
X7007024Y-15715976D02*
X7016548Y-15725500D01*
X7016548Y-15725500D02*
X7035595Y-15735024D01*
X7035595Y-15735024D02*
X7073691Y-15735024D01*
X7073691Y-15735024D02*
X7092738Y-15725500D01*
X7092738Y-15725500D02*
X7102262Y-15715976D01*
X7102262Y-15715976D02*
X7111786Y-15696928D01*
X7111786Y-15696928D02*
X7111786Y-15658833D01*
X7111786Y-15658833D02*
X7102262Y-15639786D01*
X7102262Y-15639786D02*
X7092738Y-15630262D01*
X7092738Y-15630262D02*
X7073691Y-15620738D01*
X7187976Y-15535024D02*
X7187976Y-15573119D01*
X7264167Y-15535024D02*
X7264167Y-15573119D01*
X7559405Y-15811214D02*
X7549881Y-15801690D01*
X7549881Y-15801690D02*
X7530834Y-15773119D01*
X7530834Y-15773119D02*
X7521310Y-15754071D01*
X7521310Y-15754071D02*
X7511786Y-15725500D01*
X7511786Y-15725500D02*
X7502262Y-15677881D01*
X7502262Y-15677881D02*
X7502262Y-15639786D01*
X7502262Y-15639786D02*
X7511786Y-15592167D01*
X7511786Y-15592167D02*
X7521310Y-15563595D01*
X7521310Y-15563595D02*
X7530834Y-15544548D01*
X7530834Y-15544548D02*
X7549881Y-15515976D01*
X7549881Y-15515976D02*
X7559405Y-15506452D01*
X7626072Y-15554071D02*
X7635595Y-15544548D01*
X7635595Y-15544548D02*
X7654643Y-15535024D01*
X7654643Y-15535024D02*
X7702262Y-15535024D01*
X7702262Y-15535024D02*
X7721310Y-15544548D01*
X7721310Y-15544548D02*
X7730834Y-15554071D01*
X7730834Y-15554071D02*
X7740357Y-15573119D01*
X7740357Y-15573119D02*
X7740357Y-15592167D01*
X7740357Y-15592167D02*
X7730834Y-15620738D01*
X7730834Y-15620738D02*
X7616548Y-15735024D01*
X7616548Y-15735024D02*
X7740357Y-15735024D01*
X7911786Y-15535024D02*
X7873691Y-15535024D01*
X7873691Y-15535024D02*
X7854643Y-15544548D01*
X7854643Y-15544548D02*
X7845119Y-15554071D01*
X7845119Y-15554071D02*
X7826072Y-15582643D01*
X7826072Y-15582643D02*
X7816548Y-15620738D01*
X7816548Y-15620738D02*
X7816548Y-15696928D01*
X7816548Y-15696928D02*
X7826072Y-15715976D01*
X7826072Y-15715976D02*
X7835595Y-15725500D01*
X7835595Y-15725500D02*
X7854643Y-15735024D01*
X7854643Y-15735024D02*
X7892738Y-15735024D01*
X7892738Y-15735024D02*
X7911786Y-15725500D01*
X7911786Y-15725500D02*
X7921310Y-15715976D01*
X7921310Y-15715976D02*
X7930834Y-15696928D01*
X7930834Y-15696928D02*
X7930834Y-15649309D01*
X7930834Y-15649309D02*
X7921310Y-15630262D01*
X7921310Y-15630262D02*
X7911786Y-15620738D01*
X7911786Y-15620738D02*
X7892738Y-15611214D01*
X7892738Y-15611214D02*
X7854643Y-15611214D01*
X7854643Y-15611214D02*
X7835595Y-15620738D01*
X7835595Y-15620738D02*
X7826072Y-15630262D01*
X7826072Y-15630262D02*
X7816548Y-15649309D01*
X8168929Y-15735024D02*
X8168929Y-15535024D01*
X8254643Y-15735024D02*
X8254643Y-15630262D01*
X8254643Y-15630262D02*
X8245119Y-15611214D01*
X8245119Y-15611214D02*
X8226072Y-15601690D01*
X8226072Y-15601690D02*
X8197500Y-15601690D01*
X8197500Y-15601690D02*
X8178453Y-15611214D01*
X8178453Y-15611214D02*
X8168929Y-15620738D01*
X8378453Y-15735024D02*
X8359405Y-15725500D01*
X8359405Y-15725500D02*
X8349881Y-15715976D01*
X8349881Y-15715976D02*
X8340357Y-15696928D01*
X8340357Y-15696928D02*
X8340357Y-15639786D01*
X8340357Y-15639786D02*
X8349881Y-15620738D01*
X8349881Y-15620738D02*
X8359405Y-15611214D01*
X8359405Y-15611214D02*
X8378453Y-15601690D01*
X8378453Y-15601690D02*
X8407024Y-15601690D01*
X8407024Y-15601690D02*
X8426072Y-15611214D01*
X8426072Y-15611214D02*
X8435596Y-15620738D01*
X8435596Y-15620738D02*
X8445119Y-15639786D01*
X8445119Y-15639786D02*
X8445119Y-15696928D01*
X8445119Y-15696928D02*
X8435596Y-15715976D01*
X8435596Y-15715976D02*
X8426072Y-15725500D01*
X8426072Y-15725500D02*
X8407024Y-15735024D01*
X8407024Y-15735024D02*
X8378453Y-15735024D01*
X8559405Y-15735024D02*
X8540358Y-15725500D01*
X8540358Y-15725500D02*
X8530834Y-15706452D01*
X8530834Y-15706452D02*
X8530834Y-15535024D01*
X8711786Y-15725500D02*
X8692739Y-15735024D01*
X8692739Y-15735024D02*
X8654643Y-15735024D01*
X8654643Y-15735024D02*
X8635596Y-15725500D01*
X8635596Y-15725500D02*
X8626072Y-15706452D01*
X8626072Y-15706452D02*
X8626072Y-15630262D01*
X8626072Y-15630262D02*
X8635596Y-15611214D01*
X8635596Y-15611214D02*
X8654643Y-15601690D01*
X8654643Y-15601690D02*
X8692739Y-15601690D01*
X8692739Y-15601690D02*
X8711786Y-15611214D01*
X8711786Y-15611214D02*
X8721310Y-15630262D01*
X8721310Y-15630262D02*
X8721310Y-15649309D01*
X8721310Y-15649309D02*
X8626072Y-15668357D01*
X8797500Y-15725500D02*
X8816548Y-15735024D01*
X8816548Y-15735024D02*
X8854643Y-15735024D01*
X8854643Y-15735024D02*
X8873691Y-15725500D01*
X8873691Y-15725500D02*
X8883215Y-15706452D01*
X8883215Y-15706452D02*
X8883215Y-15696928D01*
X8883215Y-15696928D02*
X8873691Y-15677881D01*
X8873691Y-15677881D02*
X8854643Y-15668357D01*
X8854643Y-15668357D02*
X8826072Y-15668357D01*
X8826072Y-15668357D02*
X8807024Y-15658833D01*
X8807024Y-15658833D02*
X8797500Y-15639786D01*
X8797500Y-15639786D02*
X8797500Y-15630262D01*
X8797500Y-15630262D02*
X8807024Y-15611214D01*
X8807024Y-15611214D02*
X8826072Y-15601690D01*
X8826072Y-15601690D02*
X8854643Y-15601690D01*
X8854643Y-15601690D02*
X8873691Y-15611214D01*
X8949881Y-15811214D02*
X8959405Y-15801690D01*
X8959405Y-15801690D02*
X8978453Y-15773119D01*
X8978453Y-15773119D02*
X8987977Y-15754071D01*
X8987977Y-15754071D02*
X8997500Y-15725500D01*
X8997500Y-15725500D02*
X9007024Y-15677881D01*
X9007024Y-15677881D02*
X9007024Y-15639786D01*
X9007024Y-15639786D02*
X8997500Y-15592167D01*
X8997500Y-15592167D02*
X8987977Y-15563595D01*
X8987977Y-15563595D02*
X8978453Y-15544548D01*
X8978453Y-15544548D02*
X8959405Y-15515976D01*
X8959405Y-15515976D02*
X8949881Y-15506452D01*
X9311786Y-15811214D02*
X9302262Y-15801690D01*
X9302262Y-15801690D02*
X9283215Y-15773119D01*
X9283215Y-15773119D02*
X9273691Y-15754071D01*
X9273691Y-15754071D02*
X9264167Y-15725500D01*
X9264167Y-15725500D02*
X9254643Y-15677881D01*
X9254643Y-15677881D02*
X9254643Y-15639786D01*
X9254643Y-15639786D02*
X9264167Y-15592167D01*
X9264167Y-15592167D02*
X9273691Y-15563595D01*
X9273691Y-15563595D02*
X9283215Y-15544548D01*
X9283215Y-15544548D02*
X9302262Y-15515976D01*
X9302262Y-15515976D02*
X9311786Y-15506452D01*
X9387977Y-15601690D02*
X9387977Y-15735024D01*
X9387977Y-15620738D02*
X9397500Y-15611214D01*
X9397500Y-15611214D02*
X9416548Y-15601690D01*
X9416548Y-15601690D02*
X9445120Y-15601690D01*
X9445120Y-15601690D02*
X9464167Y-15611214D01*
X9464167Y-15611214D02*
X9473691Y-15630262D01*
X9473691Y-15630262D02*
X9473691Y-15735024D01*
X9597500Y-15735024D02*
X9578453Y-15725500D01*
X9578453Y-15725500D02*
X9568929Y-15715976D01*
X9568929Y-15715976D02*
X9559405Y-15696928D01*
X9559405Y-15696928D02*
X9559405Y-15639786D01*
X9559405Y-15639786D02*
X9568929Y-15620738D01*
X9568929Y-15620738D02*
X9578453Y-15611214D01*
X9578453Y-15611214D02*
X9597500Y-15601690D01*
X9597500Y-15601690D02*
X9626072Y-15601690D01*
X9626072Y-15601690D02*
X9645120Y-15611214D01*
X9645120Y-15611214D02*
X9654643Y-15620738D01*
X9654643Y-15620738D02*
X9664167Y-15639786D01*
X9664167Y-15639786D02*
X9664167Y-15696928D01*
X9664167Y-15696928D02*
X9654643Y-15715976D01*
X9654643Y-15715976D02*
X9645120Y-15725500D01*
X9645120Y-15725500D02*
X9626072Y-15735024D01*
X9626072Y-15735024D02*
X9597500Y-15735024D01*
X9721310Y-15601690D02*
X9797500Y-15601690D01*
X9749881Y-15535024D02*
X9749881Y-15706452D01*
X9749881Y-15706452D02*
X9759405Y-15725500D01*
X9759405Y-15725500D02*
X9778453Y-15735024D01*
X9778453Y-15735024D02*
X9797500Y-15735024D01*
X10016548Y-15601690D02*
X10016548Y-15801690D01*
X10016548Y-15611214D02*
X10035596Y-15601690D01*
X10035596Y-15601690D02*
X10073691Y-15601690D01*
X10073691Y-15601690D02*
X10092739Y-15611214D01*
X10092739Y-15611214D02*
X10102262Y-15620738D01*
X10102262Y-15620738D02*
X10111786Y-15639786D01*
X10111786Y-15639786D02*
X10111786Y-15696928D01*
X10111786Y-15696928D02*
X10102262Y-15715976D01*
X10102262Y-15715976D02*
X10092739Y-15725500D01*
X10092739Y-15725500D02*
X10073691Y-15735024D01*
X10073691Y-15735024D02*
X10035596Y-15735024D01*
X10035596Y-15735024D02*
X10016548Y-15725500D01*
X10226072Y-15735024D02*
X10207024Y-15725500D01*
X10207024Y-15725500D02*
X10197501Y-15706452D01*
X10197501Y-15706452D02*
X10197501Y-15535024D01*
X10387977Y-15735024D02*
X10387977Y-15630262D01*
X10387977Y-15630262D02*
X10378453Y-15611214D01*
X10378453Y-15611214D02*
X10359405Y-15601690D01*
X10359405Y-15601690D02*
X10321310Y-15601690D01*
X10321310Y-15601690D02*
X10302262Y-15611214D01*
X10387977Y-15725500D02*
X10368929Y-15735024D01*
X10368929Y-15735024D02*
X10321310Y-15735024D01*
X10321310Y-15735024D02*
X10302262Y-15725500D01*
X10302262Y-15725500D02*
X10292739Y-15706452D01*
X10292739Y-15706452D02*
X10292739Y-15687405D01*
X10292739Y-15687405D02*
X10302262Y-15668357D01*
X10302262Y-15668357D02*
X10321310Y-15658833D01*
X10321310Y-15658833D02*
X10368929Y-15658833D01*
X10368929Y-15658833D02*
X10387977Y-15649309D01*
X10454643Y-15601690D02*
X10530834Y-15601690D01*
X10483215Y-15535024D02*
X10483215Y-15706452D01*
X10483215Y-15706452D02*
X10492739Y-15725500D01*
X10492739Y-15725500D02*
X10511786Y-15735024D01*
X10511786Y-15735024D02*
X10530834Y-15735024D01*
X10673691Y-15725500D02*
X10654643Y-15735024D01*
X10654643Y-15735024D02*
X10616548Y-15735024D01*
X10616548Y-15735024D02*
X10597501Y-15725500D01*
X10597501Y-15725500D02*
X10587977Y-15706452D01*
X10587977Y-15706452D02*
X10587977Y-15630262D01*
X10587977Y-15630262D02*
X10597501Y-15611214D01*
X10597501Y-15611214D02*
X10616548Y-15601690D01*
X10616548Y-15601690D02*
X10654643Y-15601690D01*
X10654643Y-15601690D02*
X10673691Y-15611214D01*
X10673691Y-15611214D02*
X10683215Y-15630262D01*
X10683215Y-15630262D02*
X10683215Y-15649309D01*
X10683215Y-15649309D02*
X10587977Y-15668357D01*
X10854643Y-15735024D02*
X10854643Y-15535024D01*
X10854643Y-15725500D02*
X10835596Y-15735024D01*
X10835596Y-15735024D02*
X10797501Y-15735024D01*
X10797501Y-15735024D02*
X10778453Y-15725500D01*
X10778453Y-15725500D02*
X10768929Y-15715976D01*
X10768929Y-15715976D02*
X10759405Y-15696928D01*
X10759405Y-15696928D02*
X10759405Y-15639786D01*
X10759405Y-15639786D02*
X10768929Y-15620738D01*
X10768929Y-15620738D02*
X10778453Y-15611214D01*
X10778453Y-15611214D02*
X10797501Y-15601690D01*
X10797501Y-15601690D02*
X10835596Y-15601690D01*
X10835596Y-15601690D02*
X10854643Y-15611214D01*
X10930834Y-15811214D02*
X10940358Y-15801690D01*
X10940358Y-15801690D02*
X10959405Y-15773119D01*
X10959405Y-15773119D02*
X10968929Y-15754071D01*
X10968929Y-15754071D02*
X10978453Y-15725500D01*
X10978453Y-15725500D02*
X10987977Y-15677881D01*
X10987977Y-15677881D02*
X10987977Y-15639786D01*
X10987977Y-15639786D02*
X10978453Y-15592167D01*
X10978453Y-15592167D02*
X10968929Y-15563595D01*
X10968929Y-15563595D02*
X10959405Y-15544548D01*
X10959405Y-15544548D02*
X10940358Y-15515976D01*
X10940358Y-15515976D02*
X10930834Y-15506452D01*
X3997500Y-15952500D02*
G75*
G03*
X3997500Y-15952500I-100000J0D01*
G01*
X4340357Y-15845024D02*
X4245119Y-15845024D01*
X4245119Y-15845024D02*
X4235595Y-15940262D01*
X4235595Y-15940262D02*
X4245119Y-15930738D01*
X4245119Y-15930738D02*
X4264167Y-15921214D01*
X4264167Y-15921214D02*
X4311786Y-15921214D01*
X4311786Y-15921214D02*
X4330833Y-15930738D01*
X4330833Y-15930738D02*
X4340357Y-15940262D01*
X4340357Y-15940262D02*
X4349881Y-15959309D01*
X4349881Y-15959309D02*
X4349881Y-16006928D01*
X4349881Y-16006928D02*
X4340357Y-16025976D01*
X4340357Y-16025976D02*
X4330833Y-16035500D01*
X4330833Y-16035500D02*
X4311786Y-16045024D01*
X4311786Y-16045024D02*
X4264167Y-16045024D01*
X4264167Y-16045024D02*
X4245119Y-16035500D01*
X4245119Y-16035500D02*
X4235595Y-16025976D01*
X4435595Y-16025976D02*
X4445119Y-16035500D01*
X4445119Y-16035500D02*
X4435595Y-16045024D01*
X4435595Y-16045024D02*
X4426071Y-16035500D01*
X4426071Y-16035500D02*
X4435595Y-16025976D01*
X4435595Y-16025976D02*
X4435595Y-16045024D01*
X4568929Y-15845024D02*
X4587976Y-15845024D01*
X4587976Y-15845024D02*
X4607024Y-15854548D01*
X4607024Y-15854548D02*
X4616548Y-15864071D01*
X4616548Y-15864071D02*
X4626071Y-15883119D01*
X4626071Y-15883119D02*
X4635595Y-15921214D01*
X4635595Y-15921214D02*
X4635595Y-15968833D01*
X4635595Y-15968833D02*
X4626071Y-16006928D01*
X4626071Y-16006928D02*
X4616548Y-16025976D01*
X4616548Y-16025976D02*
X4607024Y-16035500D01*
X4607024Y-16035500D02*
X4587976Y-16045024D01*
X4587976Y-16045024D02*
X4568929Y-16045024D01*
X4568929Y-16045024D02*
X4549881Y-16035500D01*
X4549881Y-16035500D02*
X4540357Y-16025976D01*
X4540357Y-16025976D02*
X4530833Y-16006928D01*
X4530833Y-16006928D02*
X4521310Y-15968833D01*
X4521310Y-15968833D02*
X4521310Y-15921214D01*
X4521310Y-15921214D02*
X4530833Y-15883119D01*
X4530833Y-15883119D02*
X4540357Y-15864071D01*
X4540357Y-15864071D02*
X4549881Y-15854548D01*
X4549881Y-15854548D02*
X4568929Y-15845024D01*
X4816548Y-15845024D02*
X4721310Y-15845024D01*
X4721310Y-15845024D02*
X4711786Y-15940262D01*
X4711786Y-15940262D02*
X4721310Y-15930738D01*
X4721310Y-15930738D02*
X4740357Y-15921214D01*
X4740357Y-15921214D02*
X4787976Y-15921214D01*
X4787976Y-15921214D02*
X4807024Y-15930738D01*
X4807024Y-15930738D02*
X4816548Y-15940262D01*
X4816548Y-15940262D02*
X4826071Y-15959309D01*
X4826071Y-15959309D02*
X4826071Y-16006928D01*
X4826071Y-16006928D02*
X4816548Y-16025976D01*
X4816548Y-16025976D02*
X4807024Y-16035500D01*
X4807024Y-16035500D02*
X4787976Y-16045024D01*
X4787976Y-16045024D02*
X4740357Y-16045024D01*
X4740357Y-16045024D02*
X4721310Y-16035500D01*
X4721310Y-16035500D02*
X4711786Y-16025976D01*
X4949881Y-15845024D02*
X4968929Y-15845024D01*
X4968929Y-15845024D02*
X4987976Y-15854548D01*
X4987976Y-15854548D02*
X4997500Y-15864071D01*
X4997500Y-15864071D02*
X5007024Y-15883119D01*
X5007024Y-15883119D02*
X5016548Y-15921214D01*
X5016548Y-15921214D02*
X5016548Y-15968833D01*
X5016548Y-15968833D02*
X5007024Y-16006928D01*
X5007024Y-16006928D02*
X4997500Y-16025976D01*
X4997500Y-16025976D02*
X4987976Y-16035500D01*
X4987976Y-16035500D02*
X4968929Y-16045024D01*
X4968929Y-16045024D02*
X4949881Y-16045024D01*
X4949881Y-16045024D02*
X4930833Y-16035500D01*
X4930833Y-16035500D02*
X4921310Y-16025976D01*
X4921310Y-16025976D02*
X4911786Y-16006928D01*
X4911786Y-16006928D02*
X4902262Y-15968833D01*
X4902262Y-15968833D02*
X4902262Y-15921214D01*
X4902262Y-15921214D02*
X4911786Y-15883119D01*
X4911786Y-15883119D02*
X4921310Y-15864071D01*
X4921310Y-15864071D02*
X4930833Y-15854548D01*
X4930833Y-15854548D02*
X4949881Y-15845024D01*
X5102262Y-16045024D02*
X5102262Y-15911690D01*
X5102262Y-15930738D02*
X5111786Y-15921214D01*
X5111786Y-15921214D02*
X5130833Y-15911690D01*
X5130833Y-15911690D02*
X5159405Y-15911690D01*
X5159405Y-15911690D02*
X5178452Y-15921214D01*
X5178452Y-15921214D02*
X5187976Y-15940262D01*
X5187976Y-15940262D02*
X5187976Y-16045024D01*
X5187976Y-15940262D02*
X5197500Y-15921214D01*
X5197500Y-15921214D02*
X5216548Y-15911690D01*
X5216548Y-15911690D02*
X5245119Y-15911690D01*
X5245119Y-15911690D02*
X5264167Y-15921214D01*
X5264167Y-15921214D02*
X5273691Y-15940262D01*
X5273691Y-15940262D02*
X5273691Y-16045024D01*
X5368929Y-16045024D02*
X5368929Y-15911690D01*
X5368929Y-15930738D02*
X5378452Y-15921214D01*
X5378452Y-15921214D02*
X5397500Y-15911690D01*
X5397500Y-15911690D02*
X5426072Y-15911690D01*
X5426072Y-15911690D02*
X5445119Y-15921214D01*
X5445119Y-15921214D02*
X5454643Y-15940262D01*
X5454643Y-15940262D02*
X5454643Y-16045024D01*
X5454643Y-15940262D02*
X5464167Y-15921214D01*
X5464167Y-15921214D02*
X5483214Y-15911690D01*
X5483214Y-15911690D02*
X5511786Y-15911690D01*
X5511786Y-15911690D02*
X5530833Y-15921214D01*
X5530833Y-15921214D02*
X5540357Y-15940262D01*
X5540357Y-15940262D02*
X5540357Y-16045024D01*
X5930833Y-15835500D02*
X5759405Y-16092643D01*
X6187976Y-15845024D02*
X6207024Y-15845024D01*
X6207024Y-15845024D02*
X6226072Y-15854548D01*
X6226072Y-15854548D02*
X6235595Y-15864071D01*
X6235595Y-15864071D02*
X6245119Y-15883119D01*
X6245119Y-15883119D02*
X6254643Y-15921214D01*
X6254643Y-15921214D02*
X6254643Y-15968833D01*
X6254643Y-15968833D02*
X6245119Y-16006928D01*
X6245119Y-16006928D02*
X6235595Y-16025976D01*
X6235595Y-16025976D02*
X6226072Y-16035500D01*
X6226072Y-16035500D02*
X6207024Y-16045024D01*
X6207024Y-16045024D02*
X6187976Y-16045024D01*
X6187976Y-16045024D02*
X6168929Y-16035500D01*
X6168929Y-16035500D02*
X6159405Y-16025976D01*
X6159405Y-16025976D02*
X6149881Y-16006928D01*
X6149881Y-16006928D02*
X6140357Y-15968833D01*
X6140357Y-15968833D02*
X6140357Y-15921214D01*
X6140357Y-15921214D02*
X6149881Y-15883119D01*
X6149881Y-15883119D02*
X6159405Y-15864071D01*
X6159405Y-15864071D02*
X6168929Y-15854548D01*
X6168929Y-15854548D02*
X6187976Y-15845024D01*
X6340357Y-16025976D02*
X6349881Y-16035500D01*
X6349881Y-16035500D02*
X6340357Y-16045024D01*
X6340357Y-16045024D02*
X6330833Y-16035500D01*
X6330833Y-16035500D02*
X6340357Y-16025976D01*
X6340357Y-16025976D02*
X6340357Y-16045024D01*
X6540357Y-16045024D02*
X6426072Y-16045024D01*
X6483214Y-16045024D02*
X6483214Y-15845024D01*
X6483214Y-15845024D02*
X6464167Y-15873595D01*
X6464167Y-15873595D02*
X6445119Y-15892643D01*
X6445119Y-15892643D02*
X6426072Y-15902167D01*
X6635595Y-16045024D02*
X6673691Y-16045024D01*
X6673691Y-16045024D02*
X6692738Y-16035500D01*
X6692738Y-16035500D02*
X6702262Y-16025976D01*
X6702262Y-16025976D02*
X6721310Y-15997405D01*
X6721310Y-15997405D02*
X6730833Y-15959309D01*
X6730833Y-15959309D02*
X6730833Y-15883119D01*
X6730833Y-15883119D02*
X6721310Y-15864071D01*
X6721310Y-15864071D02*
X6711786Y-15854548D01*
X6711786Y-15854548D02*
X6692738Y-15845024D01*
X6692738Y-15845024D02*
X6654643Y-15845024D01*
X6654643Y-15845024D02*
X6635595Y-15854548D01*
X6635595Y-15854548D02*
X6626072Y-15864071D01*
X6626072Y-15864071D02*
X6616548Y-15883119D01*
X6616548Y-15883119D02*
X6616548Y-15930738D01*
X6616548Y-15930738D02*
X6626072Y-15949786D01*
X6626072Y-15949786D02*
X6635595Y-15959309D01*
X6635595Y-15959309D02*
X6654643Y-15968833D01*
X6654643Y-15968833D02*
X6692738Y-15968833D01*
X6692738Y-15968833D02*
X6711786Y-15959309D01*
X6711786Y-15959309D02*
X6721310Y-15949786D01*
X6721310Y-15949786D02*
X6730833Y-15930738D01*
X6845119Y-15930738D02*
X6826072Y-15921214D01*
X6826072Y-15921214D02*
X6816548Y-15911690D01*
X6816548Y-15911690D02*
X6807024Y-15892643D01*
X6807024Y-15892643D02*
X6807024Y-15883119D01*
X6807024Y-15883119D02*
X6816548Y-15864071D01*
X6816548Y-15864071D02*
X6826072Y-15854548D01*
X6826072Y-15854548D02*
X6845119Y-15845024D01*
X6845119Y-15845024D02*
X6883214Y-15845024D01*
X6883214Y-15845024D02*
X6902262Y-15854548D01*
X6902262Y-15854548D02*
X6911786Y-15864071D01*
X6911786Y-15864071D02*
X6921310Y-15883119D01*
X6921310Y-15883119D02*
X6921310Y-15892643D01*
X6921310Y-15892643D02*
X6911786Y-15911690D01*
X6911786Y-15911690D02*
X6902262Y-15921214D01*
X6902262Y-15921214D02*
X6883214Y-15930738D01*
X6883214Y-15930738D02*
X6845119Y-15930738D01*
X6845119Y-15930738D02*
X6826072Y-15940262D01*
X6826072Y-15940262D02*
X6816548Y-15949786D01*
X6816548Y-15949786D02*
X6807024Y-15968833D01*
X6807024Y-15968833D02*
X6807024Y-16006928D01*
X6807024Y-16006928D02*
X6816548Y-16025976D01*
X6816548Y-16025976D02*
X6826072Y-16035500D01*
X6826072Y-16035500D02*
X6845119Y-16045024D01*
X6845119Y-16045024D02*
X6883214Y-16045024D01*
X6883214Y-16045024D02*
X6902262Y-16035500D01*
X6902262Y-16035500D02*
X6911786Y-16025976D01*
X6911786Y-16025976D02*
X6921310Y-16006928D01*
X6921310Y-16006928D02*
X6921310Y-15968833D01*
X6921310Y-15968833D02*
X6911786Y-15949786D01*
X6911786Y-15949786D02*
X6902262Y-15940262D01*
X6902262Y-15940262D02*
X6883214Y-15930738D01*
X7035595Y-15930738D02*
X7016548Y-15921214D01*
X7016548Y-15921214D02*
X7007024Y-15911690D01*
X7007024Y-15911690D02*
X6997500Y-15892643D01*
X6997500Y-15892643D02*
X6997500Y-15883119D01*
X6997500Y-15883119D02*
X7007024Y-15864071D01*
X7007024Y-15864071D02*
X7016548Y-15854548D01*
X7016548Y-15854548D02*
X7035595Y-15845024D01*
X7035595Y-15845024D02*
X7073691Y-15845024D01*
X7073691Y-15845024D02*
X7092738Y-15854548D01*
X7092738Y-15854548D02*
X7102262Y-15864071D01*
X7102262Y-15864071D02*
X7111786Y-15883119D01*
X7111786Y-15883119D02*
X7111786Y-15892643D01*
X7111786Y-15892643D02*
X7102262Y-15911690D01*
X7102262Y-15911690D02*
X7092738Y-15921214D01*
X7092738Y-15921214D02*
X7073691Y-15930738D01*
X7073691Y-15930738D02*
X7035595Y-15930738D01*
X7035595Y-15930738D02*
X7016548Y-15940262D01*
X7016548Y-15940262D02*
X7007024Y-15949786D01*
X7007024Y-15949786D02*
X6997500Y-15968833D01*
X6997500Y-15968833D02*
X6997500Y-16006928D01*
X6997500Y-16006928D02*
X7007024Y-16025976D01*
X7007024Y-16025976D02*
X7016548Y-16035500D01*
X7016548Y-16035500D02*
X7035595Y-16045024D01*
X7035595Y-16045024D02*
X7073691Y-16045024D01*
X7073691Y-16045024D02*
X7092738Y-16035500D01*
X7092738Y-16035500D02*
X7102262Y-16025976D01*
X7102262Y-16025976D02*
X7111786Y-16006928D01*
X7111786Y-16006928D02*
X7111786Y-15968833D01*
X7111786Y-15968833D02*
X7102262Y-15949786D01*
X7102262Y-15949786D02*
X7092738Y-15940262D01*
X7092738Y-15940262D02*
X7073691Y-15930738D01*
X7187976Y-15845024D02*
X7187976Y-15883119D01*
X7264167Y-15845024D02*
X7264167Y-15883119D01*
X7559405Y-16121214D02*
X7549881Y-16111690D01*
X7549881Y-16111690D02*
X7530834Y-16083119D01*
X7530834Y-16083119D02*
X7521310Y-16064071D01*
X7521310Y-16064071D02*
X7511786Y-16035500D01*
X7511786Y-16035500D02*
X7502262Y-15987881D01*
X7502262Y-15987881D02*
X7502262Y-15949786D01*
X7502262Y-15949786D02*
X7511786Y-15902167D01*
X7511786Y-15902167D02*
X7521310Y-15873595D01*
X7521310Y-15873595D02*
X7530834Y-15854548D01*
X7530834Y-15854548D02*
X7549881Y-15825976D01*
X7549881Y-15825976D02*
X7559405Y-15816452D01*
X7740357Y-16045024D02*
X7626072Y-16045024D01*
X7683214Y-16045024D02*
X7683214Y-15845024D01*
X7683214Y-15845024D02*
X7664167Y-15873595D01*
X7664167Y-15873595D02*
X7645119Y-15892643D01*
X7645119Y-15892643D02*
X7626072Y-15902167D01*
X7807024Y-15845024D02*
X7930834Y-15845024D01*
X7930834Y-15845024D02*
X7864167Y-15921214D01*
X7864167Y-15921214D02*
X7892738Y-15921214D01*
X7892738Y-15921214D02*
X7911786Y-15930738D01*
X7911786Y-15930738D02*
X7921310Y-15940262D01*
X7921310Y-15940262D02*
X7930834Y-15959309D01*
X7930834Y-15959309D02*
X7930834Y-16006928D01*
X7930834Y-16006928D02*
X7921310Y-16025976D01*
X7921310Y-16025976D02*
X7911786Y-16035500D01*
X7911786Y-16035500D02*
X7892738Y-16045024D01*
X7892738Y-16045024D02*
X7835595Y-16045024D01*
X7835595Y-16045024D02*
X7816548Y-16035500D01*
X7816548Y-16035500D02*
X7807024Y-16025976D01*
X8168929Y-16045024D02*
X8168929Y-15845024D01*
X8254643Y-16045024D02*
X8254643Y-15940262D01*
X8254643Y-15940262D02*
X8245119Y-15921214D01*
X8245119Y-15921214D02*
X8226072Y-15911690D01*
X8226072Y-15911690D02*
X8197500Y-15911690D01*
X8197500Y-15911690D02*
X8178453Y-15921214D01*
X8178453Y-15921214D02*
X8168929Y-15930738D01*
X8378453Y-16045024D02*
X8359405Y-16035500D01*
X8359405Y-16035500D02*
X8349881Y-16025976D01*
X8349881Y-16025976D02*
X8340357Y-16006928D01*
X8340357Y-16006928D02*
X8340357Y-15949786D01*
X8340357Y-15949786D02*
X8349881Y-15930738D01*
X8349881Y-15930738D02*
X8359405Y-15921214D01*
X8359405Y-15921214D02*
X8378453Y-15911690D01*
X8378453Y-15911690D02*
X8407024Y-15911690D01*
X8407024Y-15911690D02*
X8426072Y-15921214D01*
X8426072Y-15921214D02*
X8435596Y-15930738D01*
X8435596Y-15930738D02*
X8445119Y-15949786D01*
X8445119Y-15949786D02*
X8445119Y-16006928D01*
X8445119Y-16006928D02*
X8435596Y-16025976D01*
X8435596Y-16025976D02*
X8426072Y-16035500D01*
X8426072Y-16035500D02*
X8407024Y-16045024D01*
X8407024Y-16045024D02*
X8378453Y-16045024D01*
X8559405Y-16045024D02*
X8540358Y-16035500D01*
X8540358Y-16035500D02*
X8530834Y-16016452D01*
X8530834Y-16016452D02*
X8530834Y-15845024D01*
X8711786Y-16035500D02*
X8692739Y-16045024D01*
X8692739Y-16045024D02*
X8654643Y-16045024D01*
X8654643Y-16045024D02*
X8635596Y-16035500D01*
X8635596Y-16035500D02*
X8626072Y-16016452D01*
X8626072Y-16016452D02*
X8626072Y-15940262D01*
X8626072Y-15940262D02*
X8635596Y-15921214D01*
X8635596Y-15921214D02*
X8654643Y-15911690D01*
X8654643Y-15911690D02*
X8692739Y-15911690D01*
X8692739Y-15911690D02*
X8711786Y-15921214D01*
X8711786Y-15921214D02*
X8721310Y-15940262D01*
X8721310Y-15940262D02*
X8721310Y-15959309D01*
X8721310Y-15959309D02*
X8626072Y-15978357D01*
X8797500Y-16035500D02*
X8816548Y-16045024D01*
X8816548Y-16045024D02*
X8854643Y-16045024D01*
X8854643Y-16045024D02*
X8873691Y-16035500D01*
X8873691Y-16035500D02*
X8883215Y-16016452D01*
X8883215Y-16016452D02*
X8883215Y-16006928D01*
X8883215Y-16006928D02*
X8873691Y-15987881D01*
X8873691Y-15987881D02*
X8854643Y-15978357D01*
X8854643Y-15978357D02*
X8826072Y-15978357D01*
X8826072Y-15978357D02*
X8807024Y-15968833D01*
X8807024Y-15968833D02*
X8797500Y-15949786D01*
X8797500Y-15949786D02*
X8797500Y-15940262D01*
X8797500Y-15940262D02*
X8807024Y-15921214D01*
X8807024Y-15921214D02*
X8826072Y-15911690D01*
X8826072Y-15911690D02*
X8854643Y-15911690D01*
X8854643Y-15911690D02*
X8873691Y-15921214D01*
X8949881Y-16121214D02*
X8959405Y-16111690D01*
X8959405Y-16111690D02*
X8978453Y-16083119D01*
X8978453Y-16083119D02*
X8987977Y-16064071D01*
X8987977Y-16064071D02*
X8997500Y-16035500D01*
X8997500Y-16035500D02*
X9007024Y-15987881D01*
X9007024Y-15987881D02*
X9007024Y-15949786D01*
X9007024Y-15949786D02*
X8997500Y-15902167D01*
X8997500Y-15902167D02*
X8987977Y-15873595D01*
X8987977Y-15873595D02*
X8978453Y-15854548D01*
X8978453Y-15854548D02*
X8959405Y-15825976D01*
X8959405Y-15825976D02*
X8949881Y-15816452D01*
X9311786Y-16121214D02*
X9302262Y-16111690D01*
X9302262Y-16111690D02*
X9283215Y-16083119D01*
X9283215Y-16083119D02*
X9273691Y-16064071D01*
X9273691Y-16064071D02*
X9264167Y-16035500D01*
X9264167Y-16035500D02*
X9254643Y-15987881D01*
X9254643Y-15987881D02*
X9254643Y-15949786D01*
X9254643Y-15949786D02*
X9264167Y-15902167D01*
X9264167Y-15902167D02*
X9273691Y-15873595D01*
X9273691Y-15873595D02*
X9283215Y-15854548D01*
X9283215Y-15854548D02*
X9302262Y-15825976D01*
X9302262Y-15825976D02*
X9311786Y-15816452D01*
X9387977Y-15911690D02*
X9387977Y-16045024D01*
X9387977Y-15930738D02*
X9397500Y-15921214D01*
X9397500Y-15921214D02*
X9416548Y-15911690D01*
X9416548Y-15911690D02*
X9445120Y-15911690D01*
X9445120Y-15911690D02*
X9464167Y-15921214D01*
X9464167Y-15921214D02*
X9473691Y-15940262D01*
X9473691Y-15940262D02*
X9473691Y-16045024D01*
X9597500Y-16045024D02*
X9578453Y-16035500D01*
X9578453Y-16035500D02*
X9568929Y-16025976D01*
X9568929Y-16025976D02*
X9559405Y-16006928D01*
X9559405Y-16006928D02*
X9559405Y-15949786D01*
X9559405Y-15949786D02*
X9568929Y-15930738D01*
X9568929Y-15930738D02*
X9578453Y-15921214D01*
X9578453Y-15921214D02*
X9597500Y-15911690D01*
X9597500Y-15911690D02*
X9626072Y-15911690D01*
X9626072Y-15911690D02*
X9645120Y-15921214D01*
X9645120Y-15921214D02*
X9654643Y-15930738D01*
X9654643Y-15930738D02*
X9664167Y-15949786D01*
X9664167Y-15949786D02*
X9664167Y-16006928D01*
X9664167Y-16006928D02*
X9654643Y-16025976D01*
X9654643Y-16025976D02*
X9645120Y-16035500D01*
X9645120Y-16035500D02*
X9626072Y-16045024D01*
X9626072Y-16045024D02*
X9597500Y-16045024D01*
X9721310Y-15911690D02*
X9797500Y-15911690D01*
X9749881Y-15845024D02*
X9749881Y-16016452D01*
X9749881Y-16016452D02*
X9759405Y-16035500D01*
X9759405Y-16035500D02*
X9778453Y-16045024D01*
X9778453Y-16045024D02*
X9797500Y-16045024D01*
X10016548Y-15911690D02*
X10016548Y-16111690D01*
X10016548Y-15921214D02*
X10035596Y-15911690D01*
X10035596Y-15911690D02*
X10073691Y-15911690D01*
X10073691Y-15911690D02*
X10092739Y-15921214D01*
X10092739Y-15921214D02*
X10102262Y-15930738D01*
X10102262Y-15930738D02*
X10111786Y-15949786D01*
X10111786Y-15949786D02*
X10111786Y-16006928D01*
X10111786Y-16006928D02*
X10102262Y-16025976D01*
X10102262Y-16025976D02*
X10092739Y-16035500D01*
X10092739Y-16035500D02*
X10073691Y-16045024D01*
X10073691Y-16045024D02*
X10035596Y-16045024D01*
X10035596Y-16045024D02*
X10016548Y-16035500D01*
X10226072Y-16045024D02*
X10207024Y-16035500D01*
X10207024Y-16035500D02*
X10197501Y-16016452D01*
X10197501Y-16016452D02*
X10197501Y-15845024D01*
X10387977Y-16045024D02*
X10387977Y-15940262D01*
X10387977Y-15940262D02*
X10378453Y-15921214D01*
X10378453Y-15921214D02*
X10359405Y-15911690D01*
X10359405Y-15911690D02*
X10321310Y-15911690D01*
X10321310Y-15911690D02*
X10302262Y-15921214D01*
X10387977Y-16035500D02*
X10368929Y-16045024D01*
X10368929Y-16045024D02*
X10321310Y-16045024D01*
X10321310Y-16045024D02*
X10302262Y-16035500D01*
X10302262Y-16035500D02*
X10292739Y-16016452D01*
X10292739Y-16016452D02*
X10292739Y-15997405D01*
X10292739Y-15997405D02*
X10302262Y-15978357D01*
X10302262Y-15978357D02*
X10321310Y-15968833D01*
X10321310Y-15968833D02*
X10368929Y-15968833D01*
X10368929Y-15968833D02*
X10387977Y-15959309D01*
X10454643Y-15911690D02*
X10530834Y-15911690D01*
X10483215Y-15845024D02*
X10483215Y-16016452D01*
X10483215Y-16016452D02*
X10492739Y-16035500D01*
X10492739Y-16035500D02*
X10511786Y-16045024D01*
X10511786Y-16045024D02*
X10530834Y-16045024D01*
X10673691Y-16035500D02*
X10654643Y-16045024D01*
X10654643Y-16045024D02*
X10616548Y-16045024D01*
X10616548Y-16045024D02*
X10597501Y-16035500D01*
X10597501Y-16035500D02*
X10587977Y-16016452D01*
X10587977Y-16016452D02*
X10587977Y-15940262D01*
X10587977Y-15940262D02*
X10597501Y-15921214D01*
X10597501Y-15921214D02*
X10616548Y-15911690D01*
X10616548Y-15911690D02*
X10654643Y-15911690D01*
X10654643Y-15911690D02*
X10673691Y-15921214D01*
X10673691Y-15921214D02*
X10683215Y-15940262D01*
X10683215Y-15940262D02*
X10683215Y-15959309D01*
X10683215Y-15959309D02*
X10587977Y-15978357D01*
X10854643Y-16045024D02*
X10854643Y-15845024D01*
X10854643Y-16035500D02*
X10835596Y-16045024D01*
X10835596Y-16045024D02*
X10797501Y-16045024D01*
X10797501Y-16045024D02*
X10778453Y-16035500D01*
X10778453Y-16035500D02*
X10768929Y-16025976D01*
X10768929Y-16025976D02*
X10759405Y-16006928D01*
X10759405Y-16006928D02*
X10759405Y-15949786D01*
X10759405Y-15949786D02*
X10768929Y-15930738D01*
X10768929Y-15930738D02*
X10778453Y-15921214D01*
X10778453Y-15921214D02*
X10797501Y-15911690D01*
X10797501Y-15911690D02*
X10835596Y-15911690D01*
X10835596Y-15911690D02*
X10854643Y-15921214D01*
X10930834Y-16121214D02*
X10940358Y-16111690D01*
X10940358Y-16111690D02*
X10959405Y-16083119D01*
X10959405Y-16083119D02*
X10968929Y-16064071D01*
X10968929Y-16064071D02*
X10978453Y-16035500D01*
X10978453Y-16035500D02*
X10987977Y-15987881D01*
X10987977Y-15987881D02*
X10987977Y-15949786D01*
X10987977Y-15949786D02*
X10978453Y-15902167D01*
X10978453Y-15902167D02*
X10968929Y-15873595D01*
X10968929Y-15873595D02*
X10959405Y-15854548D01*
X10959405Y-15854548D02*
X10940358Y-15825976D01*
X10940358Y-15825976D02*
X10930834Y-15816452D01*
X3897500Y-16172500D02*
X3897500Y-16372500D01*
X3797500Y-16272500D02*
X3997500Y-16272500D01*
X4330833Y-16165024D02*
X4292738Y-16165024D01*
X4292738Y-16165024D02*
X4273690Y-16174548D01*
X4273690Y-16174548D02*
X4264167Y-16184071D01*
X4264167Y-16184071D02*
X4245119Y-16212643D01*
X4245119Y-16212643D02*
X4235595Y-16250738D01*
X4235595Y-16250738D02*
X4235595Y-16326928D01*
X4235595Y-16326928D02*
X4245119Y-16345976D01*
X4245119Y-16345976D02*
X4254643Y-16355500D01*
X4254643Y-16355500D02*
X4273690Y-16365024D01*
X4273690Y-16365024D02*
X4311786Y-16365024D01*
X4311786Y-16365024D02*
X4330833Y-16355500D01*
X4330833Y-16355500D02*
X4340357Y-16345976D01*
X4340357Y-16345976D02*
X4349881Y-16326928D01*
X4349881Y-16326928D02*
X4349881Y-16279309D01*
X4349881Y-16279309D02*
X4340357Y-16260262D01*
X4340357Y-16260262D02*
X4330833Y-16250738D01*
X4330833Y-16250738D02*
X4311786Y-16241214D01*
X4311786Y-16241214D02*
X4273690Y-16241214D01*
X4273690Y-16241214D02*
X4254643Y-16250738D01*
X4254643Y-16250738D02*
X4245119Y-16260262D01*
X4245119Y-16260262D02*
X4235595Y-16279309D01*
X4435595Y-16345976D02*
X4445119Y-16355500D01*
X4445119Y-16355500D02*
X4435595Y-16365024D01*
X4435595Y-16365024D02*
X4426071Y-16355500D01*
X4426071Y-16355500D02*
X4435595Y-16345976D01*
X4435595Y-16345976D02*
X4435595Y-16365024D01*
X4616548Y-16231690D02*
X4616548Y-16365024D01*
X4568929Y-16155500D02*
X4521310Y-16298357D01*
X4521310Y-16298357D02*
X4645119Y-16298357D01*
X4759405Y-16165024D02*
X4778452Y-16165024D01*
X4778452Y-16165024D02*
X4797500Y-16174548D01*
X4797500Y-16174548D02*
X4807024Y-16184071D01*
X4807024Y-16184071D02*
X4816548Y-16203119D01*
X4816548Y-16203119D02*
X4826071Y-16241214D01*
X4826071Y-16241214D02*
X4826071Y-16288833D01*
X4826071Y-16288833D02*
X4816548Y-16326928D01*
X4816548Y-16326928D02*
X4807024Y-16345976D01*
X4807024Y-16345976D02*
X4797500Y-16355500D01*
X4797500Y-16355500D02*
X4778452Y-16365024D01*
X4778452Y-16365024D02*
X4759405Y-16365024D01*
X4759405Y-16365024D02*
X4740357Y-16355500D01*
X4740357Y-16355500D02*
X4730833Y-16345976D01*
X4730833Y-16345976D02*
X4721310Y-16326928D01*
X4721310Y-16326928D02*
X4711786Y-16288833D01*
X4711786Y-16288833D02*
X4711786Y-16241214D01*
X4711786Y-16241214D02*
X4721310Y-16203119D01*
X4721310Y-16203119D02*
X4730833Y-16184071D01*
X4730833Y-16184071D02*
X4740357Y-16174548D01*
X4740357Y-16174548D02*
X4759405Y-16165024D01*
X4949881Y-16165024D02*
X4968929Y-16165024D01*
X4968929Y-16165024D02*
X4987976Y-16174548D01*
X4987976Y-16174548D02*
X4997500Y-16184071D01*
X4997500Y-16184071D02*
X5007024Y-16203119D01*
X5007024Y-16203119D02*
X5016548Y-16241214D01*
X5016548Y-16241214D02*
X5016548Y-16288833D01*
X5016548Y-16288833D02*
X5007024Y-16326928D01*
X5007024Y-16326928D02*
X4997500Y-16345976D01*
X4997500Y-16345976D02*
X4987976Y-16355500D01*
X4987976Y-16355500D02*
X4968929Y-16365024D01*
X4968929Y-16365024D02*
X4949881Y-16365024D01*
X4949881Y-16365024D02*
X4930833Y-16355500D01*
X4930833Y-16355500D02*
X4921310Y-16345976D01*
X4921310Y-16345976D02*
X4911786Y-16326928D01*
X4911786Y-16326928D02*
X4902262Y-16288833D01*
X4902262Y-16288833D02*
X4902262Y-16241214D01*
X4902262Y-16241214D02*
X4911786Y-16203119D01*
X4911786Y-16203119D02*
X4921310Y-16184071D01*
X4921310Y-16184071D02*
X4930833Y-16174548D01*
X4930833Y-16174548D02*
X4949881Y-16165024D01*
X5102262Y-16365024D02*
X5102262Y-16231690D01*
X5102262Y-16250738D02*
X5111786Y-16241214D01*
X5111786Y-16241214D02*
X5130833Y-16231690D01*
X5130833Y-16231690D02*
X5159405Y-16231690D01*
X5159405Y-16231690D02*
X5178452Y-16241214D01*
X5178452Y-16241214D02*
X5187976Y-16260262D01*
X5187976Y-16260262D02*
X5187976Y-16365024D01*
X5187976Y-16260262D02*
X5197500Y-16241214D01*
X5197500Y-16241214D02*
X5216548Y-16231690D01*
X5216548Y-16231690D02*
X5245119Y-16231690D01*
X5245119Y-16231690D02*
X5264167Y-16241214D01*
X5264167Y-16241214D02*
X5273691Y-16260262D01*
X5273691Y-16260262D02*
X5273691Y-16365024D01*
X5368929Y-16365024D02*
X5368929Y-16231690D01*
X5368929Y-16250738D02*
X5378452Y-16241214D01*
X5378452Y-16241214D02*
X5397500Y-16231690D01*
X5397500Y-16231690D02*
X5426072Y-16231690D01*
X5426072Y-16231690D02*
X5445119Y-16241214D01*
X5445119Y-16241214D02*
X5454643Y-16260262D01*
X5454643Y-16260262D02*
X5454643Y-16365024D01*
X5454643Y-16260262D02*
X5464167Y-16241214D01*
X5464167Y-16241214D02*
X5483214Y-16231690D01*
X5483214Y-16231690D02*
X5511786Y-16231690D01*
X5511786Y-16231690D02*
X5530833Y-16241214D01*
X5530833Y-16241214D02*
X5540357Y-16260262D01*
X5540357Y-16260262D02*
X5540357Y-16365024D01*
X5930833Y-16155500D02*
X5759405Y-16412643D01*
X6187976Y-16165024D02*
X6207024Y-16165024D01*
X6207024Y-16165024D02*
X6226072Y-16174548D01*
X6226072Y-16174548D02*
X6235595Y-16184071D01*
X6235595Y-16184071D02*
X6245119Y-16203119D01*
X6245119Y-16203119D02*
X6254643Y-16241214D01*
X6254643Y-16241214D02*
X6254643Y-16288833D01*
X6254643Y-16288833D02*
X6245119Y-16326928D01*
X6245119Y-16326928D02*
X6235595Y-16345976D01*
X6235595Y-16345976D02*
X6226072Y-16355500D01*
X6226072Y-16355500D02*
X6207024Y-16365024D01*
X6207024Y-16365024D02*
X6187976Y-16365024D01*
X6187976Y-16365024D02*
X6168929Y-16355500D01*
X6168929Y-16355500D02*
X6159405Y-16345976D01*
X6159405Y-16345976D02*
X6149881Y-16326928D01*
X6149881Y-16326928D02*
X6140357Y-16288833D01*
X6140357Y-16288833D02*
X6140357Y-16241214D01*
X6140357Y-16241214D02*
X6149881Y-16203119D01*
X6149881Y-16203119D02*
X6159405Y-16184071D01*
X6159405Y-16184071D02*
X6168929Y-16174548D01*
X6168929Y-16174548D02*
X6187976Y-16165024D01*
X6340357Y-16345976D02*
X6349881Y-16355500D01*
X6349881Y-16355500D02*
X6340357Y-16365024D01*
X6340357Y-16365024D02*
X6330833Y-16355500D01*
X6330833Y-16355500D02*
X6340357Y-16345976D01*
X6340357Y-16345976D02*
X6340357Y-16365024D01*
X6426072Y-16184071D02*
X6435595Y-16174548D01*
X6435595Y-16174548D02*
X6454643Y-16165024D01*
X6454643Y-16165024D02*
X6502262Y-16165024D01*
X6502262Y-16165024D02*
X6521310Y-16174548D01*
X6521310Y-16174548D02*
X6530833Y-16184071D01*
X6530833Y-16184071D02*
X6540357Y-16203119D01*
X6540357Y-16203119D02*
X6540357Y-16222167D01*
X6540357Y-16222167D02*
X6530833Y-16250738D01*
X6530833Y-16250738D02*
X6416548Y-16365024D01*
X6416548Y-16365024D02*
X6540357Y-16365024D01*
X6721310Y-16165024D02*
X6626072Y-16165024D01*
X6626072Y-16165024D02*
X6616548Y-16260262D01*
X6616548Y-16260262D02*
X6626072Y-16250738D01*
X6626072Y-16250738D02*
X6645119Y-16241214D01*
X6645119Y-16241214D02*
X6692738Y-16241214D01*
X6692738Y-16241214D02*
X6711786Y-16250738D01*
X6711786Y-16250738D02*
X6721310Y-16260262D01*
X6721310Y-16260262D02*
X6730833Y-16279309D01*
X6730833Y-16279309D02*
X6730833Y-16326928D01*
X6730833Y-16326928D02*
X6721310Y-16345976D01*
X6721310Y-16345976D02*
X6711786Y-16355500D01*
X6711786Y-16355500D02*
X6692738Y-16365024D01*
X6692738Y-16365024D02*
X6645119Y-16365024D01*
X6645119Y-16365024D02*
X6626072Y-16355500D01*
X6626072Y-16355500D02*
X6616548Y-16345976D01*
X6807024Y-16184071D02*
X6816548Y-16174548D01*
X6816548Y-16174548D02*
X6835595Y-16165024D01*
X6835595Y-16165024D02*
X6883214Y-16165024D01*
X6883214Y-16165024D02*
X6902262Y-16174548D01*
X6902262Y-16174548D02*
X6911786Y-16184071D01*
X6911786Y-16184071D02*
X6921310Y-16203119D01*
X6921310Y-16203119D02*
X6921310Y-16222167D01*
X6921310Y-16222167D02*
X6911786Y-16250738D01*
X6911786Y-16250738D02*
X6797500Y-16365024D01*
X6797500Y-16365024D02*
X6921310Y-16365024D01*
X7045119Y-16165024D02*
X7064167Y-16165024D01*
X7064167Y-16165024D02*
X7083214Y-16174548D01*
X7083214Y-16174548D02*
X7092738Y-16184071D01*
X7092738Y-16184071D02*
X7102262Y-16203119D01*
X7102262Y-16203119D02*
X7111786Y-16241214D01*
X7111786Y-16241214D02*
X7111786Y-16288833D01*
X7111786Y-16288833D02*
X7102262Y-16326928D01*
X7102262Y-16326928D02*
X7092738Y-16345976D01*
X7092738Y-16345976D02*
X7083214Y-16355500D01*
X7083214Y-16355500D02*
X7064167Y-16365024D01*
X7064167Y-16365024D02*
X7045119Y-16365024D01*
X7045119Y-16365024D02*
X7026072Y-16355500D01*
X7026072Y-16355500D02*
X7016548Y-16345976D01*
X7016548Y-16345976D02*
X7007024Y-16326928D01*
X7007024Y-16326928D02*
X6997500Y-16288833D01*
X6997500Y-16288833D02*
X6997500Y-16241214D01*
X6997500Y-16241214D02*
X7007024Y-16203119D01*
X7007024Y-16203119D02*
X7016548Y-16184071D01*
X7016548Y-16184071D02*
X7026072Y-16174548D01*
X7026072Y-16174548D02*
X7045119Y-16165024D01*
X7187976Y-16165024D02*
X7187976Y-16203119D01*
X7264167Y-16165024D02*
X7264167Y-16203119D01*
X7559405Y-16441214D02*
X7549881Y-16431690D01*
X7549881Y-16431690D02*
X7530834Y-16403119D01*
X7530834Y-16403119D02*
X7521310Y-16384071D01*
X7521310Y-16384071D02*
X7511786Y-16355500D01*
X7511786Y-16355500D02*
X7502262Y-16307881D01*
X7502262Y-16307881D02*
X7502262Y-16269786D01*
X7502262Y-16269786D02*
X7511786Y-16222167D01*
X7511786Y-16222167D02*
X7521310Y-16193595D01*
X7521310Y-16193595D02*
X7530834Y-16174548D01*
X7530834Y-16174548D02*
X7549881Y-16145976D01*
X7549881Y-16145976D02*
X7559405Y-16136452D01*
X7616548Y-16165024D02*
X7749881Y-16165024D01*
X7749881Y-16165024D02*
X7664167Y-16365024D01*
X7978453Y-16365024D02*
X7978453Y-16165024D01*
X8064167Y-16365024D02*
X8064167Y-16260262D01*
X8064167Y-16260262D02*
X8054643Y-16241214D01*
X8054643Y-16241214D02*
X8035596Y-16231690D01*
X8035596Y-16231690D02*
X8007024Y-16231690D01*
X8007024Y-16231690D02*
X7987976Y-16241214D01*
X7987976Y-16241214D02*
X7978453Y-16250738D01*
X8187976Y-16365024D02*
X8168929Y-16355500D01*
X8168929Y-16355500D02*
X8159405Y-16345976D01*
X8159405Y-16345976D02*
X8149881Y-16326928D01*
X8149881Y-16326928D02*
X8149881Y-16269786D01*
X8149881Y-16269786D02*
X8159405Y-16250738D01*
X8159405Y-16250738D02*
X8168929Y-16241214D01*
X8168929Y-16241214D02*
X8187976Y-16231690D01*
X8187976Y-16231690D02*
X8216548Y-16231690D01*
X8216548Y-16231690D02*
X8235596Y-16241214D01*
X8235596Y-16241214D02*
X8245119Y-16250738D01*
X8245119Y-16250738D02*
X8254643Y-16269786D01*
X8254643Y-16269786D02*
X8254643Y-16326928D01*
X8254643Y-16326928D02*
X8245119Y-16345976D01*
X8245119Y-16345976D02*
X8235596Y-16355500D01*
X8235596Y-16355500D02*
X8216548Y-16365024D01*
X8216548Y-16365024D02*
X8187976Y-16365024D01*
X8368929Y-16365024D02*
X8349881Y-16355500D01*
X8349881Y-16355500D02*
X8340357Y-16336452D01*
X8340357Y-16336452D02*
X8340357Y-16165024D01*
X8521310Y-16355500D02*
X8502262Y-16365024D01*
X8502262Y-16365024D02*
X8464167Y-16365024D01*
X8464167Y-16365024D02*
X8445119Y-16355500D01*
X8445119Y-16355500D02*
X8435596Y-16336452D01*
X8435596Y-16336452D02*
X8435596Y-16260262D01*
X8435596Y-16260262D02*
X8445119Y-16241214D01*
X8445119Y-16241214D02*
X8464167Y-16231690D01*
X8464167Y-16231690D02*
X8502262Y-16231690D01*
X8502262Y-16231690D02*
X8521310Y-16241214D01*
X8521310Y-16241214D02*
X8530834Y-16260262D01*
X8530834Y-16260262D02*
X8530834Y-16279309D01*
X8530834Y-16279309D02*
X8435596Y-16298357D01*
X8607024Y-16355500D02*
X8626072Y-16365024D01*
X8626072Y-16365024D02*
X8664167Y-16365024D01*
X8664167Y-16365024D02*
X8683215Y-16355500D01*
X8683215Y-16355500D02*
X8692739Y-16336452D01*
X8692739Y-16336452D02*
X8692739Y-16326928D01*
X8692739Y-16326928D02*
X8683215Y-16307881D01*
X8683215Y-16307881D02*
X8664167Y-16298357D01*
X8664167Y-16298357D02*
X8635596Y-16298357D01*
X8635596Y-16298357D02*
X8616548Y-16288833D01*
X8616548Y-16288833D02*
X8607024Y-16269786D01*
X8607024Y-16269786D02*
X8607024Y-16260262D01*
X8607024Y-16260262D02*
X8616548Y-16241214D01*
X8616548Y-16241214D02*
X8635596Y-16231690D01*
X8635596Y-16231690D02*
X8664167Y-16231690D01*
X8664167Y-16231690D02*
X8683215Y-16241214D01*
X8759405Y-16441214D02*
X8768929Y-16431690D01*
X8768929Y-16431690D02*
X8787977Y-16403119D01*
X8787977Y-16403119D02*
X8797500Y-16384071D01*
X8797500Y-16384071D02*
X8807024Y-16355500D01*
X8807024Y-16355500D02*
X8816548Y-16307881D01*
X8816548Y-16307881D02*
X8816548Y-16269786D01*
X8816548Y-16269786D02*
X8807024Y-16222167D01*
X8807024Y-16222167D02*
X8797500Y-16193595D01*
X8797500Y-16193595D02*
X8787977Y-16174548D01*
X8787977Y-16174548D02*
X8768929Y-16145976D01*
X8768929Y-16145976D02*
X8759405Y-16136452D01*
X9121310Y-16441214D02*
X9111786Y-16431690D01*
X9111786Y-16431690D02*
X9092739Y-16403119D01*
X9092739Y-16403119D02*
X9083215Y-16384071D01*
X9083215Y-16384071D02*
X9073691Y-16355500D01*
X9073691Y-16355500D02*
X9064167Y-16307881D01*
X9064167Y-16307881D02*
X9064167Y-16269786D01*
X9064167Y-16269786D02*
X9073691Y-16222167D01*
X9073691Y-16222167D02*
X9083215Y-16193595D01*
X9083215Y-16193595D02*
X9092739Y-16174548D01*
X9092739Y-16174548D02*
X9111786Y-16145976D01*
X9111786Y-16145976D02*
X9121310Y-16136452D01*
X9197500Y-16231690D02*
X9197500Y-16365024D01*
X9197500Y-16250738D02*
X9207024Y-16241214D01*
X9207024Y-16241214D02*
X9226072Y-16231690D01*
X9226072Y-16231690D02*
X9254643Y-16231690D01*
X9254643Y-16231690D02*
X9273691Y-16241214D01*
X9273691Y-16241214D02*
X9283215Y-16260262D01*
X9283215Y-16260262D02*
X9283215Y-16365024D01*
X9407024Y-16365024D02*
X9387977Y-16355500D01*
X9387977Y-16355500D02*
X9378453Y-16345976D01*
X9378453Y-16345976D02*
X9368929Y-16326928D01*
X9368929Y-16326928D02*
X9368929Y-16269786D01*
X9368929Y-16269786D02*
X9378453Y-16250738D01*
X9378453Y-16250738D02*
X9387977Y-16241214D01*
X9387977Y-16241214D02*
X9407024Y-16231690D01*
X9407024Y-16231690D02*
X9435596Y-16231690D01*
X9435596Y-16231690D02*
X9454643Y-16241214D01*
X9454643Y-16241214D02*
X9464167Y-16250738D01*
X9464167Y-16250738D02*
X9473691Y-16269786D01*
X9473691Y-16269786D02*
X9473691Y-16326928D01*
X9473691Y-16326928D02*
X9464167Y-16345976D01*
X9464167Y-16345976D02*
X9454643Y-16355500D01*
X9454643Y-16355500D02*
X9435596Y-16365024D01*
X9435596Y-16365024D02*
X9407024Y-16365024D01*
X9530834Y-16231690D02*
X9607024Y-16231690D01*
X9559405Y-16165024D02*
X9559405Y-16336452D01*
X9559405Y-16336452D02*
X9568929Y-16355500D01*
X9568929Y-16355500D02*
X9587977Y-16365024D01*
X9587977Y-16365024D02*
X9607024Y-16365024D01*
X9826072Y-16231690D02*
X9826072Y-16431690D01*
X9826072Y-16241214D02*
X9845120Y-16231690D01*
X9845120Y-16231690D02*
X9883215Y-16231690D01*
X9883215Y-16231690D02*
X9902262Y-16241214D01*
X9902262Y-16241214D02*
X9911786Y-16250738D01*
X9911786Y-16250738D02*
X9921310Y-16269786D01*
X9921310Y-16269786D02*
X9921310Y-16326928D01*
X9921310Y-16326928D02*
X9911786Y-16345976D01*
X9911786Y-16345976D02*
X9902262Y-16355500D01*
X9902262Y-16355500D02*
X9883215Y-16365024D01*
X9883215Y-16365024D02*
X9845120Y-16365024D01*
X9845120Y-16365024D02*
X9826072Y-16355500D01*
X10035596Y-16365024D02*
X10016548Y-16355500D01*
X10016548Y-16355500D02*
X10007024Y-16336452D01*
X10007024Y-16336452D02*
X10007024Y-16165024D01*
X10197501Y-16365024D02*
X10197501Y-16260262D01*
X10197501Y-16260262D02*
X10187977Y-16241214D01*
X10187977Y-16241214D02*
X10168929Y-16231690D01*
X10168929Y-16231690D02*
X10130834Y-16231690D01*
X10130834Y-16231690D02*
X10111786Y-16241214D01*
X10197501Y-16355500D02*
X10178453Y-16365024D01*
X10178453Y-16365024D02*
X10130834Y-16365024D01*
X10130834Y-16365024D02*
X10111786Y-16355500D01*
X10111786Y-16355500D02*
X10102262Y-16336452D01*
X10102262Y-16336452D02*
X10102262Y-16317405D01*
X10102262Y-16317405D02*
X10111786Y-16298357D01*
X10111786Y-16298357D02*
X10130834Y-16288833D01*
X10130834Y-16288833D02*
X10178453Y-16288833D01*
X10178453Y-16288833D02*
X10197501Y-16279309D01*
X10264167Y-16231690D02*
X10340358Y-16231690D01*
X10292739Y-16165024D02*
X10292739Y-16336452D01*
X10292739Y-16336452D02*
X10302262Y-16355500D01*
X10302262Y-16355500D02*
X10321310Y-16365024D01*
X10321310Y-16365024D02*
X10340358Y-16365024D01*
X10483215Y-16355500D02*
X10464167Y-16365024D01*
X10464167Y-16365024D02*
X10426072Y-16365024D01*
X10426072Y-16365024D02*
X10407024Y-16355500D01*
X10407024Y-16355500D02*
X10397501Y-16336452D01*
X10397501Y-16336452D02*
X10397501Y-16260262D01*
X10397501Y-16260262D02*
X10407024Y-16241214D01*
X10407024Y-16241214D02*
X10426072Y-16231690D01*
X10426072Y-16231690D02*
X10464167Y-16231690D01*
X10464167Y-16231690D02*
X10483215Y-16241214D01*
X10483215Y-16241214D02*
X10492739Y-16260262D01*
X10492739Y-16260262D02*
X10492739Y-16279309D01*
X10492739Y-16279309D02*
X10397501Y-16298357D01*
X10664167Y-16365024D02*
X10664167Y-16165024D01*
X10664167Y-16355500D02*
X10645120Y-16365024D01*
X10645120Y-16365024D02*
X10607024Y-16365024D01*
X10607024Y-16365024D02*
X10587977Y-16355500D01*
X10587977Y-16355500D02*
X10578453Y-16345976D01*
X10578453Y-16345976D02*
X10568929Y-16326928D01*
X10568929Y-16326928D02*
X10568929Y-16269786D01*
X10568929Y-16269786D02*
X10578453Y-16250738D01*
X10578453Y-16250738D02*
X10587977Y-16241214D01*
X10587977Y-16241214D02*
X10607024Y-16231690D01*
X10607024Y-16231690D02*
X10645120Y-16231690D01*
X10645120Y-16231690D02*
X10664167Y-16241214D01*
X10740358Y-16441214D02*
X10749882Y-16431690D01*
X10749882Y-16431690D02*
X10768929Y-16403119D01*
X10768929Y-16403119D02*
X10778453Y-16384071D01*
X10778453Y-16384071D02*
X10787977Y-16355500D01*
X10787977Y-16355500D02*
X10797501Y-16307881D01*
X10797501Y-16307881D02*
X10797501Y-16269786D01*
X10797501Y-16269786D02*
X10787977Y-16222167D01*
X10787977Y-16222167D02*
X10778453Y-16193595D01*
X10778453Y-16193595D02*
X10768929Y-16174548D01*
X10768929Y-16174548D02*
X10749882Y-16145976D01*
X10749882Y-16145976D02*
X10740358Y-16136452D01*
M02*
