%TF.GenerationSoftware,KiCad,Pcbnew,7.0.1*%
%TF.CreationDate,2023-08-05T20:20:55+03:00*%
%TF.ProjectId,Flatbox-Dual,466c6174-626f-4782-9d44-75616c2e6b69,rev?*%
%TF.SameCoordinates,Original*%
%TF.FileFunction,Legend,Bot*%
%TF.FilePolarity,Positive*%
%FSLAX46Y46*%
G04 Gerber Fmt 4.6, Leading zero omitted, Abs format (unit mm)*
G04 Created by KiCad (PCBNEW 7.0.1) date 2023-08-05 20:20:55*
%MOMM*%
%LPD*%
G01*
G04 APERTURE LIST*
G04 Aperture macros list*
%AMRotRect*
0 Rectangle, with rotation*
0 The origin of the aperture is its center*
0 $1 length*
0 $2 width*
0 $3 Rotation angle, in degrees counterclockwise*
0 Add horizontal line*
21,1,$1,$2,0,0,$3*%
G04 Aperture macros list end*
%ADD10C,0.150000*%
%ADD11C,2.032000*%
%ADD12C,1.701800*%
%ADD13C,3.000000*%
%ADD14C,3.429000*%
%ADD15RotRect,2.600000X2.600000X340.000000*%
%ADD16R,2.600000X2.600000*%
%ADD17C,6.400000*%
%ADD18C,2.000000*%
G04 APERTURE END LIST*
D10*
X87859461Y-87188971D02*
X87708933Y-87184858D01*
X87708933Y-87184858D02*
X87485196Y-87103424D01*
X87485196Y-87103424D02*
X87411988Y-87026104D01*
X87411988Y-87026104D02*
X87383528Y-86965070D01*
X87383528Y-86965070D02*
X87371354Y-86859289D01*
X87371354Y-86859289D02*
X87403927Y-86769794D01*
X87403927Y-86769794D02*
X87481248Y-86696586D01*
X87481248Y-86696586D02*
X87542282Y-86668126D01*
X87542282Y-86668126D02*
X87648063Y-86655952D01*
X87648063Y-86655952D02*
X87843339Y-86676351D01*
X87843339Y-86676351D02*
X87949120Y-86664177D01*
X87949120Y-86664177D02*
X88010154Y-86635717D01*
X88010154Y-86635717D02*
X88087475Y-86562509D01*
X88087475Y-86562509D02*
X88120048Y-86473014D01*
X88120048Y-86473014D02*
X88107874Y-86367233D01*
X88107874Y-86367233D02*
X88079413Y-86306199D01*
X88079413Y-86306199D02*
X88006206Y-86228879D01*
X88006206Y-86228879D02*
X87782469Y-86147445D01*
X87782469Y-86147445D02*
X87631941Y-86143332D01*
X87334996Y-85984578D02*
X86769240Y-86842838D01*
X86769240Y-86842838D02*
X86834551Y-86106482D01*
X86834551Y-86106482D02*
X86411262Y-86712544D01*
X86411262Y-86712544D02*
X86529546Y-85691418D01*
X85890746Y-85914990D02*
X85996527Y-85902816D01*
X85996527Y-85902816D02*
X86057561Y-85874356D01*
X86057561Y-85874356D02*
X86134882Y-85801148D01*
X86134882Y-85801148D02*
X86151168Y-85756401D01*
X86151168Y-85756401D02*
X86138994Y-85650620D01*
X86138994Y-85650620D02*
X86110534Y-85589586D01*
X86110534Y-85589586D02*
X86037326Y-85512265D01*
X86037326Y-85512265D02*
X85858337Y-85447118D01*
X85858337Y-85447118D02*
X85752556Y-85459292D01*
X85752556Y-85459292D02*
X85691522Y-85487753D01*
X85691522Y-85487753D02*
X85614201Y-85560961D01*
X85614201Y-85560961D02*
X85597914Y-85605708D01*
X85597914Y-85605708D02*
X85610088Y-85711489D01*
X85610088Y-85711489D02*
X85638549Y-85772523D01*
X85638549Y-85772523D02*
X85711757Y-85849844D01*
X85711757Y-85849844D02*
X85890746Y-85914990D01*
X85890746Y-85914990D02*
X85963954Y-85992311D01*
X85963954Y-85992311D02*
X85992414Y-86053345D01*
X85992414Y-86053345D02*
X86004588Y-86159126D01*
X86004588Y-86159126D02*
X85939441Y-86338115D01*
X85939441Y-86338115D02*
X85862121Y-86411323D01*
X85862121Y-86411323D02*
X85801087Y-86439784D01*
X85801087Y-86439784D02*
X85695306Y-86451958D01*
X85695306Y-86451958D02*
X85516317Y-86386811D01*
X85516317Y-86386811D02*
X85443109Y-86309490D01*
X85443109Y-86309490D02*
X85414648Y-86248456D01*
X85414648Y-86248456D02*
X85402474Y-86142675D01*
X85402474Y-86142675D02*
X85467621Y-85963686D01*
X85467621Y-85963686D02*
X85544942Y-85890478D01*
X85544942Y-85890478D02*
X85605976Y-85862018D01*
X85605976Y-85862018D02*
X85711757Y-85849844D01*
X113445599Y-96498891D02*
X113295071Y-96494778D01*
X113295071Y-96494778D02*
X113071334Y-96413344D01*
X113071334Y-96413344D02*
X112998126Y-96336024D01*
X112998126Y-96336024D02*
X112969666Y-96274990D01*
X112969666Y-96274990D02*
X112957492Y-96169209D01*
X112957492Y-96169209D02*
X112990065Y-96079714D01*
X112990065Y-96079714D02*
X113067386Y-96006506D01*
X113067386Y-96006506D02*
X113128420Y-95978046D01*
X113128420Y-95978046D02*
X113234201Y-95965872D01*
X113234201Y-95965872D02*
X113429477Y-95986271D01*
X113429477Y-95986271D02*
X113535258Y-95974097D01*
X113535258Y-95974097D02*
X113596292Y-95945637D01*
X113596292Y-95945637D02*
X113673613Y-95872429D01*
X113673613Y-95872429D02*
X113706186Y-95782934D01*
X113706186Y-95782934D02*
X113694012Y-95677153D01*
X113694012Y-95677153D02*
X113665551Y-95616119D01*
X113665551Y-95616119D02*
X113592344Y-95538799D01*
X113592344Y-95538799D02*
X113368607Y-95457365D01*
X113368607Y-95457365D02*
X113218079Y-95453252D01*
X112921134Y-95294498D02*
X112355378Y-96152758D01*
X112355378Y-96152758D02*
X112420689Y-95416402D01*
X112420689Y-95416402D02*
X111997400Y-96022464D01*
X111997400Y-96022464D02*
X112115684Y-95001338D01*
X111370938Y-95794451D02*
X111191949Y-95729304D01*
X111191949Y-95729304D02*
X111118741Y-95651984D01*
X111118741Y-95651984D02*
X111090281Y-95590950D01*
X111090281Y-95590950D02*
X111049646Y-95424135D01*
X111049646Y-95424135D02*
X111070046Y-95228859D01*
X111070046Y-95228859D02*
X111200339Y-94870881D01*
X111200339Y-94870881D02*
X111277660Y-94797673D01*
X111277660Y-94797673D02*
X111338694Y-94769212D01*
X111338694Y-94769212D02*
X111444475Y-94757038D01*
X111444475Y-94757038D02*
X111623464Y-94822185D01*
X111623464Y-94822185D02*
X111696672Y-94899506D01*
X111696672Y-94899506D02*
X111725132Y-94960540D01*
X111725132Y-94960540D02*
X111737306Y-95066321D01*
X111737306Y-95066321D02*
X111655873Y-95290057D01*
X111655873Y-95290057D02*
X111578552Y-95363265D01*
X111578552Y-95363265D02*
X111517518Y-95391726D01*
X111517518Y-95391726D02*
X111411737Y-95403899D01*
X111411737Y-95403899D02*
X111232748Y-95338753D01*
X111232748Y-95338753D02*
X111159540Y-95261432D01*
X111159540Y-95261432D02*
X111131080Y-95200398D01*
X111131080Y-95200398D02*
X111118906Y-95094617D01*
X137674523Y-122415000D02*
X137531666Y-122462619D01*
X137531666Y-122462619D02*
X137293571Y-122462619D01*
X137293571Y-122462619D02*
X137198333Y-122415000D01*
X137198333Y-122415000D02*
X137150714Y-122367380D01*
X137150714Y-122367380D02*
X137103095Y-122272142D01*
X137103095Y-122272142D02*
X137103095Y-122176904D01*
X137103095Y-122176904D02*
X137150714Y-122081666D01*
X137150714Y-122081666D02*
X137198333Y-122034047D01*
X137198333Y-122034047D02*
X137293571Y-121986428D01*
X137293571Y-121986428D02*
X137484047Y-121938809D01*
X137484047Y-121938809D02*
X137579285Y-121891190D01*
X137579285Y-121891190D02*
X137626904Y-121843571D01*
X137626904Y-121843571D02*
X137674523Y-121748333D01*
X137674523Y-121748333D02*
X137674523Y-121653095D01*
X137674523Y-121653095D02*
X137626904Y-121557857D01*
X137626904Y-121557857D02*
X137579285Y-121510238D01*
X137579285Y-121510238D02*
X137484047Y-121462619D01*
X137484047Y-121462619D02*
X137245952Y-121462619D01*
X137245952Y-121462619D02*
X137103095Y-121510238D01*
X136769761Y-121462619D02*
X136531666Y-122462619D01*
X136531666Y-122462619D02*
X136341190Y-121748333D01*
X136341190Y-121748333D02*
X136150714Y-122462619D01*
X136150714Y-122462619D02*
X135912619Y-121462619D01*
X135007857Y-122462619D02*
X135579285Y-122462619D01*
X135293571Y-122462619D02*
X135293571Y-121462619D01*
X135293571Y-121462619D02*
X135388809Y-121605476D01*
X135388809Y-121605476D02*
X135484047Y-121700714D01*
X135484047Y-121700714D02*
X135579285Y-121748333D01*
X134436428Y-121891190D02*
X134531666Y-121843571D01*
X134531666Y-121843571D02*
X134579285Y-121795952D01*
X134579285Y-121795952D02*
X134626904Y-121700714D01*
X134626904Y-121700714D02*
X134626904Y-121653095D01*
X134626904Y-121653095D02*
X134579285Y-121557857D01*
X134579285Y-121557857D02*
X134531666Y-121510238D01*
X134531666Y-121510238D02*
X134436428Y-121462619D01*
X134436428Y-121462619D02*
X134245952Y-121462619D01*
X134245952Y-121462619D02*
X134150714Y-121510238D01*
X134150714Y-121510238D02*
X134103095Y-121557857D01*
X134103095Y-121557857D02*
X134055476Y-121653095D01*
X134055476Y-121653095D02*
X134055476Y-121700714D01*
X134055476Y-121700714D02*
X134103095Y-121795952D01*
X134103095Y-121795952D02*
X134150714Y-121843571D01*
X134150714Y-121843571D02*
X134245952Y-121891190D01*
X134245952Y-121891190D02*
X134436428Y-121891190D01*
X134436428Y-121891190D02*
X134531666Y-121938809D01*
X134531666Y-121938809D02*
X134579285Y-121986428D01*
X134579285Y-121986428D02*
X134626904Y-122081666D01*
X134626904Y-122081666D02*
X134626904Y-122272142D01*
X134626904Y-122272142D02*
X134579285Y-122367380D01*
X134579285Y-122367380D02*
X134531666Y-122415000D01*
X134531666Y-122415000D02*
X134436428Y-122462619D01*
X134436428Y-122462619D02*
X134245952Y-122462619D01*
X134245952Y-122462619D02*
X134150714Y-122415000D01*
X134150714Y-122415000D02*
X134103095Y-122367380D01*
X134103095Y-122367380D02*
X134055476Y-122272142D01*
X134055476Y-122272142D02*
X134055476Y-122081666D01*
X134055476Y-122081666D02*
X134103095Y-121986428D01*
X134103095Y-121986428D02*
X134150714Y-121938809D01*
X134150714Y-121938809D02*
X134245952Y-121891190D01*
X155114523Y-57905000D02*
X154971666Y-57952619D01*
X154971666Y-57952619D02*
X154733571Y-57952619D01*
X154733571Y-57952619D02*
X154638333Y-57905000D01*
X154638333Y-57905000D02*
X154590714Y-57857380D01*
X154590714Y-57857380D02*
X154543095Y-57762142D01*
X154543095Y-57762142D02*
X154543095Y-57666904D01*
X154543095Y-57666904D02*
X154590714Y-57571666D01*
X154590714Y-57571666D02*
X154638333Y-57524047D01*
X154638333Y-57524047D02*
X154733571Y-57476428D01*
X154733571Y-57476428D02*
X154924047Y-57428809D01*
X154924047Y-57428809D02*
X155019285Y-57381190D01*
X155019285Y-57381190D02*
X155066904Y-57333571D01*
X155066904Y-57333571D02*
X155114523Y-57238333D01*
X155114523Y-57238333D02*
X155114523Y-57143095D01*
X155114523Y-57143095D02*
X155066904Y-57047857D01*
X155066904Y-57047857D02*
X155019285Y-57000238D01*
X155019285Y-57000238D02*
X154924047Y-56952619D01*
X154924047Y-56952619D02*
X154685952Y-56952619D01*
X154685952Y-56952619D02*
X154543095Y-57000238D01*
X154209761Y-56952619D02*
X153971666Y-57952619D01*
X153971666Y-57952619D02*
X153781190Y-57238333D01*
X153781190Y-57238333D02*
X153590714Y-57952619D01*
X153590714Y-57952619D02*
X153352619Y-56952619D01*
X152447857Y-57952619D02*
X153019285Y-57952619D01*
X152733571Y-57952619D02*
X152733571Y-56952619D01*
X152733571Y-56952619D02*
X152828809Y-57095476D01*
X152828809Y-57095476D02*
X152924047Y-57190714D01*
X152924047Y-57190714D02*
X153019285Y-57238333D01*
X151828809Y-56952619D02*
X151733571Y-56952619D01*
X151733571Y-56952619D02*
X151638333Y-57000238D01*
X151638333Y-57000238D02*
X151590714Y-57047857D01*
X151590714Y-57047857D02*
X151543095Y-57143095D01*
X151543095Y-57143095D02*
X151495476Y-57333571D01*
X151495476Y-57333571D02*
X151495476Y-57571666D01*
X151495476Y-57571666D02*
X151543095Y-57762142D01*
X151543095Y-57762142D02*
X151590714Y-57857380D01*
X151590714Y-57857380D02*
X151638333Y-57905000D01*
X151638333Y-57905000D02*
X151733571Y-57952619D01*
X151733571Y-57952619D02*
X151828809Y-57952619D01*
X151828809Y-57952619D02*
X151924047Y-57905000D01*
X151924047Y-57905000D02*
X151971666Y-57857380D01*
X151971666Y-57857380D02*
X152019285Y-57762142D01*
X152019285Y-57762142D02*
X152066904Y-57571666D01*
X152066904Y-57571666D02*
X152066904Y-57333571D01*
X152066904Y-57333571D02*
X152019285Y-57143095D01*
X152019285Y-57143095D02*
X151971666Y-57047857D01*
X151971666Y-57047857D02*
X151924047Y-57000238D01*
X151924047Y-57000238D02*
X151828809Y-56952619D01*
X181674523Y-46375000D02*
X181531666Y-46422619D01*
X181531666Y-46422619D02*
X181293571Y-46422619D01*
X181293571Y-46422619D02*
X181198333Y-46375000D01*
X181198333Y-46375000D02*
X181150714Y-46327380D01*
X181150714Y-46327380D02*
X181103095Y-46232142D01*
X181103095Y-46232142D02*
X181103095Y-46136904D01*
X181103095Y-46136904D02*
X181150714Y-46041666D01*
X181150714Y-46041666D02*
X181198333Y-45994047D01*
X181198333Y-45994047D02*
X181293571Y-45946428D01*
X181293571Y-45946428D02*
X181484047Y-45898809D01*
X181484047Y-45898809D02*
X181579285Y-45851190D01*
X181579285Y-45851190D02*
X181626904Y-45803571D01*
X181626904Y-45803571D02*
X181674523Y-45708333D01*
X181674523Y-45708333D02*
X181674523Y-45613095D01*
X181674523Y-45613095D02*
X181626904Y-45517857D01*
X181626904Y-45517857D02*
X181579285Y-45470238D01*
X181579285Y-45470238D02*
X181484047Y-45422619D01*
X181484047Y-45422619D02*
X181245952Y-45422619D01*
X181245952Y-45422619D02*
X181103095Y-45470238D01*
X180769761Y-45422619D02*
X180531666Y-46422619D01*
X180531666Y-46422619D02*
X180341190Y-45708333D01*
X180341190Y-45708333D02*
X180150714Y-46422619D01*
X180150714Y-46422619D02*
X179912619Y-45422619D01*
X179007857Y-46422619D02*
X179579285Y-46422619D01*
X179293571Y-46422619D02*
X179293571Y-45422619D01*
X179293571Y-45422619D02*
X179388809Y-45565476D01*
X179388809Y-45565476D02*
X179484047Y-45660714D01*
X179484047Y-45660714D02*
X179579285Y-45708333D01*
X178055476Y-46422619D02*
X178626904Y-46422619D01*
X178341190Y-46422619D02*
X178341190Y-45422619D01*
X178341190Y-45422619D02*
X178436428Y-45565476D01*
X178436428Y-45565476D02*
X178531666Y-45660714D01*
X178531666Y-45660714D02*
X178626904Y-45708333D01*
X210644523Y-46255000D02*
X210501666Y-46302619D01*
X210501666Y-46302619D02*
X210263571Y-46302619D01*
X210263571Y-46302619D02*
X210168333Y-46255000D01*
X210168333Y-46255000D02*
X210120714Y-46207380D01*
X210120714Y-46207380D02*
X210073095Y-46112142D01*
X210073095Y-46112142D02*
X210073095Y-46016904D01*
X210073095Y-46016904D02*
X210120714Y-45921666D01*
X210120714Y-45921666D02*
X210168333Y-45874047D01*
X210168333Y-45874047D02*
X210263571Y-45826428D01*
X210263571Y-45826428D02*
X210454047Y-45778809D01*
X210454047Y-45778809D02*
X210549285Y-45731190D01*
X210549285Y-45731190D02*
X210596904Y-45683571D01*
X210596904Y-45683571D02*
X210644523Y-45588333D01*
X210644523Y-45588333D02*
X210644523Y-45493095D01*
X210644523Y-45493095D02*
X210596904Y-45397857D01*
X210596904Y-45397857D02*
X210549285Y-45350238D01*
X210549285Y-45350238D02*
X210454047Y-45302619D01*
X210454047Y-45302619D02*
X210215952Y-45302619D01*
X210215952Y-45302619D02*
X210073095Y-45350238D01*
X209739761Y-45302619D02*
X209501666Y-46302619D01*
X209501666Y-46302619D02*
X209311190Y-45588333D01*
X209311190Y-45588333D02*
X209120714Y-46302619D01*
X209120714Y-46302619D02*
X208882619Y-45302619D01*
X207977857Y-46302619D02*
X208549285Y-46302619D01*
X208263571Y-46302619D02*
X208263571Y-45302619D01*
X208263571Y-45302619D02*
X208358809Y-45445476D01*
X208358809Y-45445476D02*
X208454047Y-45540714D01*
X208454047Y-45540714D02*
X208549285Y-45588333D01*
X207596904Y-45397857D02*
X207549285Y-45350238D01*
X207549285Y-45350238D02*
X207454047Y-45302619D01*
X207454047Y-45302619D02*
X207215952Y-45302619D01*
X207215952Y-45302619D02*
X207120714Y-45350238D01*
X207120714Y-45350238D02*
X207073095Y-45397857D01*
X207073095Y-45397857D02*
X207025476Y-45493095D01*
X207025476Y-45493095D02*
X207025476Y-45588333D01*
X207025476Y-45588333D02*
X207073095Y-45731190D01*
X207073095Y-45731190D02*
X207644523Y-46302619D01*
X207644523Y-46302619D02*
X207025476Y-46302619D01*
X239614523Y-46495000D02*
X239471666Y-46542619D01*
X239471666Y-46542619D02*
X239233571Y-46542619D01*
X239233571Y-46542619D02*
X239138333Y-46495000D01*
X239138333Y-46495000D02*
X239090714Y-46447380D01*
X239090714Y-46447380D02*
X239043095Y-46352142D01*
X239043095Y-46352142D02*
X239043095Y-46256904D01*
X239043095Y-46256904D02*
X239090714Y-46161666D01*
X239090714Y-46161666D02*
X239138333Y-46114047D01*
X239138333Y-46114047D02*
X239233571Y-46066428D01*
X239233571Y-46066428D02*
X239424047Y-46018809D01*
X239424047Y-46018809D02*
X239519285Y-45971190D01*
X239519285Y-45971190D02*
X239566904Y-45923571D01*
X239566904Y-45923571D02*
X239614523Y-45828333D01*
X239614523Y-45828333D02*
X239614523Y-45733095D01*
X239614523Y-45733095D02*
X239566904Y-45637857D01*
X239566904Y-45637857D02*
X239519285Y-45590238D01*
X239519285Y-45590238D02*
X239424047Y-45542619D01*
X239424047Y-45542619D02*
X239185952Y-45542619D01*
X239185952Y-45542619D02*
X239043095Y-45590238D01*
X238709761Y-45542619D02*
X238471666Y-46542619D01*
X238471666Y-46542619D02*
X238281190Y-45828333D01*
X238281190Y-45828333D02*
X238090714Y-46542619D01*
X238090714Y-46542619D02*
X237852619Y-45542619D01*
X236947857Y-46542619D02*
X237519285Y-46542619D01*
X237233571Y-46542619D02*
X237233571Y-45542619D01*
X237233571Y-45542619D02*
X237328809Y-45685476D01*
X237328809Y-45685476D02*
X237424047Y-45780714D01*
X237424047Y-45780714D02*
X237519285Y-45828333D01*
X236614523Y-45542619D02*
X235995476Y-45542619D01*
X235995476Y-45542619D02*
X236328809Y-45923571D01*
X236328809Y-45923571D02*
X236185952Y-45923571D01*
X236185952Y-45923571D02*
X236090714Y-45971190D01*
X236090714Y-45971190D02*
X236043095Y-46018809D01*
X236043095Y-46018809D02*
X235995476Y-46114047D01*
X235995476Y-46114047D02*
X235995476Y-46352142D01*
X235995476Y-46352142D02*
X236043095Y-46447380D01*
X236043095Y-46447380D02*
X236090714Y-46495000D01*
X236090714Y-46495000D02*
X236185952Y-46542619D01*
X236185952Y-46542619D02*
X236471666Y-46542619D01*
X236471666Y-46542619D02*
X236566904Y-46495000D01*
X236566904Y-46495000D02*
X236614523Y-46447380D01*
X149504523Y-88945000D02*
X149361666Y-88992619D01*
X149361666Y-88992619D02*
X149123571Y-88992619D01*
X149123571Y-88992619D02*
X149028333Y-88945000D01*
X149028333Y-88945000D02*
X148980714Y-88897380D01*
X148980714Y-88897380D02*
X148933095Y-88802142D01*
X148933095Y-88802142D02*
X148933095Y-88706904D01*
X148933095Y-88706904D02*
X148980714Y-88611666D01*
X148980714Y-88611666D02*
X149028333Y-88564047D01*
X149028333Y-88564047D02*
X149123571Y-88516428D01*
X149123571Y-88516428D02*
X149314047Y-88468809D01*
X149314047Y-88468809D02*
X149409285Y-88421190D01*
X149409285Y-88421190D02*
X149456904Y-88373571D01*
X149456904Y-88373571D02*
X149504523Y-88278333D01*
X149504523Y-88278333D02*
X149504523Y-88183095D01*
X149504523Y-88183095D02*
X149456904Y-88087857D01*
X149456904Y-88087857D02*
X149409285Y-88040238D01*
X149409285Y-88040238D02*
X149314047Y-87992619D01*
X149314047Y-87992619D02*
X149075952Y-87992619D01*
X149075952Y-87992619D02*
X148933095Y-88040238D01*
X148599761Y-87992619D02*
X148361666Y-88992619D01*
X148361666Y-88992619D02*
X148171190Y-88278333D01*
X148171190Y-88278333D02*
X147980714Y-88992619D01*
X147980714Y-88992619D02*
X147742619Y-87992619D01*
X146837857Y-88992619D02*
X147409285Y-88992619D01*
X147123571Y-88992619D02*
X147123571Y-87992619D01*
X147123571Y-87992619D02*
X147218809Y-88135476D01*
X147218809Y-88135476D02*
X147314047Y-88230714D01*
X147314047Y-88230714D02*
X147409285Y-88278333D01*
X145980714Y-88325952D02*
X145980714Y-88992619D01*
X146218809Y-87945000D02*
X146456904Y-88659285D01*
X146456904Y-88659285D02*
X145837857Y-88659285D01*
X176114523Y-77835000D02*
X175971666Y-77882619D01*
X175971666Y-77882619D02*
X175733571Y-77882619D01*
X175733571Y-77882619D02*
X175638333Y-77835000D01*
X175638333Y-77835000D02*
X175590714Y-77787380D01*
X175590714Y-77787380D02*
X175543095Y-77692142D01*
X175543095Y-77692142D02*
X175543095Y-77596904D01*
X175543095Y-77596904D02*
X175590714Y-77501666D01*
X175590714Y-77501666D02*
X175638333Y-77454047D01*
X175638333Y-77454047D02*
X175733571Y-77406428D01*
X175733571Y-77406428D02*
X175924047Y-77358809D01*
X175924047Y-77358809D02*
X176019285Y-77311190D01*
X176019285Y-77311190D02*
X176066904Y-77263571D01*
X176066904Y-77263571D02*
X176114523Y-77168333D01*
X176114523Y-77168333D02*
X176114523Y-77073095D01*
X176114523Y-77073095D02*
X176066904Y-76977857D01*
X176066904Y-76977857D02*
X176019285Y-76930238D01*
X176019285Y-76930238D02*
X175924047Y-76882619D01*
X175924047Y-76882619D02*
X175685952Y-76882619D01*
X175685952Y-76882619D02*
X175543095Y-76930238D01*
X175209761Y-76882619D02*
X174971666Y-77882619D01*
X174971666Y-77882619D02*
X174781190Y-77168333D01*
X174781190Y-77168333D02*
X174590714Y-77882619D01*
X174590714Y-77882619D02*
X174352619Y-76882619D01*
X173447857Y-77882619D02*
X174019285Y-77882619D01*
X173733571Y-77882619D02*
X173733571Y-76882619D01*
X173733571Y-76882619D02*
X173828809Y-77025476D01*
X173828809Y-77025476D02*
X173924047Y-77120714D01*
X173924047Y-77120714D02*
X174019285Y-77168333D01*
X172543095Y-76882619D02*
X173019285Y-76882619D01*
X173019285Y-76882619D02*
X173066904Y-77358809D01*
X173066904Y-77358809D02*
X173019285Y-77311190D01*
X173019285Y-77311190D02*
X172924047Y-77263571D01*
X172924047Y-77263571D02*
X172685952Y-77263571D01*
X172685952Y-77263571D02*
X172590714Y-77311190D01*
X172590714Y-77311190D02*
X172543095Y-77358809D01*
X172543095Y-77358809D02*
X172495476Y-77454047D01*
X172495476Y-77454047D02*
X172495476Y-77692142D01*
X172495476Y-77692142D02*
X172543095Y-77787380D01*
X172543095Y-77787380D02*
X172590714Y-77835000D01*
X172590714Y-77835000D02*
X172685952Y-77882619D01*
X172685952Y-77882619D02*
X172924047Y-77882619D01*
X172924047Y-77882619D02*
X173019285Y-77835000D01*
X173019285Y-77835000D02*
X173066904Y-77787380D01*
X204964523Y-77835000D02*
X204821666Y-77882619D01*
X204821666Y-77882619D02*
X204583571Y-77882619D01*
X204583571Y-77882619D02*
X204488333Y-77835000D01*
X204488333Y-77835000D02*
X204440714Y-77787380D01*
X204440714Y-77787380D02*
X204393095Y-77692142D01*
X204393095Y-77692142D02*
X204393095Y-77596904D01*
X204393095Y-77596904D02*
X204440714Y-77501666D01*
X204440714Y-77501666D02*
X204488333Y-77454047D01*
X204488333Y-77454047D02*
X204583571Y-77406428D01*
X204583571Y-77406428D02*
X204774047Y-77358809D01*
X204774047Y-77358809D02*
X204869285Y-77311190D01*
X204869285Y-77311190D02*
X204916904Y-77263571D01*
X204916904Y-77263571D02*
X204964523Y-77168333D01*
X204964523Y-77168333D02*
X204964523Y-77073095D01*
X204964523Y-77073095D02*
X204916904Y-76977857D01*
X204916904Y-76977857D02*
X204869285Y-76930238D01*
X204869285Y-76930238D02*
X204774047Y-76882619D01*
X204774047Y-76882619D02*
X204535952Y-76882619D01*
X204535952Y-76882619D02*
X204393095Y-76930238D01*
X204059761Y-76882619D02*
X203821666Y-77882619D01*
X203821666Y-77882619D02*
X203631190Y-77168333D01*
X203631190Y-77168333D02*
X203440714Y-77882619D01*
X203440714Y-77882619D02*
X203202619Y-76882619D01*
X202297857Y-77882619D02*
X202869285Y-77882619D01*
X202583571Y-77882619D02*
X202583571Y-76882619D01*
X202583571Y-76882619D02*
X202678809Y-77025476D01*
X202678809Y-77025476D02*
X202774047Y-77120714D01*
X202774047Y-77120714D02*
X202869285Y-77168333D01*
X201440714Y-76882619D02*
X201631190Y-76882619D01*
X201631190Y-76882619D02*
X201726428Y-76930238D01*
X201726428Y-76930238D02*
X201774047Y-76977857D01*
X201774047Y-76977857D02*
X201869285Y-77120714D01*
X201869285Y-77120714D02*
X201916904Y-77311190D01*
X201916904Y-77311190D02*
X201916904Y-77692142D01*
X201916904Y-77692142D02*
X201869285Y-77787380D01*
X201869285Y-77787380D02*
X201821666Y-77835000D01*
X201821666Y-77835000D02*
X201726428Y-77882619D01*
X201726428Y-77882619D02*
X201535952Y-77882619D01*
X201535952Y-77882619D02*
X201440714Y-77835000D01*
X201440714Y-77835000D02*
X201393095Y-77787380D01*
X201393095Y-77787380D02*
X201345476Y-77692142D01*
X201345476Y-77692142D02*
X201345476Y-77454047D01*
X201345476Y-77454047D02*
X201393095Y-77358809D01*
X201393095Y-77358809D02*
X201440714Y-77311190D01*
X201440714Y-77311190D02*
X201535952Y-77263571D01*
X201535952Y-77263571D02*
X201726428Y-77263571D01*
X201726428Y-77263571D02*
X201821666Y-77311190D01*
X201821666Y-77311190D02*
X201869285Y-77358809D01*
X201869285Y-77358809D02*
X201916904Y-77454047D01*
X234174523Y-77835000D02*
X234031666Y-77882619D01*
X234031666Y-77882619D02*
X233793571Y-77882619D01*
X233793571Y-77882619D02*
X233698333Y-77835000D01*
X233698333Y-77835000D02*
X233650714Y-77787380D01*
X233650714Y-77787380D02*
X233603095Y-77692142D01*
X233603095Y-77692142D02*
X233603095Y-77596904D01*
X233603095Y-77596904D02*
X233650714Y-77501666D01*
X233650714Y-77501666D02*
X233698333Y-77454047D01*
X233698333Y-77454047D02*
X233793571Y-77406428D01*
X233793571Y-77406428D02*
X233984047Y-77358809D01*
X233984047Y-77358809D02*
X234079285Y-77311190D01*
X234079285Y-77311190D02*
X234126904Y-77263571D01*
X234126904Y-77263571D02*
X234174523Y-77168333D01*
X234174523Y-77168333D02*
X234174523Y-77073095D01*
X234174523Y-77073095D02*
X234126904Y-76977857D01*
X234126904Y-76977857D02*
X234079285Y-76930238D01*
X234079285Y-76930238D02*
X233984047Y-76882619D01*
X233984047Y-76882619D02*
X233745952Y-76882619D01*
X233745952Y-76882619D02*
X233603095Y-76930238D01*
X233269761Y-76882619D02*
X233031666Y-77882619D01*
X233031666Y-77882619D02*
X232841190Y-77168333D01*
X232841190Y-77168333D02*
X232650714Y-77882619D01*
X232650714Y-77882619D02*
X232412619Y-76882619D01*
X231507857Y-77882619D02*
X232079285Y-77882619D01*
X231793571Y-77882619D02*
X231793571Y-76882619D01*
X231793571Y-76882619D02*
X231888809Y-77025476D01*
X231888809Y-77025476D02*
X231984047Y-77120714D01*
X231984047Y-77120714D02*
X232079285Y-77168333D01*
X231174523Y-76882619D02*
X230507857Y-76882619D01*
X230507857Y-76882619D02*
X230936428Y-77882619D01*
X62279232Y-77876667D02*
X62128704Y-77872554D01*
X62128704Y-77872554D02*
X61904967Y-77791120D01*
X61904967Y-77791120D02*
X61831759Y-77713800D01*
X61831759Y-77713800D02*
X61803299Y-77652766D01*
X61803299Y-77652766D02*
X61791125Y-77546985D01*
X61791125Y-77546985D02*
X61823698Y-77457490D01*
X61823698Y-77457490D02*
X61901019Y-77384282D01*
X61901019Y-77384282D02*
X61962053Y-77355822D01*
X61962053Y-77355822D02*
X62067834Y-77343648D01*
X62067834Y-77343648D02*
X62263110Y-77364047D01*
X62263110Y-77364047D02*
X62368891Y-77351873D01*
X62368891Y-77351873D02*
X62429925Y-77323413D01*
X62429925Y-77323413D02*
X62507246Y-77250205D01*
X62507246Y-77250205D02*
X62539819Y-77160710D01*
X62539819Y-77160710D02*
X62527645Y-77054929D01*
X62527645Y-77054929D02*
X62499184Y-76993895D01*
X62499184Y-76993895D02*
X62425977Y-76916575D01*
X62425977Y-76916575D02*
X62202240Y-76835141D01*
X62202240Y-76835141D02*
X62051712Y-76831028D01*
X61754767Y-76672274D02*
X61189011Y-77530534D01*
X61189011Y-77530534D02*
X61254322Y-76794178D01*
X61254322Y-76794178D02*
X60831033Y-77400240D01*
X60831033Y-77400240D02*
X60949317Y-76379114D01*
X60680833Y-76281394D02*
X60054371Y-76053381D01*
X60054371Y-76053381D02*
X60115077Y-77139654D01*
X97153275Y-62067577D02*
X97002747Y-62063464D01*
X97002747Y-62063464D02*
X96779010Y-61982030D01*
X96779010Y-61982030D02*
X96705803Y-61904710D01*
X96705803Y-61904710D02*
X96677342Y-61843676D01*
X96677342Y-61843676D02*
X96665168Y-61737895D01*
X96665168Y-61737895D02*
X96697741Y-61648400D01*
X96697741Y-61648400D02*
X96775062Y-61575192D01*
X96775062Y-61575192D02*
X96836096Y-61546732D01*
X96836096Y-61546732D02*
X96941877Y-61534558D01*
X96941877Y-61534558D02*
X97137153Y-61554957D01*
X97137153Y-61554957D02*
X97242934Y-61542783D01*
X97242934Y-61542783D02*
X97303968Y-61514323D01*
X97303968Y-61514323D02*
X97381289Y-61441115D01*
X97381289Y-61441115D02*
X97413862Y-61351620D01*
X97413862Y-61351620D02*
X97401688Y-61245839D01*
X97401688Y-61245839D02*
X97373228Y-61184805D01*
X97373228Y-61184805D02*
X97300020Y-61107484D01*
X97300020Y-61107484D02*
X97076283Y-61026051D01*
X97076283Y-61026051D02*
X96925755Y-61021938D01*
X96628811Y-60863184D02*
X96063054Y-61721444D01*
X96063054Y-61721444D02*
X96128365Y-60985088D01*
X96128365Y-60985088D02*
X95705076Y-61591150D01*
X95705076Y-61591150D02*
X95823360Y-60570024D01*
X94631142Y-61200270D02*
X95168109Y-61395710D01*
X94899625Y-61297990D02*
X95241645Y-60358298D01*
X95241645Y-60358298D02*
X95282280Y-60525113D01*
X95282280Y-60525113D02*
X95339201Y-60647181D01*
X95339201Y-60647181D02*
X95412409Y-60724501D01*
X94183669Y-61037403D02*
X94004680Y-60972257D01*
X94004680Y-60972257D02*
X93931472Y-60894936D01*
X93931472Y-60894936D02*
X93903011Y-60833902D01*
X93903011Y-60833902D02*
X93862377Y-60667087D01*
X93862377Y-60667087D02*
X93882776Y-60471811D01*
X93882776Y-60471811D02*
X94013070Y-60113833D01*
X94013070Y-60113833D02*
X94090390Y-60040625D01*
X94090390Y-60040625D02*
X94151424Y-60012165D01*
X94151424Y-60012165D02*
X94257206Y-59999991D01*
X94257206Y-59999991D02*
X94436195Y-60065137D01*
X94436195Y-60065137D02*
X94509402Y-60142458D01*
X94509402Y-60142458D02*
X94537863Y-60203492D01*
X94537863Y-60203492D02*
X94550037Y-60309273D01*
X94550037Y-60309273D02*
X94468604Y-60533009D01*
X94468604Y-60533009D02*
X94391283Y-60606217D01*
X94391283Y-60606217D02*
X94330249Y-60634678D01*
X94330249Y-60634678D02*
X94224468Y-60646852D01*
X94224468Y-60646852D02*
X94045479Y-60581705D01*
X94045479Y-60581705D02*
X93972271Y-60504385D01*
X93972271Y-60504385D02*
X93943810Y-60443351D01*
X93943810Y-60443351D02*
X93931636Y-60337569D01*
X80719520Y-84063477D02*
X81360376Y-83764640D01*
X79522449Y-87352401D02*
X79821286Y-87993257D01*
X81360376Y-83764640D02*
X84179454Y-84790701D01*
X79821286Y-87993257D02*
X82170517Y-88848307D01*
X84179454Y-84790701D02*
X84478290Y-85431557D01*
X84136270Y-86371250D02*
X84478290Y-85431557D01*
X83067026Y-90770877D02*
X82827612Y-91428661D01*
X82827612Y-91428661D02*
X87056229Y-92967752D01*
X88663723Y-88551197D02*
X84435106Y-87012106D01*
X88458511Y-89115012D02*
X88663723Y-88551197D01*
X87056229Y-92967752D02*
X87227239Y-92497906D01*
X83067025Y-90770877D02*
G75*
G03*
X82170517Y-88848308I-1409538J513031D01*
G01*
X84136271Y-86371250D02*
G75*
G03*
X84435106Y-87012106I469846J-171010D01*
G01*
X106305658Y-93373397D02*
X106946514Y-93074560D01*
X105108587Y-96662321D02*
X105407424Y-97303177D01*
X106946514Y-93074560D02*
X109765592Y-94100621D01*
X105407424Y-97303177D02*
X107756655Y-98158227D01*
X109765592Y-94100621D02*
X110064428Y-94741477D01*
X109722408Y-95681170D02*
X110064428Y-94741477D01*
X108653164Y-100080797D02*
X108413750Y-100738581D01*
X108413750Y-100738581D02*
X112642367Y-102277672D01*
X114249861Y-97861117D02*
X110021244Y-96322026D01*
X114044649Y-98424932D02*
X114249861Y-97861117D01*
X112642367Y-102277672D02*
X112813377Y-101807826D01*
X108653163Y-100080797D02*
G75*
G03*
X107756655Y-98158228I-1409538J513031D01*
G01*
X109722409Y-95681170D02*
G75*
G03*
X110021244Y-96322026I469846J-171010D01*
G01*
X129420000Y-121920000D02*
X129920000Y-121420000D01*
X129420000Y-125420000D02*
X129920000Y-125920000D01*
X129920000Y-121420000D02*
X132920000Y-121420000D01*
X129920000Y-125920000D02*
X132420000Y-125920000D01*
X132920000Y-121420000D02*
X133420000Y-121920000D01*
X133420000Y-122920000D02*
X133420000Y-121920000D01*
X133920000Y-127420000D02*
X133920000Y-128120000D01*
X133920000Y-128120000D02*
X138420000Y-128120000D01*
X138420000Y-123420000D02*
X133920000Y-123420000D01*
X138420000Y-124020000D02*
X138420000Y-123420000D01*
X138420000Y-128120000D02*
X138420000Y-127620000D01*
X133920000Y-127420000D02*
G75*
G03*
X132420000Y-125920000I-1500000J0D01*
G01*
X133420000Y-122920000D02*
G75*
G03*
X133920000Y-123420000I500000J0D01*
G01*
X146860000Y-57410000D02*
X147360000Y-56910000D01*
X146860000Y-60910000D02*
X147360000Y-61410000D01*
X147360000Y-56910000D02*
X150360000Y-56910000D01*
X147360000Y-61410000D02*
X149860000Y-61410000D01*
X150360000Y-56910000D02*
X150860000Y-57410000D01*
X150860000Y-58410000D02*
X150860000Y-57410000D01*
X151360000Y-62910000D02*
X151360000Y-63610000D01*
X151360000Y-63610000D02*
X155860000Y-63610000D01*
X155860000Y-58910000D02*
X151360000Y-58910000D01*
X155860000Y-59510000D02*
X155860000Y-58910000D01*
X155860000Y-63610000D02*
X155860000Y-63110000D01*
X151360000Y-62910000D02*
G75*
G03*
X149860000Y-61410000I-1500000J0D01*
G01*
X150860000Y-58410000D02*
G75*
G03*
X151360000Y-58910000I500000J0D01*
G01*
X173420000Y-45880000D02*
X173920000Y-45380000D01*
X173420000Y-49380000D02*
X173920000Y-49880000D01*
X173920000Y-45380000D02*
X176920000Y-45380000D01*
X173920000Y-49880000D02*
X176420000Y-49880000D01*
X176920000Y-45380000D02*
X177420000Y-45880000D01*
X177420000Y-46880000D02*
X177420000Y-45880000D01*
X177920000Y-51380000D02*
X177920000Y-52080000D01*
X177920000Y-52080000D02*
X182420000Y-52080000D01*
X182420000Y-47380000D02*
X177920000Y-47380000D01*
X182420000Y-47980000D02*
X182420000Y-47380000D01*
X182420000Y-52080000D02*
X182420000Y-51580000D01*
X177920000Y-51380000D02*
G75*
G03*
X176420000Y-49880000I-1500000J0D01*
G01*
X177420000Y-46880000D02*
G75*
G03*
X177920000Y-47380000I500000J0D01*
G01*
X202390000Y-45760000D02*
X202890000Y-45260000D01*
X202390000Y-49260000D02*
X202890000Y-49760000D01*
X202890000Y-45260000D02*
X205890000Y-45260000D01*
X202890000Y-49760000D02*
X205390000Y-49760000D01*
X205890000Y-45260000D02*
X206390000Y-45760000D01*
X206390000Y-46760000D02*
X206390000Y-45760000D01*
X206890000Y-51260000D02*
X206890000Y-51960000D01*
X206890000Y-51960000D02*
X211390000Y-51960000D01*
X211390000Y-47260000D02*
X206890000Y-47260000D01*
X211390000Y-47860000D02*
X211390000Y-47260000D01*
X211390000Y-51960000D02*
X211390000Y-51460000D01*
X206890000Y-51260000D02*
G75*
G03*
X205390000Y-49760000I-1500000J0D01*
G01*
X206390000Y-46760000D02*
G75*
G03*
X206890000Y-47260000I500000J0D01*
G01*
X231360000Y-46000000D02*
X231860000Y-45500000D01*
X231360000Y-49500000D02*
X231860000Y-50000000D01*
X231860000Y-45500000D02*
X234860000Y-45500000D01*
X231860000Y-50000000D02*
X234360000Y-50000000D01*
X234860000Y-45500000D02*
X235360000Y-46000000D01*
X235360000Y-47000000D02*
X235360000Y-46000000D01*
X235860000Y-51500000D02*
X235860000Y-52200000D01*
X235860000Y-52200000D02*
X240360000Y-52200000D01*
X240360000Y-47500000D02*
X235860000Y-47500000D01*
X240360000Y-48100000D02*
X240360000Y-47500000D01*
X240360000Y-52200000D02*
X240360000Y-51700000D01*
X235860000Y-51500000D02*
G75*
G03*
X234360000Y-50000000I-1500000J0D01*
G01*
X235360000Y-47000000D02*
G75*
G03*
X235860000Y-47500000I500000J0D01*
G01*
X141250000Y-88450000D02*
X141750000Y-87950000D01*
X141250000Y-91950000D02*
X141750000Y-92450000D01*
X141750000Y-87950000D02*
X144750000Y-87950000D01*
X141750000Y-92450000D02*
X144250000Y-92450000D01*
X144750000Y-87950000D02*
X145250000Y-88450000D01*
X145250000Y-89450000D02*
X145250000Y-88450000D01*
X145750000Y-93950000D02*
X145750000Y-94650000D01*
X145750000Y-94650000D02*
X150250000Y-94650000D01*
X150250000Y-89950000D02*
X145750000Y-89950000D01*
X150250000Y-90550000D02*
X150250000Y-89950000D01*
X150250000Y-94650000D02*
X150250000Y-94150000D01*
X145750000Y-93950000D02*
G75*
G03*
X144250000Y-92450000I-1500000J0D01*
G01*
X145250000Y-89450000D02*
G75*
G03*
X145750000Y-89950000I500000J0D01*
G01*
X167860000Y-77340000D02*
X168360000Y-76840000D01*
X167860000Y-80840000D02*
X168360000Y-81340000D01*
X168360000Y-76840000D02*
X171360000Y-76840000D01*
X168360000Y-81340000D02*
X170860000Y-81340000D01*
X171360000Y-76840000D02*
X171860000Y-77340000D01*
X171860000Y-78340000D02*
X171860000Y-77340000D01*
X172360000Y-82840000D02*
X172360000Y-83540000D01*
X172360000Y-83540000D02*
X176860000Y-83540000D01*
X176860000Y-78840000D02*
X172360000Y-78840000D01*
X176860000Y-79440000D02*
X176860000Y-78840000D01*
X176860000Y-83540000D02*
X176860000Y-83040000D01*
X172360000Y-82840000D02*
G75*
G03*
X170860000Y-81340000I-1500000J0D01*
G01*
X171860000Y-78340000D02*
G75*
G03*
X172360000Y-78840000I500000J0D01*
G01*
X196710000Y-77340000D02*
X197210000Y-76840000D01*
X196710000Y-80840000D02*
X197210000Y-81340000D01*
X197210000Y-76840000D02*
X200210000Y-76840000D01*
X197210000Y-81340000D02*
X199710000Y-81340000D01*
X200210000Y-76840000D02*
X200710000Y-77340000D01*
X200710000Y-78340000D02*
X200710000Y-77340000D01*
X201210000Y-82840000D02*
X201210000Y-83540000D01*
X201210000Y-83540000D02*
X205710000Y-83540000D01*
X205710000Y-78840000D02*
X201210000Y-78840000D01*
X205710000Y-79440000D02*
X205710000Y-78840000D01*
X205710000Y-83540000D02*
X205710000Y-83040000D01*
X201210000Y-82840000D02*
G75*
G03*
X199710000Y-81340000I-1500000J0D01*
G01*
X200710000Y-78340000D02*
G75*
G03*
X201210000Y-78840000I500000J0D01*
G01*
X225920000Y-77340000D02*
X226420000Y-76840000D01*
X225920000Y-80840000D02*
X226420000Y-81340000D01*
X226420000Y-76840000D02*
X229420000Y-76840000D01*
X226420000Y-81340000D02*
X228920000Y-81340000D01*
X229420000Y-76840000D02*
X229920000Y-77340000D01*
X229920000Y-78340000D02*
X229920000Y-77340000D01*
X230420000Y-82840000D02*
X230420000Y-83540000D01*
X230420000Y-83540000D02*
X234920000Y-83540000D01*
X234920000Y-78840000D02*
X230420000Y-78840000D01*
X234920000Y-79440000D02*
X234920000Y-78840000D01*
X234920000Y-83540000D02*
X234920000Y-83040000D01*
X230420000Y-82840000D02*
G75*
G03*
X228920000Y-81340000I-1500000J0D01*
G01*
X229920000Y-78340000D02*
G75*
G03*
X230420000Y-78840000I500000J0D01*
G01*
X55139291Y-74751173D02*
X55780147Y-74452336D01*
X53942220Y-78040097D02*
X54241057Y-78680953D01*
X55780147Y-74452336D02*
X58599225Y-75478397D01*
X54241057Y-78680953D02*
X56590288Y-79536003D01*
X58599225Y-75478397D02*
X58898061Y-76119253D01*
X58556041Y-77058946D02*
X58898061Y-76119253D01*
X57486797Y-81458573D02*
X57247383Y-82116357D01*
X57247383Y-82116357D02*
X61476000Y-83655448D01*
X63083494Y-79238893D02*
X58854877Y-77699802D01*
X62878282Y-79802708D02*
X63083494Y-79238893D01*
X61476000Y-83655448D02*
X61647010Y-83185602D01*
X57486796Y-81458573D02*
G75*
G03*
X56590288Y-79536004I-1409538J513031D01*
G01*
X58556042Y-77058946D02*
G75*
G03*
X58854877Y-77699802I469846J-171010D01*
G01*
X89565861Y-58779216D02*
X90206717Y-58480379D01*
X88368790Y-62068140D02*
X88667627Y-62708996D01*
X90206717Y-58480379D02*
X93025795Y-59506440D01*
X88667627Y-62708996D02*
X91016858Y-63564046D01*
X93025795Y-59506440D02*
X93324631Y-60147296D01*
X92982611Y-61086989D02*
X93324631Y-60147296D01*
X91913367Y-65486616D02*
X91673953Y-66144400D01*
X91673953Y-66144400D02*
X95902570Y-67683491D01*
X97510064Y-63266936D02*
X93281447Y-61727845D01*
X97304852Y-63830751D02*
X97510064Y-63266936D01*
X95902570Y-67683491D02*
X96073580Y-67213645D01*
X91913366Y-65486616D02*
G75*
G03*
X91016858Y-63564047I-1409538J513031D01*
G01*
X92982612Y-61086989D02*
G75*
G03*
X93281447Y-61727845I469846J-171010D01*
G01*
D11*
X86793772Y-72243075D03*
%LPC*%
D12*
X74797041Y-90102039D03*
D13*
X82000370Y-86391979D03*
D14*
X79965350Y-91983150D03*
D13*
X85946389Y-90169403D03*
D12*
X85133659Y-93864261D03*
D15*
X78922877Y-85271863D03*
D11*
X77947431Y-97527336D03*
X73967210Y-93843881D03*
D15*
X89023882Y-91289519D03*
D12*
X100383179Y-99411959D03*
D13*
X107586508Y-95701899D03*
D14*
X105551488Y-101293070D03*
D13*
X111532527Y-99479323D03*
D12*
X110719797Y-103174181D03*
D15*
X104509015Y-94581783D03*
D11*
X103533569Y-106837256D03*
X99553348Y-103153801D03*
D15*
X114610020Y-100599439D03*
D12*
X125920000Y-129620000D03*
D13*
X131420000Y-123670000D03*
D14*
X131420000Y-129620000D03*
D13*
X136420000Y-125870000D03*
D12*
X136920000Y-129620000D03*
D16*
X128145000Y-123670000D03*
D11*
X131420000Y-135520000D03*
X126420000Y-133420000D03*
D16*
X139695000Y-125870000D03*
D12*
X143360000Y-65110000D03*
D13*
X148860000Y-59160000D03*
D14*
X148860000Y-65110000D03*
D13*
X153860000Y-61360000D03*
D12*
X154360000Y-65110000D03*
D16*
X145585000Y-59160000D03*
D11*
X148860000Y-71010000D03*
X143860000Y-68910000D03*
D16*
X157135000Y-61360000D03*
D12*
X169920000Y-53580000D03*
D13*
X175420000Y-47630000D03*
D14*
X175420000Y-53580000D03*
D13*
X180420000Y-49830000D03*
D12*
X180920000Y-53580000D03*
D16*
X172145000Y-47630000D03*
D11*
X175420000Y-59480000D03*
X170420000Y-57380000D03*
D16*
X183695000Y-49830000D03*
D12*
X198890000Y-53460000D03*
D13*
X204390000Y-47510000D03*
D14*
X204390000Y-53460000D03*
D13*
X209390000Y-49710000D03*
D12*
X209890000Y-53460000D03*
D16*
X201115000Y-47510000D03*
D11*
X204390000Y-59360000D03*
X199390000Y-57260000D03*
D16*
X212665000Y-49710000D03*
D12*
X227860000Y-53700000D03*
D13*
X233360000Y-47750000D03*
D14*
X233360000Y-53700000D03*
D13*
X238360000Y-49950000D03*
D12*
X238860000Y-53700000D03*
D16*
X230085000Y-47750000D03*
D11*
X233360000Y-59600000D03*
X228360000Y-57500000D03*
D16*
X241635000Y-49950000D03*
D12*
X137750000Y-96150000D03*
D13*
X143250000Y-90200000D03*
D14*
X143250000Y-96150000D03*
D13*
X148250000Y-92400000D03*
D12*
X148750000Y-96150000D03*
D16*
X139975000Y-90200000D03*
D11*
X143250000Y-102050000D03*
X138250000Y-99950000D03*
D16*
X151525000Y-92400000D03*
D12*
X164360000Y-85040000D03*
D13*
X169860000Y-79090000D03*
D14*
X169860000Y-85040000D03*
D13*
X174860000Y-81290000D03*
D12*
X175360000Y-85040000D03*
D16*
X166585000Y-79090000D03*
D11*
X169860000Y-90940000D03*
X164860000Y-88840000D03*
D16*
X178135000Y-81290000D03*
D12*
X193210000Y-85040000D03*
D13*
X198710000Y-79090000D03*
D14*
X198710000Y-85040000D03*
D13*
X203710000Y-81290000D03*
D12*
X204210000Y-85040000D03*
D16*
X195435000Y-79090000D03*
D11*
X198710000Y-90940000D03*
X193710000Y-88840000D03*
D16*
X206985000Y-81290000D03*
D12*
X222420000Y-85040000D03*
D13*
X227920000Y-79090000D03*
D14*
X227920000Y-85040000D03*
D13*
X232920000Y-81290000D03*
D12*
X233420000Y-85040000D03*
D16*
X224645000Y-79090000D03*
D11*
X227920000Y-90940000D03*
X222920000Y-88840000D03*
D16*
X236195000Y-81290000D03*
D17*
X47000000Y-37000000D03*
X47000000Y-143000000D03*
X243000000Y-143000000D03*
X243000000Y-37000000D03*
D12*
X49216812Y-80789735D03*
D13*
X56420141Y-77079675D03*
D14*
X54385121Y-82670846D03*
D13*
X60366160Y-80857099D03*
D12*
X59553430Y-84551957D03*
D15*
X53342648Y-75959559D03*
D11*
X52367202Y-88215032D03*
X48386981Y-84531577D03*
D15*
X63443653Y-81977215D03*
D17*
X150000000Y-37000000D03*
D18*
X88500000Y-43000000D03*
X88500000Y-36500000D03*
X93000000Y-43000000D03*
X93000000Y-36500000D03*
X65500000Y-43000000D03*
X65500000Y-36500000D03*
X70000000Y-43000000D03*
X70000000Y-36500000D03*
X98500000Y-43000000D03*
X98500000Y-36500000D03*
X103000000Y-43000000D03*
X103000000Y-36500000D03*
X55500000Y-43000000D03*
X55500000Y-36500000D03*
X60000000Y-43000000D03*
X60000000Y-36500000D03*
X75500000Y-43000000D03*
X75500000Y-36500000D03*
X80000000Y-43000000D03*
X80000000Y-36500000D03*
X108500000Y-43000000D03*
X108500000Y-36500000D03*
X113000000Y-43000000D03*
X113000000Y-36500000D03*
D17*
X133500000Y-78000000D03*
X150000000Y-143000000D03*
D12*
X83643382Y-64817778D03*
D13*
X90846711Y-61107718D03*
D14*
X88811691Y-66698889D03*
D13*
X94792730Y-64885142D03*
D12*
X93980000Y-68580000D03*
D15*
X87769218Y-59987602D03*
D11*
X86793772Y-72243075D03*
X82813551Y-68559620D03*
D15*
X97870223Y-66005258D03*
M02*
